{"glyphs":{"0":{"ha":922,"x_min":54,"x_max":867,"o":"m 464 1 q 350 -11 383 -11 q 316 -6 339 -11 q 269 1 292 -1 q 242 8 249 4 q 218 26 230 15 q 189 52 191 51 q 142 92 163 68 q 105 149 121 117 q 77 222 89 182 q 60 309 66 262 q 54 411 54 357 q 62 517 54 466 q 86 613 71 566 q 109 673 100 652 l 159 777 q 209 838 173 806 q 264 880 220 848 q 321 905 288 898 l 369 918 q 500 935 456 935 q 530 932 515 935 l 542 930 l 572 932 q 668 911 622 932 q 753 846 715 890 q 812 750 791 803 q 844 669 833 696 q 860 608 854 642 q 867 538 867 574 q 863 480 867 511 q 852 412 859 449 q 836 331 846 376 q 810 272 831 310 q 778 217 790 234 l 745 178 q 691 114 713 138 q 652 79 669 90 q 612 52 636 69 q 576 31 588 34 q 536 16 564 28 q 503 3 508 3 q 494 17 500 3 q 467 14 475 14 l 464 1 m 408 878 q 370 871 395 875 q 326 861 338 867 q 281 833 314 857 q 241 795 254 814 q 212 749 224 771 q 191 699 197 723 q 171 631 181 661 q 148 538 156 587 q 140 439 140 490 q 224 148 140 241 q 404 56 309 56 q 455 69 425 56 q 498 82 486 82 q 514 79 500 82 q 530 77 529 77 q 628 123 562 77 q 734 275 694 170 q 774 496 774 380 q 692 768 774 659 q 494 878 610 878 l 408 878 z "},"1":{"ha":522,"x_min":11,"x_max":408,"o":"m 408 974 q 394 952 408 962 q 373 935 379 943 q 357 881 367 926 q 338 753 347 836 q 329 564 329 671 l 332 392 l 330 350 l 334 288 q 330 243 334 270 q 326 205 326 216 q 353 64 326 160 q 342 50 347 53 q 361 24 363 35 q 358 9 358 14 l 358 5 q 310 0 329 0 l 257 3 q 231 0 249 3 q 226 12 230 4 q 222 25 222 20 q 227 45 222 28 q 258 310 258 166 l 253 614 q 255 713 253 659 l 257 760 q 251 782 257 764 q 232 800 244 800 q 213 792 229 800 q 184 766 198 785 l 184 755 q 165 749 177 755 q 142 720 163 739 q 111 664 120 701 l 93 669 q 68 661 85 669 q 43 652 52 652 l 36 653 q 30 645 32 649 q 28 642 28 642 q 19 657 26 642 q 11 682 11 673 q 14 693 11 689 q 60 733 47 709 q 64 750 61 740 q 66 762 66 760 l 65 766 q 94 775 87 775 q 111 772 98 775 q 114 771 113 771 q 123 777 116 771 q 160 800 131 783 q 201 828 190 817 q 307 949 299 949 q 314 940 312 949 q 404 986 343 977 l 408 975 l 408 974 z "},"2":{"ha":779,"x_min":20,"x_max":710,"o":"m 708 118 q 710 100 710 111 q 697 53 710 84 q 684 12 684 21 l 684 5 q 682 3 684 3 q 668 9 679 3 q 646 17 657 15 q 635 28 639 22 q 618 22 631 19 q 595 30 606 24 q 540 37 583 35 q 450 40 497 40 q 294 31 376 40 q 154 11 212 22 q 82 -9 96 -1 q 66 -11 77 -11 q 32 11 45 -11 q 20 39 20 32 q 27 58 20 48 q 63 87 35 68 q 102 113 92 106 q 140 127 108 123 q 187 134 172 130 q 184 171 184 168 q 186 178 184 176 l 191 178 q 196 168 195 178 q 201 153 196 157 q 468 400 359 260 q 578 657 578 540 l 578 660 l 581 705 q 574 747 581 726 q 555 788 568 768 q 525 825 543 808 q 485 857 507 843 q 444 877 462 871 q 319 884 427 884 q 294 876 308 884 q 273 868 280 868 l 268 868 q 197 810 198 833 q 184 799 187 802 q 168 802 181 802 q 150 782 156 802 q 143 781 147 781 q 119 797 130 781 q 109 838 109 813 q 129 880 109 869 q 200 900 150 891 q 303 926 251 908 q 422 945 356 945 q 456 941 446 945 q 476 937 467 937 l 492 937 q 608 879 553 937 q 663 729 663 821 q 558 450 663 598 q 237 126 453 302 q 239 119 239 123 q 237 111 239 116 q 236 103 236 105 q 253 91 236 87 l 543 103 l 576 100 q 611 106 602 100 q 627 113 620 113 l 640 111 q 647 118 643 111 q 679 126 668 126 q 708 118 690 126 z "},"3":{"ha":673,"x_min":40,"x_max":633,"o":"m 633 899 q 559 832 633 880 q 546 810 551 828 q 530 785 541 793 q 486 746 506 768 q 288 570 396 646 q 265 551 265 554 q 274 544 265 548 q 288 536 283 539 q 321 539 309 539 q 438 508 357 539 q 558 419 518 477 q 597 271 597 360 q 515 97 597 192 q 273 3 433 3 l 197 7 q 165 -3 181 7 q 139 -4 158 -4 q 56 8 102 -4 q 40 62 40 25 q 44 83 40 68 q 60 98 49 98 q 69 96 62 98 l 68 94 q 80 92 68 90 q 100 94 92 94 q 112 92 104 94 q 125 89 120 89 q 155 85 147 89 q 298 52 222 52 q 419 68 380 52 q 485 140 458 84 q 511 264 511 197 q 448 411 511 360 q 262 463 384 463 q 225 461 229 463 l 172 444 q 138 419 155 427 q 131 436 138 433 l 126 425 q 103 460 103 440 q 118 500 103 477 q 154 526 133 523 q 211 564 165 553 q 404 710 333 637 q 475 821 475 784 q 389 864 475 864 q 200 842 291 864 q 104 819 110 819 q 83 834 92 819 q 74 873 74 850 q 118 922 74 922 q 152 914 117 915 q 216 910 186 913 q 285 907 246 907 q 471 917 380 907 q 493 940 477 940 q 505 926 500 940 q 564 950 540 950 q 608 939 582 950 q 633 905 633 928 l 633 899 z "},"4":{"ha":791,"x_min":31,"x_max":750,"o":"m 739 282 q 750 253 750 269 q 731 212 750 243 q 701 180 711 180 q 689 186 694 180 q 669 174 680 174 l 660 175 l 653 174 q 635 181 646 174 q 619 189 625 189 l 589 187 q 561 192 579 187 q 539 196 543 196 l 534 195 l 529 195 q 507 183 513 195 q 501 126 501 172 q 528 32 501 44 l 528 26 q 475 -7 528 -7 l 465 -7 q 456 -8 463 -8 q 440 -6 450 -8 q 424 -3 429 -3 l 424 0 q 432 55 424 5 q 443 175 440 105 q 374 196 410 196 q 328 193 358 196 q 283 189 298 189 l 277 189 q 249 191 267 191 l 210 186 l 195 186 q 139 175 154 186 q 109 171 118 171 q 81 173 101 171 q 49 175 62 175 l 33 175 q 31 211 31 193 q 44 254 31 227 q 83 309 58 280 q 291 609 215 491 q 475 939 368 728 q 487 942 477 944 q 505 939 496 940 q 515 958 514 944 q 519 977 515 972 l 518 971 q 527 960 518 966 q 541 951 536 954 q 558 960 547 960 q 583 925 583 937 q 581 917 583 922 q 467 784 534 878 l 315 572 q 183 371 232 454 q 134 267 134 289 q 139 256 134 261 q 152 253 144 251 q 164 256 160 256 q 179 248 169 256 l 193 264 q 208 255 201 262 q 216 248 214 248 l 266 253 q 327 255 289 255 q 389 257 366 256 q 437 264 413 258 q 460 400 460 296 q 453 490 460 441 q 447 550 447 538 q 452 601 447 589 q 475 628 458 612 q 465 647 465 635 q 510 627 501 627 q 515 628 514 627 q 545 640 530 638 l 551 623 q 521 346 521 444 q 528 264 521 308 q 571 261 542 261 l 640 264 q 688 279 681 264 q 709 276 695 279 q 728 273 723 273 q 739 282 733 273 z "},"5":{"ha":696,"x_min":65,"x_max":619,"o":"m 619 921 q 598 856 607 884 q 567 828 589 828 l 561 828 q 545 840 559 835 q 521 849 530 844 q 505 854 513 854 q 487 851 500 854 q 465 847 473 848 q 419 860 449 860 l 400 856 q 353 851 376 851 l 265 854 q 204 848 239 854 q 174 714 174 787 q 177 685 174 711 q 180 618 180 658 l 180 616 q 192 604 180 611 q 215 597 203 597 l 281 599 q 512 533 433 599 q 591 340 591 467 q 502 94 591 191 q 228 -4 412 -4 q 146 3 180 -4 q 110 11 113 11 q 100 8 108 11 q 65 56 65 35 q 79 93 65 66 q 140 127 93 119 q 156 112 146 119 q 167 100 166 104 q 188 89 172 98 q 207 79 203 79 l 212 81 q 232 72 222 81 q 248 64 241 64 l 252 64 q 311 58 273 58 q 477 129 425 58 q 529 293 529 200 q 465 471 529 407 q 286 534 401 534 q 171 512 234 534 q 83 490 107 490 q 95 546 83 511 q 110 597 107 582 q 129 607 121 597 q 118 603 121 603 q 113 610 113 603 q 118 637 113 615 q 138 793 138 721 l 134 828 l 135 848 q 133 877 135 859 q 131 900 131 894 q 143 936 131 919 q 168 953 155 953 q 181 945 174 953 q 192 935 188 937 q 246 925 196 932 q 367 918 296 918 q 482 924 407 918 q 561 937 557 929 l 570 937 l 597 939 q 619 921 616 939 z "},"6":{"ha":688,"x_min":35,"x_max":612,"o":"m 424 579 q 446 559 429 574 q 569 484 525 545 q 612 328 612 423 q 602 262 612 296 q 573 195 593 228 q 525 130 553 161 q 459 71 496 98 q 437 57 444 60 l 414 47 q 361 18 391 31 q 295 -1 330 5 q 257 -5 267 -5 l 212 0 l 208 -1 q 142 22 184 -1 q 67 105 100 45 q 35 239 35 165 q 57 381 35 285 q 118 538 79 477 q 111 555 111 547 q 312 856 195 701 q 361 933 361 922 q 359 939 361 938 q 396 966 374 966 l 406 966 q 426 969 414 966 q 443 972 438 972 l 476 956 l 478 956 q 481 942 478 952 q 484 926 484 932 q 464 904 484 919 q 443 864 445 888 l 428 859 l 428 847 l 416 848 q 338 792 378 848 q 298 714 298 736 q 289 706 297 711 q 275 697 280 702 q 231 618 261 655 q 240 608 237 617 q 248 595 243 598 q 339 586 279 589 q 424 579 400 583 m 317 60 q 411 72 377 60 q 475 135 444 83 q 522 232 505 186 q 538 304 538 277 q 526 365 538 332 q 506 414 515 398 q 484 453 488 446 q 451 488 475 473 q 386 517 427 503 q 310 536 331 536 q 273 526 289 536 q 201 507 235 513 q 139 432 168 500 q 111 282 111 364 l 115 241 q 122 199 116 223 q 139 158 128 175 q 159 131 150 142 l 182 107 q 217 81 195 95 q 260 64 239 68 q 317 60 281 60 z "},"7":{"ha":703,"x_min":43,"x_max":679,"o":"m 45 909 q 100 935 60 935 q 139 932 114 935 q 170 922 155 922 l 200 924 q 230 919 209 924 q 267 914 252 914 l 350 917 l 418 916 q 563 933 523 916 q 625 951 602 951 q 641 950 631 951 q 657 949 652 949 l 665 950 q 679 933 679 950 q 669 911 679 926 q 660 889 660 896 q 661 882 660 884 q 639 872 656 874 q 583 780 616 843 l 378 387 q 304 218 355 346 l 261 114 q 245 77 250 89 q 240 54 240 62 q 241 47 240 48 q 221 5 236 29 q 207 -28 207 -18 l 207 -31 q 182 -58 194 -58 q 166 -52 177 -58 q 133 -31 155 -46 q 110 8 110 -15 q 136 74 110 36 q 187 154 157 94 q 297 352 218 214 q 478 703 376 491 q 509 784 492 743 q 526 831 526 825 q 517 846 526 846 q 510 843 515 846 q 367 869 441 869 q 291 863 332 869 q 239 856 250 856 l 211 857 q 146 842 186 857 l 107 827 l 98 827 q 56 841 68 827 q 43 889 43 854 l 45 909 z "},"8":{"ha":739,"x_min":56,"x_max":663,"o":"m 485 482 q 573 448 562 464 q 608 416 585 433 q 646 375 630 400 q 663 293 663 349 q 572 81 663 168 q 347 -5 482 -5 q 334 -3 345 -5 q 321 0 322 0 q 313 -4 317 0 q 306 -8 309 -8 q 126 44 195 -8 q 58 178 58 97 q 90 313 58 265 l 90 326 q 235 453 157 423 q 165 476 197 458 q 105 524 133 494 q 60 589 64 566 q 56 642 56 620 q 148 855 56 771 q 370 939 240 939 l 397 933 q 405 937 400 933 q 414 942 410 941 l 432 943 q 504 930 463 943 q 546 916 544 917 q 601 881 570 909 q 647 822 632 852 q 661 760 661 792 q 659 721 661 740 q 652 685 656 703 q 642 652 648 667 l 628 621 l 628 607 q 485 482 557 503 m 457 525 l 463 524 q 530 575 486 524 q 575 726 575 626 q 546 833 575 806 q 495 869 517 861 q 466 882 473 876 q 432 895 459 887 q 378 903 404 903 q 273 882 301 903 q 267 879 269 879 q 264 880 266 879 q 261 882 262 882 q 177 779 203 839 q 150 696 150 718 q 177 558 150 589 q 242 506 204 528 q 334 484 279 484 q 419 499 391 484 q 450 514 446 514 l 452 514 q 457 525 454 515 m 457 52 q 544 145 509 81 q 578 269 578 210 q 555 357 578 315 q 495 420 532 399 q 433 441 458 441 l 408 439 l 376 441 q 328 433 345 441 q 322 436 326 436 q 301 429 317 436 q 273 421 285 422 q 261 410 261 420 q 187 348 222 410 q 151 224 151 286 q 168 122 151 158 q 225 57 184 87 q 313 28 266 28 l 330 29 l 340 29 q 400 34 372 29 q 432 39 427 39 q 452 53 441 53 q 457 52 456 53 z "},"9":{"ha":705,"x_min":60,"x_max":653,"o":"m 428 379 q 407 382 414 382 q 352 371 388 382 q 297 359 316 359 q 232 371 286 359 q 142 412 178 382 q 83 494 106 442 q 60 607 60 546 q 66 671 60 643 l 83 724 q 100 770 91 758 q 160 841 140 820 q 210 886 189 872 l 257 909 q 308 932 280 924 q 373 941 337 941 l 436 951 q 576 891 498 951 q 653 677 653 831 q 645 602 653 644 q 614 496 636 549 q 559 372 587 430 q 502 270 531 317 q 445 186 473 224 q 388 123 416 151 l 352 79 q 324 54 342 68 q 300 22 302 37 q 221 -71 241 -58 l 215 -71 q 188 -59 205 -71 q 160 -46 171 -48 q 125 -12 125 -34 q 135 7 125 -4 q 193 50 144 18 q 387 222 287 112 q 532 437 486 333 q 578 657 578 541 q 552 793 578 739 q 471 872 526 846 q 368 897 417 897 q 326 894 344 897 q 290 883 306 890 l 252 867 q 212 842 231 858 q 179 804 194 825 q 154 754 164 781 q 138 694 143 726 q 132 625 132 661 q 134 590 132 602 q 144 578 144 586 l 144 568 q 157 527 144 551 q 185 484 170 503 q 218 452 200 465 q 244 439 235 439 l 277 439 q 283 430 282 439 q 289 421 283 421 l 314 425 q 345 423 324 425 q 378 421 366 421 l 386 421 q 402 435 393 429 q 428 441 411 441 l 439 444 q 460 450 453 447 q 469 453 468 453 q 477 448 473 453 q 481 437 481 444 q 458 408 481 422 q 449 411 458 409 q 428 379 430 405 z "}," ":{"ha":354,"x_min":0,"x_max":0,"o":""},"!":{"ha":428,"x_min":140,"x_max":275,"o":"m 275 993 q 249 601 256 831 q 232 275 241 371 l 229 275 q 215 264 222 275 q 204 253 208 253 l 203 253 q 199 254 201 253 q 195 256 196 256 q 192 254 193 256 q 189 253 190 253 q 179 282 179 264 q 183 307 179 294 q 201 463 201 368 l 190 648 q 177 807 184 747 q 170 888 170 867 q 171 928 170 913 q 176 954 172 943 q 189 975 180 966 q 220 993 197 983 q 253 1003 242 1003 q 275 993 262 1003 m 249 47 q 221 -21 249 33 l 216 -21 q 202 -28 210 -21 q 189 -37 194 -36 q 140 7 140 -19 l 140 18 q 189 86 140 75 l 189 87 l 191 87 q 249 54 208 87 l 249 47 z "},"\"":{"ha":525,"x_min":139,"x_max":547,"o":"m 319 935 q 284 870 300 901 q 253 810 267 840 q 229 754 239 781 q 210 703 218 728 q 197 681 205 690 q 186 667 186 668 q 178 642 183 660 q 166 614 174 624 q 140 602 159 604 q 139 623 139 608 q 166 730 139 662 q 210 853 193 798 q 254 930 227 907 q 319 962 281 953 l 319 935 m 323 579 q 318 596 318 590 q 347 675 318 602 q 416 817 375 747 q 443 877 423 830 q 486 940 463 924 q 538 956 509 956 q 547 947 547 956 q 517 878 547 932 l 456 766 q 395 652 424 709 q 357 586 367 595 q 335 576 347 576 q 323 579 332 576 z "},"#":{"ha":903,"x_min":32,"x_max":871,"o":"m 682 581 l 696 581 q 782 595 743 581 q 831 610 821 610 q 871 582 871 610 q 838 537 871 551 q 766 522 804 522 q 733 525 759 522 q 688 528 707 528 q 640 510 661 528 q 585 396 620 492 q 639 370 609 370 q 674 376 651 370 q 697 401 697 382 q 760 391 745 398 q 775 366 775 385 l 775 357 q 742 309 767 326 l 736 309 q 722 313 728 309 q 706 296 714 307 q 693 285 698 286 q 624 314 692 314 q 547 298 597 314 q 493 153 532 242 q 446 29 453 64 q 424 6 441 9 q 396 -4 406 3 l 396 -18 q 362 -4 385 -12 q 339 25 339 4 q 370 71 339 40 q 407 113 401 101 l 473 293 l 464 309 q 386 311 404 311 q 283 304 350 311 q 219 164 271 260 q 157 11 168 69 q 142 0 155 6 q 127 -18 129 -6 q 96 -7 101 -7 q 68 -18 86 -7 q 66 -1 66 -13 q 87 68 66 33 l 86 68 q 103 75 87 68 q 188 232 163 168 q 215 298 212 296 q 154 306 181 306 q 118 301 129 306 q 94 284 106 296 q 74 272 81 272 q 49 282 66 272 q 32 304 32 292 q 60 347 32 335 q 86 368 68 368 l 100 367 q 120 372 109 367 q 135 376 131 376 q 151 363 145 376 l 203 363 q 234 373 220 363 q 269 420 248 383 q 307 514 289 456 q 264 519 289 519 q 220 517 251 519 q 171 514 189 514 q 103 532 131 514 q 167 576 125 572 l 179 578 q 213 574 191 578 q 245 570 235 570 l 268 572 l 298 570 q 337 588 324 570 q 372 660 349 606 q 423 797 395 713 q 469 899 451 880 q 509 918 486 918 q 547 913 523 918 l 547 895 q 524 853 539 892 l 425 621 l 425 610 q 436 585 425 593 q 450 576 447 576 l 465 576 l 513 575 q 549 578 533 575 q 580 591 566 583 q 606 612 594 599 q 627 644 617 625 q 645 688 636 663 q 675 767 651 705 q 703 846 693 809 q 711 892 707 867 q 715 909 713 905 q 731 918 716 913 q 766 922 745 922 q 775 932 771 928 q 782 925 777 930 q 794 918 787 920 l 810 922 q 811 911 811 918 q 804 879 811 895 q 743 758 782 859 q 673 596 704 658 l 682 581 m 561 514 q 514 525 541 525 l 469 524 l 427 525 q 391 509 394 525 q 380 489 388 497 q 356 465 367 480 q 334 418 346 449 q 322 386 322 387 q 332 367 322 374 l 368 367 q 432 370 406 367 q 476 380 458 373 q 508 404 494 387 q 527 429 522 420 q 542 467 532 437 q 561 514 551 498 z "},"$":{"ha":567,"x_min":68,"x_max":489,"o":"m 484 946 q 489 901 489 922 q 457 863 489 863 q 437 865 451 863 q 378 896 417 896 q 348 884 360 896 q 327 808 335 872 q 318 653 318 745 q 321 547 318 556 q 359 513 323 538 q 482 315 482 429 q 426 151 482 238 q 335 57 369 64 q 282 16 293 46 q 272 -97 272 -14 q 236 -294 272 -274 q 204 -282 213 -290 q 195 -258 195 -275 q 211 -149 195 -238 q 232 -28 232 -92 q 231 8 232 -3 q 89 -47 138 -47 q 68 -1 68 -47 q 79 35 68 15 q 127 43 104 43 q 140 41 135 43 q 150 40 144 40 q 195 49 155 40 q 240 65 235 58 q 258 199 246 71 q 269 436 269 327 l 269 458 q 126 595 147 551 q 104 685 104 638 q 256 918 104 819 q 285 940 278 932 q 290 966 292 948 q 288 997 288 984 q 345 1196 288 1196 q 370 1187 355 1196 q 356 1085 369 1152 q 343 987 343 1017 q 347 945 343 967 q 378 942 369 942 q 422 947 404 942 q 440 951 439 951 l 484 946 m 275 575 q 285 867 285 776 q 275 875 285 875 q 190 786 214 821 q 167 711 167 751 q 260 571 167 638 l 275 575 m 294 77 q 380 159 347 99 q 412 286 412 218 q 388 371 412 328 q 319 440 363 414 q 286 81 307 237 l 294 77 z "},"%":{"ha":851,"x_min":94,"x_max":802,"o":"m 321 946 q 340 954 335 954 l 356 951 q 389 946 385 949 q 420 912 401 922 q 477 899 438 902 l 562 895 q 630 898 615 895 q 659 921 644 902 q 732 951 684 951 q 768 930 754 951 q 782 886 782 908 q 775 864 782 870 q 752 850 768 857 q 726 838 735 842 l 726 823 l 724 823 q 710 817 717 823 q 700 810 704 810 q 693 812 699 810 q 286 122 286 150 q 249 59 280 100 q 207 0 218 18 q 214 -16 214 -9 q 194 -58 214 -18 q 174 -107 174 -98 q 170 -99 174 -105 q 163 -89 165 -92 q 145 -79 161 -86 q 129 -68 129 -72 l 131 -64 q 125 -58 131 -58 l 110 -58 q 131 -2 117 -21 q 174 39 144 17 q 208 73 191 52 q 241 121 224 93 q 275 183 256 146 l 313 256 q 353 311 328 275 l 425 435 q 519 602 474 520 q 639 838 580 715 l 629 847 q 433 842 450 842 l 427 762 q 421 709 423 724 q 407 673 418 694 q 386 636 396 652 q 340 595 375 620 q 278 558 304 571 q 230 538 252 545 q 192 532 208 532 q 118 563 141 532 q 94 663 94 593 q 99 718 94 692 q 112 766 103 741 l 125 807 q 146 843 130 821 q 176 882 160 865 q 210 912 192 899 l 239 934 q 258 945 248 942 q 283 947 267 947 l 321 946 m 222 597 q 240 596 227 596 q 332 643 295 596 q 368 760 368 690 q 351 838 368 802 l 330 838 q 282 867 309 857 l 272 857 q 207 851 224 857 q 170 794 189 846 q 150 697 150 742 q 162 640 150 667 q 203 612 174 612 q 222 597 212 612 m 555 338 q 596 376 586 376 q 628 391 603 379 q 679 403 654 403 q 767 350 733 403 q 802 210 802 297 q 769 86 802 138 q 694 12 736 35 q 657 -25 669 -1 q 640 -28 647 -25 q 632 -31 633 -31 q 628 -27 631 -31 q 624 -21 626 -24 q 586 -25 599 -25 q 559 -21 574 -25 q 527 -4 551 -16 q 488 21 504 7 q 461 67 471 35 q 452 131 452 100 q 542 338 452 229 l 555 338 m 660 32 q 710 79 680 32 q 739 193 739 127 q 712 299 739 256 q 650 343 684 343 q 564 296 608 343 q 519 176 519 249 q 530 120 519 147 q 553 77 541 93 q 584 53 565 62 q 623 40 602 44 l 660 32 z "},"&":{"ha":1026,"x_min":69,"x_max":985,"o":"m 985 542 q 913 515 972 510 q 885 517 895 517 q 878 509 878 517 q 873 507 876 507 q 868 510 871 507 q 863 513 865 513 l 860 511 q 848 484 853 508 q 844 462 846 470 q 835 433 840 447 q 819 400 828 417 q 793 361 808 381 q 783 336 784 349 q 781 319 781 327 q 761 276 781 311 q 730 224 751 258 q 705 186 718 204 q 692 154 692 169 q 738 85 692 126 q 864 9 785 44 q 890 -31 890 -9 q 873 -72 890 -39 q 850 -111 856 -104 q 839 -117 845 -117 q 790 -92 823 -117 q 698 2 780 -53 q 596 57 616 57 q 575 50 587 57 q 439 -9 506 12 q 332 -31 373 -31 q 277 -23 312 -31 q 227 -14 243 -16 q 181 7 210 -13 q 132 50 152 27 q 98 98 113 72 q 77 154 84 125 q 69 212 69 183 q 71 248 69 231 q 76 281 73 265 q 87 313 80 297 l 100 343 l 100 368 q 128 412 111 395 q 160 448 145 429 q 227 521 175 467 l 241 521 q 250 545 250 533 q 248 559 250 554 l 257 566 q 237 675 237 632 q 244 734 237 707 q 263 783 250 761 q 295 824 276 806 l 333 859 q 370 884 351 877 q 410 892 389 892 l 414 892 q 494 917 464 917 q 539 913 501 917 q 593 880 576 909 q 610 815 610 852 q 364 559 610 674 q 357 538 357 551 q 359 521 357 526 q 451 374 394 450 q 556 253 508 297 q 647 187 604 208 q 675 218 659 203 q 714 294 691 232 q 746 403 737 357 q 755 475 755 450 l 755 490 q 721 522 748 522 l 652 524 q 593 520 625 524 l 570 517 q 504 534 504 517 q 531 560 504 548 q 602 572 558 572 q 659 568 623 572 q 708 564 694 564 q 769 572 751 564 q 789 581 787 581 l 790 581 q 804 600 802 588 l 810 600 q 829 608 819 600 q 844 615 840 615 q 869 593 858 615 q 887 567 880 571 q 907 565 895 562 q 925 567 919 567 l 928 567 q 935 562 932 562 q 940 568 937 562 q 947 576 943 574 q 966 570 963 570 q 985 542 981 565 m 363 593 q 465 652 391 593 q 539 779 539 711 q 526 827 539 810 q 499 855 512 843 q 464 867 486 867 q 414 861 434 867 q 349 825 372 833 q 316 775 330 815 q 302 705 302 736 q 309 651 302 685 q 322 606 315 616 q 354 595 330 596 l 363 593 m 374 36 q 394 31 387 35 q 403 26 402 26 q 490 50 428 26 q 561 81 552 74 q 570 98 570 88 q 560 124 570 109 q 506 184 550 140 q 437 253 461 228 q 380 332 423 282 q 325 412 338 382 q 300 456 303 454 q 284 470 296 458 q 264 482 272 482 q 186 403 229 482 q 143 249 143 324 q 154 177 143 212 q 187 112 165 142 q 233 70 208 81 l 290 43 q 342 29 321 29 q 374 36 361 29 z "},"'":{"ha":347,"x_min":139,"x_max":370,"o":"m 144 579 q 139 595 139 590 q 172 679 139 604 q 224 791 205 754 q 259 868 243 829 q 296 931 276 907 q 358 956 317 956 q 370 947 370 956 q 367 932 370 946 q 196 608 196 617 q 155 576 176 576 q 144 579 153 576 z "},"(":{"ha":597,"x_min":98,"x_max":555,"o":"m 250 832 q 420 961 345 917 q 524 1004 496 1004 q 555 986 555 1004 q 554 978 555 981 q 456 939 505 949 q 310 828 380 909 q 205 644 240 748 q 170 473 170 541 q 372 20 170 153 l 392 20 q 418 -21 418 -1 q 392 -62 418 -49 q 345 -75 367 -75 q 318 -69 331 -75 q 311 -56 315 -66 q 300 -40 306 -45 q 246 -1 273 -33 q 181 85 218 32 q 135 172 143 139 q 119 225 127 204 q 98 431 98 288 q 109 526 98 467 l 130 613 q 135 646 132 624 q 177 724 139 668 q 250 815 215 779 l 250 832 z "},")":{"ha":597,"x_min":125,"x_max":456,"o":"m 172 1013 l 174 1013 q 189 1021 181 1013 q 201 1029 196 1029 q 306 936 218 1029 q 425 719 394 843 q 456 550 456 595 q 407 299 456 481 q 231 -35 357 117 q 227 -56 227 -43 l 227 -64 q 172 -98 184 -72 q 157 -100 167 -100 q 125 -69 125 -100 q 133 -54 125 -62 q 147 -27 140 -46 q 158 -1 154 -9 q 168 -9 161 -9 q 190 14 174 -9 q 240 58 206 37 q 323 244 275 102 q 372 452 372 386 l 372 456 q 378 525 378 502 q 358 654 378 583 q 306 789 338 725 q 239 887 273 853 q 174 926 205 920 q 142 933 144 931 q 140 953 140 936 q 143 970 140 956 q 172 1008 172 999 l 172 1013 z "},"*":{"ha":465,"x_min":69,"x_max":396,"o":"m 370 904 q 376 885 376 892 q 349 839 376 864 q 282 806 321 813 q 264 790 264 800 q 295 775 264 784 q 364 766 326 766 l 376 766 q 395 747 388 766 l 396 743 q 381 721 396 732 q 351 710 367 710 q 250 770 322 710 q 243 754 243 763 q 255 715 243 741 q 268 679 268 690 l 265 668 l 267 646 q 249 612 267 621 l 235 612 q 208 660 208 631 q 212 698 208 673 q 215 733 215 723 q 212 753 215 742 q 164 694 196 741 q 97 647 132 647 q 87 653 94 647 q 81 669 81 659 q 95 699 81 685 q 149 738 109 712 q 189 777 189 764 q 129 822 189 787 q 69 879 69 857 q 79 897 69 884 q 104 911 89 911 q 152 867 127 911 q 195 823 178 823 q 208 832 204 823 q 212 846 212 842 l 211 889 q 253 953 211 953 l 261 953 q 286 933 286 953 q 269 894 286 924 q 252 842 252 864 q 253 827 252 831 q 316 870 281 837 q 366 904 351 904 l 370 904 z "},"+":{"ha":694,"x_min":86,"x_max":608,"o":"m 593 513 q 608 479 608 495 q 595 454 608 463 q 582 435 583 445 q 560 425 574 435 q 543 415 546 415 q 504 424 537 415 q 427 432 471 432 l 397 432 l 390 433 q 377 422 381 433 q 374 370 374 412 q 383 297 374 336 q 392 249 392 258 q 381 232 392 247 q 371 208 371 217 q 352 196 361 208 q 328 183 343 183 q 293 197 313 183 l 294 207 l 293 240 q 302 271 293 258 q 298 318 298 303 q 302 341 298 330 l 306 351 l 309 425 l 161 422 q 109 403 118 403 q 95 412 103 403 q 86 429 86 422 l 87 433 q 113 461 96 441 q 139 488 130 482 q 170 492 149 494 q 201 490 191 490 l 211 490 l 216 500 q 248 493 225 493 l 279 494 l 289 493 q 309 503 303 493 q 314 545 314 513 q 307 575 314 566 l 307 597 q 314 632 311 613 q 304 668 304 655 q 339 699 304 699 q 366 694 353 699 q 387 703 382 703 q 395 700 389 703 q 396 690 396 696 q 388 637 396 667 q 380 582 380 608 l 382 533 l 382 513 q 388 498 382 501 q 412 493 393 494 q 436 492 431 492 l 440 501 q 488 492 473 492 q 546 504 546 492 l 545 509 q 559 512 548 509 q 578 518 570 516 l 578 509 l 587 503 q 593 513 593 507 z "},",":{"ha":347,"x_min":69,"x_max":231,"o":"m 75 -180 q 69 -165 69 -172 l 69 -161 q 116 11 85 -86 q 160 118 146 108 q 187 127 173 127 q 218 116 205 127 q 231 90 231 105 q 213 44 231 85 q 168 -39 196 3 q 134 -113 140 -81 q 117 -143 127 -127 q 100 -170 106 -159 q 75 -180 95 -180 z "},"-":{"ha":661,"x_min":69,"x_max":591,"o":"m 576 354 q 591 321 591 337 q 578 296 591 305 q 566 277 566 287 q 543 267 557 277 q 526 257 529 257 q 513 260 522 257 q 395 272 467 272 q 316 268 366 272 q 244 264 267 264 l 180 265 q 144 264 157 265 q 92 244 100 244 q 78 254 86 244 q 69 271 69 263 l 71 275 q 96 303 79 283 q 122 330 113 324 q 153 334 132 336 q 184 332 174 332 l 195 332 l 200 342 q 235 334 218 334 q 251 335 240 334 q 267 336 261 336 l 301 335 l 351 336 q 419 334 366 336 l 424 343 q 471 334 457 334 q 529 346 529 334 l 528 350 l 529 350 q 561 359 535 350 l 561 350 q 571 345 561 345 l 576 354 z "},".":{"ha":347,"x_min":118,"x_max":228,"o":"m 178 150 q 199 129 193 148 q 216 92 205 109 q 228 66 228 75 q 212 18 228 40 l 210 18 q 203 24 205 18 q 164 -5 178 16 q 139 8 151 5 q 134 56 134 28 q 126 77 134 66 q 118 94 118 88 l 118 97 q 126 110 120 100 q 134 121 132 120 l 178 150 z "},"/":{"ha":668,"x_min":28,"x_max":639,"o":"m 639 971 q 622 928 639 955 q 599 893 606 901 q 593 878 597 891 l 587 843 l 511 707 q 497 681 499 684 l 471 619 q 359 415 420 523 l 264 248 q 196 117 216 160 q 171 36 171 63 l 171 33 l 167 33 q 146 7 157 33 q 114 -53 130 -37 q 75 -69 98 -69 q 28 -46 28 -69 q 29 -37 28 -40 q 51 -4 50 -24 q 69 30 53 15 q 95 59 85 45 q 133 135 105 74 q 171 211 161 196 q 185 224 178 216 q 197 244 191 233 q 208 271 203 256 q 221 297 212 283 q 245 335 230 311 l 278 389 l 278 408 q 363 542 321 482 l 363 558 q 385 590 380 575 q 405 629 391 604 q 419 665 419 654 q 415 679 419 673 q 437 710 420 683 q 454 741 454 736 q 468 777 454 745 q 491 832 481 807 q 505 892 500 858 q 524 920 505 893 q 551 958 543 947 q 585 987 559 968 q 593 987 587 987 q 639 978 600 987 l 639 971 z "},":":{"ha":347,"x_min":115,"x_max":231,"o":"m 175 493 q 196 473 191 492 q 214 437 202 454 q 225 407 225 420 q 210 363 225 387 l 207 363 q 200 368 203 363 q 161 338 173 357 q 136 353 144 349 q 131 400 131 375 q 123 420 131 410 q 115 437 115 431 l 115 441 q 131 465 125 453 l 175 493 m 210 123 q 221 58 211 77 q 231 37 231 39 l 215 11 l 171 -17 q 150 4 155 -16 q 132 39 144 23 q 121 69 121 56 q 136 114 121 94 q 146 109 144 114 q 184 139 173 119 q 210 123 197 129 z "},";":{"ha":347,"x_min":69,"x_max":231,"o":"m 172 493 q 193 472 187 492 q 211 437 199 453 q 222 408 222 420 q 207 363 222 387 l 204 363 q 197 368 199 363 q 158 338 170 357 q 134 353 150 345 q 127 400 127 375 q 120 420 127 410 q 113 437 113 431 l 113 441 q 127 465 122 453 l 172 493 m 75 -180 q 69 -165 69 -172 l 69 -161 q 116 11 85 -86 q 160 118 146 108 q 187 127 173 127 q 218 116 205 127 q 231 90 231 105 q 213 44 231 85 q 168 -39 196 3 q 134 -113 140 -81 q 117 -143 127 -127 q 100 -170 106 -159 q 75 -180 95 -180 z "},"<":{"ha":416,"x_min":35,"x_max":358,"o":"m 358 269 q 334 200 356 231 l 323 207 q 293 192 303 200 l 289 192 q 275 205 281 192 q 265 225 269 219 q 35 475 35 435 q 39 485 35 481 q 198 626 121 545 q 302 728 275 707 q 349 749 330 749 q 358 736 354 749 q 333 692 351 714 q 251 625 315 671 q 157 546 187 579 q 126 507 126 513 l 126 505 l 127 505 q 158 439 133 469 q 225 372 184 409 q 286 317 267 336 q 313 298 304 298 q 322 301 316 298 q 330 304 328 304 l 334 304 q 353 268 345 268 q 358 269 355 268 z "},"=":{"ha":694,"x_min":85,"x_max":608,"o":"m 591 637 q 608 611 608 621 l 607 607 q 577 574 599 600 q 547 549 556 549 q 522 550 538 549 q 493 551 505 551 l 484 551 l 478 542 q 435 549 456 551 q 395 547 414 547 l 326 546 q 257 549 305 546 l 254 541 q 205 550 227 550 q 149 538 149 550 q 150 533 149 534 q 135 529 146 533 q 117 524 124 526 l 117 533 l 107 538 q 100 529 100 533 l 100 528 q 85 564 85 549 q 98 587 85 577 q 111 606 111 596 q 134 615 119 606 q 151 625 149 625 q 164 623 155 625 q 283 608 227 608 q 355 612 305 608 q 435 616 406 616 l 498 616 q 533 618 522 616 q 586 639 581 639 l 591 637 m 593 424 q 607 390 607 406 q 595 365 607 375 q 582 346 583 355 q 561 337 574 346 q 542 326 548 329 q 410 343 450 343 q 335 338 385 343 q 260 334 285 334 l 196 335 q 160 334 172 335 q 107 314 115 314 q 94 324 102 314 q 85 340 85 334 l 86 345 q 134 398 127 393 q 155 403 142 403 q 178 401 163 403 q 199 399 192 399 q 215 411 215 399 q 250 403 234 403 q 266 404 256 403 q 282 406 277 406 l 317 404 l 367 406 q 436 403 383 406 l 439 411 q 486 403 468 403 q 545 415 545 403 l 543 419 l 545 419 q 559 423 549 419 q 576 429 570 427 l 576 419 q 585 414 576 414 q 593 424 593 414 z "},">":{"ha":416,"x_min":58,"x_max":379,"o":"m 83 742 q 93 736 87 736 q 110 743 98 736 q 126 750 121 750 q 141 737 136 750 q 151 717 147 724 q 201 673 175 697 q 255 621 227 649 q 313 559 283 592 q 361 506 343 526 q 379 481 378 485 q 379 472 379 477 q 378 457 379 463 q 224 322 298 401 q 131 228 150 244 q 99 203 112 212 q 66 195 87 195 q 58 207 58 195 q 72 235 58 216 q 98 266 85 254 q 125 289 111 279 q 180 328 139 299 q 255 392 220 356 q 290 435 290 427 l 290 436 l 289 436 q 218 543 286 481 l 109 643 l 103 643 q 83 637 94 643 l 75 663 q 65 673 72 673 q 58 672 61 673 q 83 742 60 711 z "},"?":{"ha":467,"x_min":125,"x_max":411,"o":"m 224 949 q 278 987 262 987 q 305 970 286 987 l 355 922 q 399 858 387 893 q 411 803 411 822 q 381 691 411 748 q 298 567 351 635 q 215 447 245 499 q 186 363 186 395 q 212 293 186 324 q 244 253 238 262 l 244 250 q 237 231 244 243 q 228 211 229 219 q 201 199 205 209 q 196 197 199 197 q 191 205 193 197 q 170 193 180 193 q 149 204 157 193 q 133 260 142 214 q 125 321 125 307 q 149 416 125 363 q 237 555 172 468 q 319 686 302 643 q 335 765 335 728 q 332 797 335 783 q 309 846 330 812 q 224 926 274 874 l 224 949 m 191 104 q 241 47 241 68 q 222 10 241 30 q 186 -9 202 -9 q 152 10 178 -9 q 125 46 125 29 l 125 50 q 153 77 152 72 q 191 104 165 100 z "},"@":{"ha":1232,"x_min":60,"x_max":1173,"o":"m 517 896 q 528 906 523 902 q 547 914 533 911 l 616 932 q 676 944 652 942 q 732 949 716 947 l 783 957 q 825 951 802 957 q 856 946 848 946 l 864 946 q 930 938 892 946 q 994 921 966 931 l 1034 905 q 1063 895 1055 900 q 1103 848 1074 890 q 1141 782 1126 816 q 1164 713 1156 748 q 1173 640 1173 677 q 1121 425 1173 546 q 968 239 1069 304 q 782 175 867 175 q 672 224 692 175 l 656 265 l 656 281 l 657 345 l 647 353 q 404 180 516 180 l 387 180 q 339 217 347 195 q 330 258 330 239 l 330 265 q 376 440 330 355 q 493 576 422 526 q 615 647 564 627 q 677 667 666 667 l 699 665 q 721 676 703 665 l 730 673 q 746 681 735 681 l 751 681 l 764 693 q 821 741 763 732 q 839 725 826 731 l 839 720 q 821 660 839 686 q 807 628 807 648 l 807 624 q 784 556 797 603 q 761 487 772 510 q 740 408 751 463 q 729 323 729 353 q 730 292 729 300 q 729 282 729 290 q 744 249 729 266 q 795 227 758 232 q 835 222 831 222 q 956 268 885 222 q 990 298 984 298 l 991 298 q 1086 632 1086 409 q 1034 791 1086 714 q 871 888 981 869 q 707 908 761 908 q 693 901 705 908 q 669 882 680 894 q 643 878 657 878 l 618 878 q 580 867 592 878 q 566 857 568 857 q 559 863 564 860 q 547 859 553 863 l 547 848 l 545 848 q 539 853 542 848 q 529 859 536 858 q 501 849 523 855 q 467 837 479 843 q 441 822 454 830 q 406 811 429 814 q 362 771 399 806 q 308 723 326 736 q 288 690 290 709 q 181 535 225 640 q 138 328 138 431 q 153 242 138 281 q 189 195 168 203 l 186 180 q 229 132 205 153 q 296 97 252 111 l 373 72 q 454 55 406 62 q 555 47 503 47 l 595 47 q 672 63 639 56 q 714 73 705 69 q 730 77 723 77 q 746 68 746 77 q 737 52 746 64 q 494 -11 575 -11 q 380 -3 446 -11 q 294 5 315 5 q 278 21 286 5 q 230 38 260 29 q 197 54 199 47 q 192 65 195 61 q 189 69 189 68 q 100 134 140 78 q 60 286 60 191 q 210 677 60 494 q 222 701 216 685 q 247 727 229 717 q 267 743 264 736 q 439 863 345 823 q 482 892 477 880 q 498 896 492 896 l 507 895 l 517 896 m 690 484 q 700 497 698 489 q 705 518 701 505 q 716 556 709 530 q 722 586 722 581 q 720 610 722 608 q 710 612 717 612 q 676 623 690 612 q 629 607 656 612 q 610 594 602 602 q 612 591 612 593 q 545 569 577 590 q 462 454 513 547 q 411 319 411 361 q 413 295 411 309 q 415 277 415 281 l 416 261 q 446 236 431 236 q 492 252 463 236 q 530 271 521 269 q 593 329 539 274 q 654 397 648 385 q 690 484 661 410 z "},"A":{"ha":1046,"x_min":-14,"x_max":997,"o":"m 616 940 q 958 135 671 753 q 997 37 997 77 q 990 20 997 28 q 943 1 984 13 q 889 -17 902 -12 q 879 7 879 -5 q 882 30 879 17 l 885 40 q 863 132 885 62 q 787 310 841 202 q 776 325 782 313 q 747 338 770 338 q 722 325 734 338 q 694 335 720 330 l 673 340 l 653 340 q 557 333 584 340 q 529 325 530 325 q 514 335 519 325 q 452 326 472 323 q 412 329 432 329 q 329 318 368 329 q 280 308 291 308 q 258 290 269 307 l 249 297 q 146 72 180 154 q 124 -15 142 21 q 93 -50 107 -50 l 92 -50 q -3 -28 68 -41 q -14 -16 -14 -26 q 10 26 -14 7 q 37 56 34 45 q 78 114 60 98 q 139 210 102 143 q 200 300 176 277 q 265 428 201 330 q 376 612 329 526 q 428 705 422 699 q 522 889 522 840 l 522 892 q 538 899 538 892 l 538 905 q 571 960 538 930 l 581 956 q 608 978 598 978 q 621 960 621 978 q 616 940 621 949 m 650 383 q 689 389 669 389 q 736 415 736 397 q 657 616 736 416 q 554 815 578 815 q 488 721 537 815 q 378 527 439 627 q 317 406 317 428 q 337 385 317 390 q 361 379 357 379 l 374 380 q 405 377 385 380 q 432 374 425 374 q 485 379 448 374 q 532 385 522 385 q 555 382 541 385 q 572 379 568 379 q 586 389 582 379 q 616 383 603 383 l 637 385 q 650 383 645 385 z "},"B":{"ha":742,"x_min":139,"x_max":672,"o":"m 447 558 q 620 459 568 516 q 672 302 672 401 q 534 62 672 162 l 519 62 q 495 41 507 50 q 479 33 482 33 q 473 39 476 33 q 457 27 473 35 q 394 12 441 19 q 346 4 347 4 q 330 5 334 4 l 315 -9 l 296 -3 q 277 -9 287 -9 q 262 -7 267 -9 q 203 -9 245 -9 q 139 -12 160 -9 q 143 14 143 -4 l 142 37 l 151 112 q 157 187 155 149 q 159 262 159 225 q 160 347 160 300 l 160 395 l 167 664 q 156 849 167 791 q 144 921 144 907 q 197 961 144 961 l 211 975 q 250 957 229 964 q 443 934 374 950 q 547 872 512 918 q 582 755 582 827 l 582 747 q 447 558 561 645 m 349 576 q 364 578 354 578 l 383 576 q 447 626 400 576 q 493 733 493 676 q 489 773 493 754 q 477 810 485 792 q 457 845 469 828 q 431 873 445 861 q 407 887 417 884 l 340 906 q 297 916 308 916 q 248 884 259 916 q 237 774 237 852 l 244 628 q 248 567 244 583 q 268 551 252 551 l 277 553 l 293 550 q 315 562 309 550 l 330 561 l 345 562 l 349 576 m 350 39 q 370 37 357 37 q 469 73 410 37 q 562 169 528 108 q 596 297 596 231 q 528 437 596 377 q 343 504 460 497 q 323 489 338 500 q 283 509 306 509 q 240 439 240 509 l 241 385 q 237 341 241 368 q 233 304 233 314 q 236 268 233 293 q 239 229 239 243 q 236 179 239 212 q 233 131 233 146 q 237 103 233 121 l 240 86 l 237 69 q 279 37 237 37 q 310 31 292 37 q 336 25 328 25 l 350 39 z "},"C":{"ha":864,"x_min":61,"x_max":808,"o":"m 808 -41 q 785 -58 808 -58 l 714 -48 q 524 -24 572 -33 q 401 4 448 -10 q 279 56 335 24 q 184 125 225 87 q 117 210 146 162 q 75 307 90 256 q 61 416 61 358 q 102 588 61 485 q 157 718 143 692 q 227 800 171 743 q 378 903 283 857 q 412 928 412 920 q 461 936 430 935 q 518 946 492 936 q 600 956 543 956 q 647 951 626 956 q 701 942 667 947 q 752 935 734 938 q 783 926 770 932 q 796 913 796 920 q 782 861 796 903 q 745 819 768 819 q 718 828 732 819 q 635 874 688 861 q 564 888 582 888 q 521 885 549 888 l 481 882 q 467 880 473 882 q 444 875 451 879 q 422 863 432 868 q 403 857 412 859 q 386 854 394 854 l 379 854 l 370 844 q 335 829 350 844 l 321 829 q 143 449 143 647 q 214 236 143 334 q 405 88 284 138 q 653 39 526 39 q 727 47 676 39 q 778 66 778 56 q 808 -39 808 66 l 808 -41 z "},"D":{"ha":913,"x_min":140,"x_max":850,"o":"m 621 916 q 790 773 730 869 q 850 559 850 678 q 838 469 850 515 q 803 379 826 424 q 746 292 780 334 q 669 211 712 249 q 574 138 625 172 q 460 77 520 104 l 413 45 l 353 26 q 306 11 307 11 q 293 14 301 11 q 279 1 289 7 q 268 -5 270 -5 l 249 -5 q 226 -26 243 -18 q 201 -33 210 -33 q 181 -31 195 -33 q 160 -29 168 -29 l 155 -29 q 140 3 140 -29 q 144 26 140 7 q 168 283 168 147 l 165 490 l 167 694 q 162 806 167 773 q 158 899 158 840 q 160 925 158 921 q 171 939 171 929 l 195 939 l 199 950 q 278 929 236 929 q 302 931 292 929 l 321 935 q 340 932 325 935 q 361 929 355 929 l 377 932 q 422 935 399 935 q 542 927 493 935 q 590 916 590 920 q 602 913 598 913 q 621 916 606 913 m 258 132 q 256 109 256 116 q 282 58 256 58 q 381 77 326 58 q 492 133 436 96 q 544 162 522 153 q 625 230 566 172 q 692 310 664 268 q 739 400 721 353 q 766 500 766 470 q 743 676 766 603 q 663 800 720 749 q 534 868 606 850 q 317 885 463 885 l 311 871 l 306 871 q 288 875 296 871 q 243 488 243 831 l 249 151 l 248 146 q 258 132 248 136 z "},"E":{"ha":754,"x_min":139,"x_max":713,"o":"m 277 928 q 307 925 283 928 q 350 922 330 922 l 505 925 l 566 922 q 616 927 580 922 q 676 932 653 932 q 713 913 713 932 q 708 885 713 911 q 692 852 703 859 q 661 846 682 846 q 621 848 656 846 q 399 879 570 879 q 326 877 369 879 q 277 872 283 876 q 262 864 270 869 q 245 748 254 832 q 236 653 236 664 q 245 595 236 622 q 257 550 255 568 q 289 532 258 532 l 300 532 q 309 530 307 532 q 318 524 309 530 q 340 518 328 518 q 380 521 353 518 q 421 524 408 524 q 433 522 425 524 q 447 521 442 521 q 478 530 467 521 l 515 527 q 591 538 526 533 q 593 525 593 534 q 591 507 593 519 q 590 489 590 495 q 591 475 590 479 q 539 444 582 444 q 500 454 528 444 q 444 464 473 464 l 404 463 q 352 466 389 463 q 292 469 315 469 l 272 469 q 247 449 254 458 q 233 398 240 441 q 225 309 225 356 q 231 205 225 275 q 238 99 236 136 q 243 61 241 62 q 252 56 245 59 q 262 50 259 54 l 302 49 q 397 54 336 49 l 456 58 l 475 56 q 498 56 484 56 q 669 79 556 56 q 697 90 690 90 q 705 77 705 90 l 699 50 l 700 26 q 688 -4 700 2 q 642 -9 677 -9 q 559 -5 616 -9 q 441 5 500 5 l 272 3 l 249 3 q 235 9 237 9 q 227 5 230 9 q 218 3 224 1 q 208 5 212 5 q 191 -3 199 5 q 163 -16 173 -5 l 158 -16 q 139 -5 146 -16 q 146 11 146 3 l 144 22 q 149 37 144 31 q 146 43 146 39 q 148 62 146 46 q 161 297 161 176 l 160 433 l 163 529 l 163 562 l 164 742 q 160 856 164 808 q 149 905 149 896 q 155 917 149 912 q 214 935 162 921 l 216 943 l 228 937 l 237 940 q 277 928 256 940 z "},"F":{"ha":729,"x_min":139,"x_max":729,"o":"m 286 920 l 511 925 l 572 922 q 624 930 587 922 q 682 937 661 937 q 729 895 729 937 q 725 878 729 886 q 714 865 722 871 q 701 858 707 859 l 680 857 q 654 856 665 856 q 639 858 652 856 q 407 879 533 879 q 335 877 379 879 q 284 872 290 876 q 269 864 277 869 q 249 728 249 777 l 249 720 q 240 633 240 667 q 244 593 240 609 l 252 563 q 264 540 255 549 q 286 530 273 530 l 302 532 q 316 526 313 532 q 355 519 319 519 q 400 522 378 519 q 432 523 421 524 q 449 521 444 521 q 481 530 469 521 l 516 527 q 593 538 528 533 q 604 507 604 525 q 590 472 604 489 q 498 456 576 456 q 391 463 466 456 q 273 469 317 469 q 249 444 249 455 q 250 440 249 441 q 232 296 232 376 l 237 180 q 231 151 237 155 q 246 97 239 134 q 253 40 253 60 q 242 8 253 19 q 224 -3 231 -3 q 211 5 218 -3 q 187 -9 205 -3 q 167 -4 184 -8 q 139 31 139 2 q 142 51 139 37 l 146 62 l 144 85 q 149 100 144 89 q 155 121 154 112 q 161 279 161 190 l 160 385 l 165 694 q 160 818 165 783 q 154 865 154 852 q 164 922 154 893 q 221 935 192 930 l 225 943 l 235 937 l 244 940 q 286 920 258 940 z "},"G":{"ha":970,"x_min":62,"x_max":900,"o":"m 878 909 q 900 847 900 896 q 867 793 900 793 q 848 798 859 793 q 816 827 838 810 q 775 850 794 844 l 732 867 l 720 867 q 652 876 698 867 q 585 885 607 885 q 491 874 551 885 q 379 846 430 864 q 343 819 366 833 l 321 806 q 300 787 311 800 l 285 787 q 182 649 232 758 q 132 452 132 541 q 197 254 132 343 q 379 114 262 164 q 400 102 386 114 q 599 49 433 74 l 614 62 q 639 56 628 56 q 653 62 644 56 q 672 53 667 62 q 710 61 695 61 q 736 58 715 61 q 746 72 738 64 q 754 150 754 116 l 754 160 l 755 254 q 746 363 755 299 q 734 393 734 382 q 753 421 734 421 l 817 419 q 835 425 829 419 q 851 411 851 425 q 849 400 851 410 q 829 205 829 317 q 847 58 829 161 q 833 43 835 45 q 821 5 829 30 q 794 -21 814 -20 q 765 -5 785 -13 q 753 -7 760 -7 q 724 -9 748 -7 q 697 -13 701 -11 q 682 -26 694 -15 l 677 -26 q 650 -28 672 -26 q 608 -31 627 -31 q 557 -26 575 -31 l 528 -20 q 520 -23 526 -20 q 509 -26 514 -26 l 505 -26 q 486 -11 495 -17 q 293 55 402 -11 q 123 204 184 121 q 62 425 62 288 q 96 604 62 510 q 147 699 130 699 l 149 699 l 149 701 q 151 712 149 706 q 153 721 153 718 l 153 724 q 178 737 165 725 l 178 753 q 400 903 275 862 q 619 945 525 945 q 696 937 626 945 q 819 919 766 929 q 876 909 872 909 l 878 909 z "},"H":{"ha":1069,"x_min":139,"x_max":930,"o":"m 815 865 q 814 879 814 869 q 853 920 814 901 q 897 939 892 939 l 903 939 q 922 927 914 939 q 930 900 930 916 q 926 879 930 890 q 911 839 911 873 l 914 713 q 906 279 914 442 q 897 111 897 116 q 920 60 897 80 q 914 26 916 40 q 908 11 912 12 q 861 -6 887 7 q 827 -20 835 -20 q 808 -8 821 -20 l 800 40 q 829 189 829 97 l 829 212 l 831 428 q 822 446 831 433 q 802 460 813 458 q 775 463 791 463 l 741 458 l 668 458 q 523 456 551 458 q 480 449 494 454 q 465 444 467 444 q 449 454 454 444 q 400 444 422 444 l 346 447 q 240 411 240 447 l 240 395 l 239 340 l 240 281 l 237 176 q 247 89 237 137 q 257 25 257 41 l 256 -1 l 232 -17 q 179 -5 208 -5 q 157 -7 163 -5 q 144 1 149 1 q 142 0 143 1 q 139 21 139 11 q 140 39 139 23 q 160 341 157 170 l 167 679 l 171 794 q 150 937 171 861 l 140 947 q 149 956 149 947 l 149 965 q 157 978 149 977 q 203 1004 179 1004 q 268 985 225 1004 q 237 591 237 626 q 239 571 237 587 q 240 553 240 554 l 239 546 q 258 513 239 528 q 297 498 277 498 l 306 498 q 337 495 316 498 q 367 492 357 492 q 419 498 372 492 q 488 504 466 504 q 593 501 548 504 q 640 498 639 498 q 653 509 649 498 q 705 501 681 501 l 771 501 q 785 509 778 509 q 820 528 810 512 q 831 553 831 544 l 831 591 l 832 725 l 832 757 q 815 865 832 861 z "},"I":{"ha":416,"x_min":139,"x_max":278,"o":"m 204 -1 q 139 26 139 5 q 144 41 139 33 q 152 61 149 50 q 161 136 155 72 q 171 332 166 201 q 175 612 175 464 l 165 835 l 165 836 q 160 852 165 842 q 154 867 154 862 q 165 893 154 869 q 206 926 177 918 q 239 935 235 935 q 248 927 245 935 q 254 917 250 919 q 268 878 268 905 q 266 862 268 876 q 249 611 249 749 l 250 559 l 244 279 q 261 96 244 153 q 278 16 278 39 q 259 -3 278 5 q 227 -11 239 -11 l 222 -11 q 204 -1 210 -11 z "},"J":{"ha":538,"x_min":0,"x_max":412,"o":"m 406 933 q 407 918 407 928 q 403 886 407 911 q 399 840 399 861 q 406 743 399 819 q 412 603 412 666 q 375 334 412 464 q 283 136 338 204 q 103 -32 228 68 q 79 -54 79 -45 l 79 -56 q 47 -71 58 -71 q 35 -64 39 -71 q 25 -17 31 -58 q 0 25 0 -7 q 17 45 0 37 q 100 66 35 54 q 155 94 154 94 q 217 151 182 106 q 274 247 253 196 q 308 360 295 298 q 325 495 320 422 q 330 661 330 569 q 314 854 330 750 q 301 904 301 896 q 302 911 301 910 q 321 935 302 929 l 365 947 q 396 956 391 956 q 398 945 398 954 q 406 933 399 937 z "},"K":{"ha":913,"x_min":139,"x_max":913,"o":"m 168 873 q 164 880 164 878 q 181 906 164 891 q 227 931 199 922 l 252 940 l 256 940 q 273 928 266 940 q 281 899 281 917 q 278 880 281 895 q 262 843 262 866 l 262 815 q 255 347 262 522 q 248 168 248 173 q 251 116 248 153 q 254 56 254 79 q 244 9 254 27 q 221 -9 235 -9 q 210 -7 218 -9 q 196 -4 201 -4 q 186 -6 193 -4 q 171 -8 179 -8 q 139 28 139 -8 q 142 49 139 32 q 172 152 161 69 q 183 528 183 234 q 168 873 183 741 m 889 118 q 913 86 913 109 q 892 21 913 47 q 840 -4 871 -4 q 784 33 809 -4 q 660 141 759 70 q 479 275 560 212 q 332 364 398 338 q 281 416 281 393 q 292 444 281 429 q 347 498 328 471 q 379 507 363 505 q 410 532 391 517 q 431 550 429 547 q 503 649 445 573 q 599 779 561 726 l 693 914 q 739 921 721 921 q 761 920 755 921 q 766 895 766 908 l 766 889 q 757 860 766 876 q 659 772 715 832 q 613 705 660 760 l 556 635 l 511 572 l 481 545 q 463 527 469 534 q 454 518 456 520 q 436 485 448 503 q 424 458 424 467 q 444 410 424 431 q 508 358 465 389 q 583 304 552 327 q 626 273 614 281 q 660 244 638 264 q 693 215 682 224 q 727 195 717 205 q 747 180 737 186 q 764 165 757 175 q 780 159 770 163 q 793 154 790 156 l 793 153 q 831 128 793 141 q 876 115 869 115 q 889 118 881 115 z "},"L":{"ha":686,"x_min":139,"x_max":686,"o":"m 675 72 q 686 36 686 58 q 678 -4 686 9 q 660 -17 669 -17 q 628 -13 651 -17 q 604 0 604 -8 l 599 -9 l 595 -9 q 582 -1 589 -9 q 574 9 576 7 q 467 1 526 1 l 338 1 q 258 -1 310 1 q 236 -17 239 -17 l 235 -17 q 183 -5 216 -5 l 161 -7 q 151 -17 157 -9 q 139 11 139 -4 q 144 41 139 23 q 155 109 155 60 l 155 126 q 167 340 167 204 l 165 590 q 168 636 165 607 q 171 679 171 666 l 174 757 q 163 833 174 793 q 151 885 153 874 l 142 895 l 142 899 q 191 945 142 945 q 252 927 228 945 q 277 882 277 909 q 250 771 250 845 l 252 708 q 247 649 252 688 q 241 591 241 610 q 244 551 241 580 q 248 505 248 522 l 244 415 l 244 293 l 237 153 q 253 68 237 104 q 288 66 268 66 q 356 55 290 60 q 450 50 421 50 q 568 68 528 50 q 572 65 571 65 q 589 70 576 65 q 614 75 602 75 l 631 72 l 675 72 z "},"M":{"ha":1243,"x_min":83,"x_max":1160,"o":"m 1022 974 q 1034 950 1034 959 l 1034 924 q 1046 723 1034 857 q 1078 454 1059 589 q 1115 208 1097 319 q 1136 78 1134 96 q 1149 46 1139 60 q 1160 17 1160 24 q 1136 4 1160 4 l 1131 4 l 1116 -16 q 1078 -22 1101 -20 q 1051 -29 1056 -25 q 1046 -21 1049 -29 q 1042 3 1044 -14 q 1039 42 1040 18 l 1034 170 q 1029 270 1033 246 q 1006 433 1017 348 l 991 565 q 969 727 978 682 q 945 782 961 773 q 688 257 688 281 q 690 240 688 254 q 679 220 684 231 q 685 204 685 212 q 636 131 644 164 q 618 121 626 121 q 589 141 613 121 q 558 197 565 161 q 549 205 553 200 q 542 216 545 210 q 536 231 539 222 l 532 250 q 529 273 530 260 l 495 346 l 430 495 q 318 743 357 667 q 308 733 313 739 q 298 694 303 727 q 258 492 282 607 l 224 329 q 201 157 207 239 q 195 129 201 148 q 189 100 189 111 q 191 85 189 98 q 193 60 193 73 q 176 -5 193 9 q 150 -16 163 -6 q 131 -26 136 -26 l 129 -26 q 104 -13 118 -26 q 83 4 90 0 q 196 454 134 60 q 233 626 205 511 q 261 793 261 740 l 260 852 q 274 927 260 901 q 313 954 288 954 q 357 889 347 954 q 375 866 374 881 q 382 817 376 852 q 429 699 389 783 l 469 621 l 469 596 q 530 455 481 559 q 598 322 579 350 q 631 294 617 294 q 729 441 672 294 q 782 554 740 469 q 845 697 824 638 q 892 797 865 755 q 922 871 903 814 q 961 952 940 928 q 1007 977 982 977 q 1022 974 1011 977 z "},"N":{"ha":1136,"x_min":139,"x_max":1011,"o":"m 1011 922 l 999 879 q 976 759 983 825 q 968 605 970 693 q 962 452 967 516 q 957 347 957 388 l 958 273 l 957 222 q 967 133 957 184 q 977 65 977 82 q 964 0 977 26 q 935 -25 951 -25 q 850 50 907 -25 l 850 64 q 600 343 699 218 q 383 605 500 467 q 264 743 267 743 q 250 731 257 743 q 234 637 243 720 q 225 440 225 555 q 237 153 225 313 l 248 134 l 248 118 q 241 90 248 96 l 241 89 q 249 64 241 84 q 256 26 256 45 l 256 18 q 199 -7 239 -7 q 187 4 190 -7 q 147 -8 175 3 q 139 33 139 5 q 149 123 139 60 q 157 130 155 123 q 161 164 159 136 q 165 212 163 192 q 155 232 155 224 l 157 236 q 170 265 170 244 l 172 346 l 171 454 q 176 554 171 526 q 182 593 182 583 q 180 627 182 604 q 178 653 178 650 q 182 730 178 701 q 186 800 186 759 l 180 823 q 183 856 183 831 q 182 905 183 887 q 194 919 186 912 q 205 930 201 926 q 210 933 208 933 q 228 939 212 934 q 275 886 241 937 q 396 736 333 797 q 395 733 395 736 q 468 645 395 726 q 640 444 542 565 l 701 368 q 765 292 733 329 q 840 209 797 255 q 890 161 883 163 q 901 158 898 158 q 907 167 907 158 l 905 214 l 908 301 l 907 419 q 909 603 907 488 l 913 703 q 904 751 913 741 q 903 761 903 755 q 905 778 903 768 q 907 793 907 789 q 905 802 907 799 q 907 828 907 810 q 903 854 907 843 q 899 882 899 865 q 915 916 899 903 q 958 929 931 929 l 972 928 l 993 928 q 1011 922 1002 928 z "},"O":{"ha":1078,"x_min":64,"x_max":1015,"o":"m 827 899 q 945 794 874 902 q 1015 557 1015 686 q 1003 432 1015 491 q 966 324 991 373 q 892 184 914 216 q 784 71 844 113 q 660 8 723 28 q 517 -12 596 -12 q 314 21 328 -12 q 273 36 300 26 q 244 47 246 45 l 227 69 q 201 75 203 75 q 97 197 130 120 q 64 416 64 275 q 138 671 64 526 q 146 695 142 680 q 162 719 150 709 q 176 736 175 728 q 244 814 234 800 q 294 844 255 829 q 345 882 332 860 q 356 887 349 888 q 368 885 364 885 l 374 886 q 384 898 378 892 q 391 902 389 903 q 443 918 393 901 q 500 933 492 935 q 559 939 508 932 l 603 947 q 640 942 618 947 q 669 936 662 937 q 827 899 793 923 m 847 224 q 929 497 929 373 q 909 649 929 582 q 852 763 890 716 q 765 839 815 810 q 637 877 715 867 q 545 886 559 886 q 532 879 543 886 q 514 861 522 872 q 492 857 505 857 l 469 859 q 432 838 444 859 q 428 836 431 836 q 422 843 425 836 l 412 838 l 412 828 q 408 833 410 828 q 401 838 405 838 l 399 838 q 323 800 334 815 q 298 793 307 794 q 274 763 290 785 q 247 729 257 741 q 226 708 236 716 q 216 677 216 699 q 160 570 181 646 q 139 412 139 494 q 161 277 139 338 q 216 201 184 217 l 216 187 q 261 142 237 163 q 330 105 285 121 q 407 80 376 89 q 478 64 439 71 q 555 58 517 58 q 592 60 578 58 l 640 71 q 675 78 662 76 q 711 98 680 79 l 760 126 q 770 134 766 130 q 774 146 774 139 l 774 151 q 800 171 777 158 q 836 191 823 184 q 850 210 850 199 q 847 224 850 218 z "},"P":{"ha":766,"x_min":139,"x_max":711,"o":"m 158 297 q 174 334 158 299 q 178 429 178 371 l 176 510 l 179 656 q 173 814 179 766 q 167 864 167 862 q 169 879 167 870 q 171 892 171 888 l 170 905 q 200 938 170 929 q 328 946 231 946 q 486 933 418 946 q 602 892 553 920 q 672 832 651 864 q 702 773 693 800 q 711 679 711 745 q 697 599 711 633 q 648 508 684 565 q 565 412 612 452 q 466 348 519 372 q 344 314 412 324 q 275 292 293 307 q 257 224 257 277 q 262 174 257 201 q 267 115 267 146 l 265 85 q 268 54 265 71 l 271 37 l 271 28 q 267 14 271 17 q 244 7 262 11 q 208 -3 225 4 q 187 -9 190 -9 q 172 -5 184 -9 q 150 2 161 0 q 139 9 139 5 q 152 27 139 14 q 164 57 164 41 l 164 61 q 174 115 168 88 q 180 186 180 141 q 178 242 180 212 q 173 276 176 271 q 164 287 171 280 q 158 296 158 294 l 158 297 m 262 354 q 366 377 317 363 q 454 410 414 392 q 511 446 493 429 q 552 489 530 464 q 587 530 575 514 q 606 576 593 547 q 622 631 619 606 q 625 692 625 657 q 589 801 625 767 q 506 866 553 836 q 364 897 459 897 l 317 897 q 270 882 283 897 q 257 828 257 867 l 262 722 l 261 606 l 261 452 q 262 354 261 391 z "},"Q":{"ha":1078,"x_min":64,"x_max":1050,"o":"m 1040 79 q 1050 52 1050 62 q 1030 0 1050 21 q 982 -21 1010 -21 q 940 -9 962 -21 q 833 3 888 3 l 825 3 q 713 -5 791 3 q 593 -12 636 -12 l 564 -8 l 515 -11 q 314 21 326 -11 q 273 36 300 26 q 244 47 246 45 l 227 69 q 118 158 173 76 q 64 416 64 239 q 138 671 64 526 q 146 695 142 680 q 162 719 150 709 q 176 736 175 728 q 244 814 234 800 q 294 844 255 829 q 345 882 332 860 q 356 887 349 888 q 368 885 364 885 l 374 886 q 384 898 378 892 q 391 902 389 903 q 443 918 393 901 q 500 933 492 935 q 559 939 508 932 l 603 947 q 640 942 618 947 q 669 936 662 937 q 827 899 793 923 q 945 794 874 902 q 1015 557 1015 686 q 973 340 1015 437 q 901 199 930 243 q 840 119 871 154 q 808 78 808 85 q 844 61 808 61 q 882 69 871 61 q 901 68 888 68 l 933 69 q 951 66 937 69 q 981 64 966 64 q 1040 79 1018 64 m 847 224 q 929 497 929 373 q 909 649 929 582 q 852 763 890 716 q 765 839 815 810 q 637 877 715 867 q 545 886 559 886 q 532 879 543 886 q 514 861 522 872 q 492 857 505 857 l 469 859 q 432 838 444 859 q 428 836 431 836 q 422 843 425 836 l 412 838 l 412 828 q 408 833 410 828 q 401 838 405 838 l 399 838 q 323 800 334 815 q 298 793 307 794 q 274 763 290 785 q 247 729 257 741 q 226 708 236 716 q 216 677 216 699 q 160 570 181 646 q 139 412 139 494 q 161 277 139 338 q 216 201 184 217 l 216 187 q 261 142 237 163 q 330 105 285 121 q 407 80 376 89 q 478 64 439 71 q 555 58 517 58 q 592 60 578 58 l 640 71 q 675 78 662 76 q 711 98 680 79 l 760 126 q 770 134 766 130 q 774 146 774 139 l 774 151 q 800 171 777 158 q 836 191 823 184 q 850 210 850 199 q 847 224 850 218 z "},"R":{"ha":848,"x_min":140,"x_max":847,"o":"m 840 100 q 847 78 847 92 q 825 30 847 54 q 786 7 803 7 q 750 33 774 7 l 711 71 q 564 174 669 113 q 285 357 459 236 l 277 393 l 277 399 q 288 412 277 409 q 319 422 298 415 q 500 522 448 465 q 551 676 551 579 q 484 842 551 792 q 329 892 416 892 l 300 892 q 261 880 279 892 q 244 818 244 867 q 246 779 244 794 q 248 736 248 764 l 240 567 q 241 504 240 527 l 243 454 l 240 424 q 237 347 237 388 q 249 8 237 310 q 238 -7 245 3 q 228 -17 232 -17 q 218 -12 224 -17 q 172 -25 175 -25 q 151 -11 161 -25 q 140 32 140 3 l 140 39 q 172 240 172 89 l 168 489 l 172 668 l 171 775 q 165 838 171 799 q 160 893 160 877 q 165 916 160 908 q 182 925 170 923 q 227 931 194 927 q 296 935 259 935 q 420 922 364 935 q 529 880 477 909 q 601 818 581 851 q 631 752 621 785 q 642 688 642 719 q 410 418 642 510 q 393 396 393 406 q 421 358 393 380 q 524 289 448 337 q 570 258 543 279 q 607 231 597 237 q 658 202 635 220 q 694 182 680 185 q 711 176 708 178 q 721 163 711 170 q 782 124 746 150 q 832 98 818 98 q 840 100 838 98 z "},"S":{"ha":576,"x_min":53,"x_max":519,"o":"m 464 831 q 436 854 456 836 q 389 873 416 873 q 218 825 280 873 q 155 696 155 776 q 340 513 155 609 q 369 510 353 513 q 422 471 385 507 q 479 406 460 435 q 509 348 499 377 q 519 289 519 318 q 459 90 519 160 q 244 -37 399 19 q 229 -35 236 -35 q 195 -46 218 -35 q 100 -58 172 -58 q 63 -37 74 -58 q 53 26 53 -16 q 62 50 53 38 l 68 50 q 104 29 85 50 q 155 20 146 20 q 219 27 163 20 q 327 59 276 34 q 395 107 377 84 q 431 162 414 130 q 449 236 449 195 q 411 354 449 298 q 329 419 374 411 l 329 421 q 298 450 329 433 q 131 558 179 505 q 83 684 83 611 q 91 741 83 713 q 114 794 99 768 q 151 841 129 819 q 210 884 173 862 q 262 905 248 905 l 283 905 q 298 921 286 907 q 338 932 316 922 q 367 943 361 941 q 376 932 374 939 q 415 936 395 936 l 429 936 q 477 928 460 936 q 494 893 494 920 q 485 852 494 871 q 464 831 475 833 z "},"T":{"ha":746,"x_min":43,"x_max":815,"o":"m 815 913 q 800 859 811 879 q 785 856 786 856 q 728 859 761 856 q 685 861 696 861 q 672 860 676 861 q 581 873 662 873 l 467 868 l 463 868 q 450 864 456 868 q 428 707 435 807 q 421 547 421 606 l 425 471 l 416 424 q 411 378 412 401 q 410 326 410 355 l 418 180 q 411 151 418 155 q 423 113 417 151 q 435 55 429 75 q 440 32 440 36 q 404 9 440 22 q 406 3 406 7 q 401 -3 406 -3 q 393 5 397 -3 q 370 -9 380 -5 q 351 3 366 3 q 332 1 345 3 q 313 0 319 0 l 307 0 q 317 50 321 7 q 315 85 315 73 q 317 91 315 85 q 340 343 340 151 l 345 653 q 332 839 345 802 q 334 848 334 843 q 331 860 334 856 q 316 866 328 865 l 275 869 q 236 872 248 872 q 172 854 182 872 q 150 861 161 861 q 127 856 140 861 q 90 850 114 850 q 45 865 63 850 q 43 876 43 869 q 49 903 43 885 q 56 932 56 921 l 56 935 q 79 940 65 940 q 133 933 88 940 q 232 926 178 926 l 334 926 q 401 935 370 926 l 406 943 q 415 937 414 941 l 427 940 q 445 930 434 940 q 463 916 456 920 q 493 919 469 916 q 538 922 517 922 l 648 925 l 668 922 l 673 922 q 714 926 685 922 q 762 929 744 929 q 815 913 807 929 z "},"U":{"ha":1015,"x_min":111,"x_max":1002,"o":"m 945 929 l 950 929 q 972 916 962 929 q 986 903 981 903 l 990 903 q 1002 890 1002 903 q 990 860 1002 882 q 983 838 986 859 q 943 671 980 812 q 888 481 912 555 q 831 334 859 393 l 790 261 q 786 241 787 252 q 730 157 783 223 q 636 61 687 103 q 524 -16 545 -16 q 502 -11 513 -16 q 486 -5 490 -6 q 454 -20 463 -20 q 447 -18 450 -20 q 399 -22 414 -22 q 286 21 345 -22 q 205 156 227 64 q 172 399 182 248 q 156 617 162 549 q 141 748 150 686 q 130 813 133 810 q 119 817 127 817 q 111 867 111 861 q 116 886 111 876 q 125 900 121 895 q 146 909 129 905 q 176 918 163 913 q 194 927 189 923 q 200 932 199 932 q 211 923 202 932 q 231 905 219 913 q 243 873 243 897 q 239 851 243 864 q 235 810 235 838 l 236 764 l 235 715 q 244 445 235 549 q 262 295 254 340 q 288 188 271 251 q 337 95 304 125 q 376 62 369 66 q 407 58 382 58 q 461 36 410 36 q 557 62 506 36 q 636 124 609 89 q 686 201 663 159 q 730 277 708 243 q 782 376 751 311 q 838 545 812 441 l 843 562 q 852 611 850 580 q 867 652 854 643 q 899 819 899 781 q 895 857 899 842 q 892 889 892 871 q 912 920 892 918 q 945 929 933 922 z "},"V":{"ha":913,"x_min":69,"x_max":954,"o":"m 954 922 q 627 294 795 672 l 525 68 l 525 58 q 508 8 525 34 q 471 -18 492 -17 q 412 -31 458 -31 q 388 -14 393 -31 l 357 94 q 234 498 280 357 q 151 715 188 640 q 109 799 113 791 l 109 814 q 69 872 69 869 q 85 886 69 878 q 110 899 102 893 l 136 916 q 161 925 152 918 l 180 916 q 213 786 189 862 l 260 647 q 298 534 284 580 q 336 409 320 469 q 376 288 358 330 l 406 215 q 433 162 419 182 q 471 118 449 136 q 506 149 490 129 q 539 208 522 169 l 736 647 q 808 812 787 758 q 829 885 829 867 q 828 892 829 890 q 868 936 829 936 l 875 936 q 900 945 883 936 q 926 954 917 954 q 954 922 954 954 z "},"W":{"ha":1385,"x_min":100,"x_max":1375,"o":"m 1375 871 l 1352 832 l 1350 832 q 1332 806 1343 832 q 1304 727 1320 779 q 1268 596 1289 675 l 1212 355 q 1175 180 1175 193 l 1179 132 q 1156 53 1179 112 q 1111 -7 1133 -7 q 1096 0 1103 -7 q 1097 18 1097 8 q 1063 78 1097 26 q 994 197 1028 130 q 915 336 959 264 q 824 500 871 409 q 721 730 777 591 q 705 743 715 743 q 690 739 698 743 q 676 724 683 734 q 662 703 668 713 q 633 648 652 688 l 430 208 q 363 83 389 116 q 339 7 357 34 q 294 -20 320 -20 q 262 -2 267 -20 q 254 94 256 16 q 115 806 206 465 q 100 869 100 863 q 123 911 100 896 q 163 926 146 926 q 201 876 201 926 l 201 850 q 255 495 201 728 q 308 230 309 262 q 343 172 308 197 q 372 205 372 193 l 372 207 q 422 321 372 218 l 551 584 q 650 782 628 743 q 672 822 672 820 l 670 840 q 681 867 681 861 q 689 878 689 871 l 689 892 q 730 922 725 922 q 745 916 735 922 q 742 896 742 902 q 745 886 742 895 q 750 882 747 885 l 757 874 q 770 848 764 867 q 817 713 790 781 q 875 579 843 646 q 944 448 907 513 q 1023 321 981 383 q 1111 201 1065 260 q 1215 608 1145 203 q 1229 709 1216 642 q 1249 831 1242 776 q 1264 896 1257 886 q 1318 903 1294 903 q 1372 896 1342 903 q 1369 885 1369 892 q 1375 871 1369 876 z "},"X":{"ha":865,"x_min":31,"x_max":839,"o":"m 751 928 q 688 850 717 887 q 642 785 662 815 q 611 735 623 758 l 593 699 q 550 641 567 665 q 518 592 530 613 q 498 553 505 570 q 492 524 492 536 q 566 399 492 500 l 652 279 q 683 238 677 243 q 703 219 694 229 q 718 199 711 209 q 734 175 725 190 q 803 100 768 125 q 839 52 839 75 q 823 29 839 41 q 799 8 806 17 l 799 -5 l 796 -7 q 792 -4 795 -7 q 786 -1 789 -1 l 785 -1 q 760 -11 773 -11 q 721 4 745 -11 q 722 8 722 5 q 618 186 722 38 q 554 268 589 216 q 508 330 519 319 q 481 368 496 340 q 452 413 466 396 q 422 431 439 431 q 400 422 412 431 q 376 398 389 414 l 315 316 q 255 234 279 269 q 210 157 231 200 l 178 92 q 164 53 164 64 l 164 49 q 135 0 142 0 l 131 0 q 106 -5 119 0 q 92 -9 94 -9 q 31 26 68 -9 q 46 45 37 35 q 56 57 56 54 q 49 61 56 59 q 134 151 105 79 q 172 203 146 174 q 208 247 197 233 l 243 294 q 308 386 269 328 l 383 500 l 278 641 q 154 791 201 745 q 69 846 108 836 q 61 860 61 854 q 83 901 61 864 q 134 943 106 937 l 139 953 q 178 909 168 944 q 230 829 178 888 q 355 673 283 770 q 447 576 427 576 q 460 586 453 576 l 510 659 q 579 781 553 721 q 608 890 605 842 q 632 915 620 898 q 651 936 644 931 q 678 946 659 941 q 721 950 697 950 q 737 940 728 950 q 751 928 746 929 z "},"Y":{"ha":791,"x_min":28,"x_max":778,"o":"m 777 918 q 778 901 778 911 q 757 873 778 879 q 669 742 724 837 q 541 541 613 646 q 456 409 469 435 q 443 368 443 384 l 443 350 l 441 224 q 449 98 441 148 q 457 43 457 47 q 403 1 457 1 q 357 7 381 1 q 354 16 354 15 q 357 30 354 19 q 359 47 359 40 q 361 66 359 56 q 367 93 363 77 q 371 126 371 109 l 372 168 l 372 215 q 366 331 372 288 q 339 410 359 374 q 261 529 319 445 q 156 683 203 612 q 91 780 109 754 q 61 811 72 806 q 33 835 54 826 q 28 857 28 848 q 47 889 28 882 q 84 920 65 915 q 111 928 104 925 q 138 866 123 882 q 182 799 154 850 q 233 732 210 749 q 243 713 237 713 l 248 713 l 248 710 q 273 663 248 694 q 321 588 298 632 q 379 505 345 545 q 424 465 412 465 q 425 467 425 465 q 509 568 432 467 q 646 859 585 669 q 674 914 659 899 q 732 933 690 928 l 736 935 q 753 927 741 935 q 777 918 766 920 z "},"Z":{"ha":871,"x_min":41,"x_max":828,"o":"m 817 74 q 828 45 828 62 q 815 -20 828 35 q 755 -25 789 -25 q 728 -24 736 -25 l 710 -21 l 704 -21 q 685 -12 697 -21 q 440 3 600 3 q 196 -3 374 3 q 97 -28 115 -28 q 41 -18 73 -28 q 64 48 43 23 q 85 79 85 74 q 83 85 85 83 q 109 100 104 96 q 113 119 109 105 q 169 165 158 157 q 180 189 180 174 l 180 193 l 182 192 q 191 197 185 192 q 205 211 197 201 q 221 234 212 220 q 239 266 230 248 q 257 305 249 283 q 275 326 260 311 q 294 345 290 340 q 541 709 393 507 q 574 757 570 747 q 579 777 578 767 q 602 811 586 790 q 618 844 618 833 q 616 854 618 850 q 453 846 507 853 q 397 839 399 839 q 372 842 387 839 q 351 846 356 846 q 335 840 344 846 q 256 850 300 850 l 227 848 q 214 843 223 843 q 191 850 202 843 q 184 868 184 864 q 204 909 184 896 q 229 928 224 923 q 397 921 369 921 l 488 928 q 545 933 535 932 l 554 924 l 570 924 q 701 957 639 924 l 710 949 q 746 966 724 970 q 783 962 768 962 l 786 962 q 807 942 807 962 q 753 874 807 927 q 661 768 707 828 q 532 587 615 708 l 382 369 q 275 208 316 273 q 213 109 234 144 q 192 71 192 73 q 245 60 192 60 l 355 65 l 407 61 q 578 69 448 61 q 772 77 709 77 q 817 74 801 77 z "},"[":{"ha":583,"x_min":215,"x_max":416,"o":"m 407 997 q 416 974 416 982 q 411 961 416 968 q 397 958 400 958 q 376 962 390 958 q 355 965 363 965 q 334 960 350 965 l 334 950 l 323 945 q 309 258 309 474 l 307 107 q 329 -29 307 -10 q 322 -44 328 -37 q 315 -53 315 -51 q 346 -66 315 -66 l 378 -65 l 387 -65 q 401 -81 401 -71 q 396 -94 401 -87 q 376 -100 382 -100 q 352 -98 366 -100 q 332 -96 338 -96 q 309 -98 325 -96 q 304 -114 304 -106 q 301 -115 303 -114 q 289 -102 296 -115 q 249 -117 266 -117 l 243 -118 q 215 -90 226 -118 q 243 514 243 111 l 239 977 q 277 1007 258 1007 q 300 1004 278 1007 q 325 999 311 999 q 352 1000 334 999 q 378 1002 369 1002 q 407 997 398 1002 z "},"\\":{"ha":464,"x_min":8,"x_max":443,"o":"m 443 -37 q 420 -64 443 -58 q 389 -71 397 -71 q 352 -49 366 -71 q 329 25 338 -28 q 313 33 323 33 q 315 47 315 42 q 301 134 315 81 q 215 370 287 187 q 121 620 142 553 q 92 705 99 688 q 85 730 85 722 l 85 733 q 59 785 80 746 q 39 835 39 823 l 40 863 q 36 893 40 883 q 8 966 8 935 q 11 978 8 972 q 60 987 52 987 q 64 987 63 987 q 68 984 66 987 q 75 978 71 981 q 88 969 80 975 q 108 935 91 968 l 122 906 q 130 889 130 892 q 132 867 132 881 l 131 836 q 136 820 131 834 q 145 788 140 806 q 153 750 151 770 q 165 708 156 729 q 182 679 175 686 q 175 647 180 663 q 197 587 195 600 q 214 558 199 573 l 210 542 q 272 408 213 542 q 269 389 269 392 q 288 343 269 387 q 313 290 307 298 q 318 273 318 281 q 324 244 317 264 q 343 211 330 224 q 368 139 353 191 q 393 61 382 88 q 427 -2 420 28 q 443 -37 434 -33 z "},"]":{"ha":583,"x_min":90,"x_max":367,"o":"m 367 1002 q 347 252 347 344 q 353 19 347 96 l 358 -57 q 349 -86 358 -75 q 307 -121 340 -98 q 292 -106 307 -106 q 272 -101 290 -106 q 235 -97 253 -97 q 178 -102 216 -97 q 121 -107 140 -107 q 90 -100 90 -107 q 97 -89 90 -97 q 130 -78 104 -81 q 167 -74 157 -74 l 239 -77 q 257 -70 247 -77 q 265 -7 268 -62 q 270 280 262 47 q 278 579 278 513 l 277 714 q 281 836 277 773 q 285 911 285 899 q 243 962 285 962 q 204 957 230 962 q 165 951 178 951 q 123 966 123 951 q 199 1002 123 1002 q 258 996 229 1002 l 264 1006 q 277 1000 269 1000 q 292 1009 286 1000 q 312 1024 298 1017 q 339 1031 326 1031 q 351 1029 347 1031 l 367 1002 z "},"^":{"ha":1389,"x_min":286,"x_max":1101,"o":"m 1101 611 l 994 611 l 694 908 l 395 611 l 286 611 l 639 989 l 749 989 l 1101 611 z "},"_":{"ha":694,"x_min":0,"x_max":694,"o":"m 694 -254 l 0 -254 l 0 -184 l 694 -184 l 694 -254 z "},"`":{"ha":694,"x_min":127,"x_max":513,"o":"m 432 843 q 513 771 513 795 q 503 762 513 765 q 405 798 485 776 q 262 838 325 819 q 241 829 254 835 q 224 823 228 823 l 222 823 l 224 828 q 210 838 224 833 q 201 832 206 832 q 192 835 199 832 q 182 838 186 838 l 178 838 q 131 857 180 844 l 127 879 q 146 919 127 901 q 179 937 165 937 q 204 926 186 937 q 301 886 236 926 q 418 843 390 843 l 432 843 z "},"a":{"ha":606,"x_min":36,"x_max":509,"o":"m 509 367 q 499 352 509 361 q 487 335 490 342 q 481 295 484 328 q 479 200 479 263 l 482 109 q 476 96 482 101 q 475 71 475 88 q 483 7 475 45 l 490 -29 l 489 -62 l 490 -92 q 418 -140 441 -140 q 405 -136 414 -140 q 387 -131 395 -131 l 383 -131 q 378 -97 378 -112 q 393 -33 378 -64 q 405 -18 401 -24 q 408 22 408 -13 q 400 61 408 61 q 392 58 399 61 q 376 56 385 56 l 371 56 q 361 41 363 50 q 272 11 353 42 q 196 -3 233 -3 q 124 8 156 -3 q 71 39 92 18 q 42 70 49 60 q 36 114 36 80 l 37 131 l 37 136 q 143 279 37 204 q 340 369 248 353 q 378 377 364 373 q 400 392 391 382 q 410 439 410 402 q 282 603 410 559 q 271 608 278 604 q 258 612 264 612 q 149 607 193 612 q 94 579 124 579 q 72 595 72 579 q 82 624 72 595 q 129 652 92 652 q 285 675 172 675 q 426 604 376 675 q 476 403 476 534 l 476 393 q 495 380 481 385 q 509 368 509 376 l 509 367 m 375 126 q 418 229 418 184 q 404 290 418 257 q 349 322 390 322 q 218 282 269 322 l 201 282 q 97 160 97 224 q 140 84 97 115 q 240 53 183 53 q 297 66 255 53 q 375 114 339 79 l 375 126 z "},"b":{"ha":737,"x_min":97,"x_max":689,"o":"m 240 618 q 276 633 245 627 q 326 639 307 639 l 431 631 q 527 609 483 627 q 617 556 571 591 q 669 480 650 531 q 689 379 689 429 q 533 121 689 222 q 522 109 528 119 q 515 100 518 102 q 490 85 500 90 q 461 73 479 79 q 420 61 443 66 q 369 50 397 56 q 355 43 364 49 q 343 37 346 37 q 339 39 340 37 q 257 8 331 39 l 249 17 q 216 -5 227 12 q 202 -25 216 -16 q 167 -35 187 -35 q 146 -28 153 -35 q 123 -21 140 -21 q 107 -24 121 -21 l 107 -21 q 102 -1 107 -12 q 97 14 97 10 q 117 36 97 20 q 136 60 136 52 l 136 61 q 154 444 154 254 q 134 957 154 803 q 119 983 119 977 l 121 999 q 119 1024 121 1004 q 117 1060 117 1044 q 134 1086 117 1084 q 162 1093 151 1089 q 175 1096 174 1096 q 187 1093 179 1096 q 201 1089 195 1090 q 236 1068 206 1089 q 243 1028 243 1038 q 241 1019 243 1021 q 237 1007 241 1017 q 210 774 210 931 q 215 650 210 683 q 236 618 221 618 l 240 618 m 228 555 q 215 184 215 262 q 235 96 215 119 q 302 74 254 74 q 413 94 348 74 q 532 164 479 114 q 603 261 585 215 q 621 355 621 308 q 547 499 621 438 q 390 559 473 559 l 366 559 l 317 562 q 264 545 288 562 q 239 561 254 561 q 228 555 231 561 z "},"c":{"ha":590,"x_min":56,"x_max":562,"o":"m 530 103 q 562 50 562 83 q 539 7 562 7 l 533 7 q 489 -1 527 7 q 407 -8 452 -8 l 390 -8 l 342 -11 q 293 -5 315 -11 q 241 12 282 -1 q 185 34 200 25 q 148 64 170 43 q 108 109 125 85 q 79 159 91 132 q 61 216 67 186 q 56 278 56 246 q 90 440 56 373 q 200 559 123 507 q 233 580 212 566 q 266 600 254 595 q 338 616 278 605 q 458 627 397 627 l 484 627 q 511 629 496 629 q 543 602 543 629 q 541 587 543 597 q 539 572 539 577 l 541 521 q 525 518 530 518 q 485 529 509 518 q 441 553 458 553 l 432 553 q 395 558 424 553 q 342 564 366 564 q 297 547 324 564 q 283 551 289 551 l 281 551 q 272 546 278 551 q 210 511 249 525 q 159 460 180 500 q 119 401 139 421 q 114 322 114 359 q 132 203 114 239 q 184 137 151 167 q 229 93 217 107 l 249 93 q 281 74 256 74 q 322 67 295 74 q 364 61 350 61 l 385 62 l 400 62 q 453 68 435 62 q 496 79 471 75 q 530 103 522 84 z "},"d":{"ha":725,"x_min":49,"x_max":628,"o":"m 628 -85 l 567 -170 l 549 -170 q 526 -161 536 -161 q 509 -107 517 -142 q 517 -66 517 -86 l 518 9 q 504 89 518 54 q 491 85 500 86 q 478 82 482 85 q 364 20 411 33 q 269 7 317 7 q 139 43 195 7 q 66 135 83 79 q 49 224 49 191 q 54 298 49 277 q 79 361 58 319 q 113 428 100 404 q 164 487 125 453 q 250 550 203 521 q 338 583 292 562 q 401 606 385 604 l 406 596 q 460 614 435 614 l 461 614 q 478 640 478 614 q 470 824 478 727 q 458 931 462 920 q 437 949 454 941 q 433 979 433 962 q 468 1031 433 1031 q 515 1053 500 1053 q 542 1041 526 1053 q 559 1029 557 1029 q 562 1021 562 1029 q 556 998 562 1017 q 550 960 551 978 q 536 925 536 950 l 538 890 q 545 722 538 785 q 553 654 553 659 q 551 646 553 652 q 550 636 550 640 q 561 610 550 623 l 571 614 q 591 600 574 604 q 620 573 623 593 q 615 539 616 552 l 610 539 q 592 535 602 539 q 578 530 581 530 q 567 533 572 530 q 566 534 567 534 q 558 401 558 534 q 571 218 558 320 q 589 192 582 203 q 585 146 585 167 q 590 77 585 120 q 595 18 595 35 l 593 1 q 599 -7 593 -4 q 606 -12 606 -9 l 606 -14 l 603 -22 l 628 -85 m 460 543 q 429 548 444 547 l 400 551 q 372 547 388 551 l 357 543 l 326 543 q 175 432 235 515 q 114 265 114 349 q 165 123 114 178 q 300 68 216 68 q 423 89 369 68 q 486 138 477 109 q 496 256 496 166 q 482 525 496 351 q 460 533 463 532 l 460 543 z "},"e":{"ha":635,"x_min":49,"x_max":586,"o":"m 581 433 q 586 418 586 428 q 575 389 586 398 q 576 385 576 388 q 547 374 576 374 l 538 374 q 530 369 534 374 q 524 364 526 364 q 517 368 523 364 q 500 374 511 372 l 492 382 q 463 378 477 378 q 432 380 452 378 q 404 383 413 383 q 373 379 397 383 q 330 375 349 375 l 264 378 q 167 368 210 378 q 149 363 161 365 q 136 352 137 361 q 122 338 135 343 q 115 288 115 310 q 125 220 115 270 q 153 150 136 171 q 211 106 157 145 q 286 67 245 81 q 379 54 326 54 q 431 58 400 54 l 460 61 l 504 61 q 529 73 511 61 q 567 87 548 85 q 575 54 575 68 q 556 -1 575 22 q 511 -25 536 -25 l 497 -22 l 454 -24 l 418 -24 q 291 -2 392 -24 q 142 55 190 20 q 71 146 94 90 q 49 254 49 202 q 76 398 49 325 q 138 511 103 471 q 243 595 172 551 q 263 609 250 598 q 290 619 277 619 l 313 618 q 364 634 327 627 q 424 640 401 640 q 514 610 465 640 q 574 482 564 579 q 579 455 576 465 q 583 443 583 444 q 581 433 583 439 m 302 582 q 264 559 298 576 q 231 532 247 547 q 201 498 216 516 q 175 466 186 480 q 157 445 163 452 q 151 432 151 437 q 161 421 151 425 l 170 418 l 220 418 l 456 427 q 501 467 501 427 q 485 540 501 509 q 397 590 468 572 q 374 591 389 590 q 353 593 359 593 q 302 582 347 593 z "},"f":{"ha":433,"x_min":62,"x_max":644,"o":"m 612 1229 q 636 1211 628 1226 q 644 1185 644 1196 q 623 1160 644 1166 l 623 1157 q 593 1131 623 1135 q 558 1145 581 1145 q 549 1135 553 1145 q 525 1137 532 1137 q 492 1122 494 1137 l 479 1122 q 424 1105 435 1122 q 394 1088 419 1102 q 353 1060 369 1074 q 314 1009 338 1046 q 268 917 290 972 q 240 825 246 862 q 223 740 235 788 q 212 684 212 692 q 248 623 212 623 q 258 624 254 623 q 273 615 264 615 q 281 617 276 615 q 297 617 286 618 q 319 615 309 615 q 374 624 336 615 q 436 632 412 632 q 454 630 440 632 q 469 622 467 627 q 473 596 470 616 l 472 596 q 447 574 465 596 q 437 583 444 578 q 419 572 433 572 q 375 576 410 572 q 314 579 340 579 q 292 578 306 579 q 272 576 278 576 q 252 579 267 576 q 241 576 245 576 q 231 579 238 576 q 225 574 231 574 l 222 575 q 211 424 211 575 l 211 349 q 220 193 211 281 q 232 95 229 104 q 244 75 235 85 q 243 62 243 71 q 250 32 243 51 q 257 4 257 14 l 257 0 q 212 -31 236 -14 q 180 -50 199 -50 l 178 -50 q 160 -30 172 -44 q 139 -16 149 -16 l 134 -17 q 125 9 125 2 q 137 27 125 14 q 149 69 149 40 l 147 85 l 150 148 q 153 290 153 218 q 147 440 153 361 q 142 536 142 519 l 143 564 q 126 571 143 571 q 117 570 124 571 q 107 568 111 568 q 98 570 101 568 q 93 561 93 568 q 83 570 89 570 l 69 568 q 62 574 68 568 l 62 575 q 77 594 62 585 q 98 610 92 604 l 111 610 q 121 628 121 617 l 126 628 q 144 637 137 628 q 158 695 151 646 q 167 777 165 744 q 226 960 187 885 q 296 1072 265 1035 q 376 1142 328 1109 q 441 1175 424 1175 l 449 1175 q 501 1197 471 1195 l 519 1210 q 612 1229 606 1219 z "},"g":{"ha":705,"x_min":49,"x_max":595,"o":"m 595 665 q 579 425 579 592 q 585 255 579 371 q 591 50 591 139 q 558 -221 591 -119 q 504 -322 525 -322 l 500 -321 q 412 -388 482 -371 q 309 -406 341 -406 q 268 -401 294 -406 q 229 -397 241 -397 q 210 -399 215 -397 q 189 -408 200 -408 q 176 -401 181 -408 q 155 -410 170 -410 l 143 -408 q 134 -410 141 -408 q 125 -412 127 -412 q 108 -404 118 -412 q 98 -375 98 -395 q 101 -347 98 -363 q 103 -323 103 -330 l 103 -309 q 113 -289 103 -300 l 118 -289 q 163 -307 132 -289 q 311 -350 235 -350 q 404 -326 370 -350 q 449 -298 446 -324 q 489 -230 460 -294 q 518 -33 518 -165 l 518 -14 q 482 4 508 4 q 449 0 469 4 q 412 -4 429 -4 q 327 3 383 -4 q 238 19 270 10 q 159 56 205 28 q 93 112 113 83 q 61 178 73 140 q 49 257 49 216 q 91 403 49 335 q 214 521 134 471 q 226 532 220 523 q 331 575 239 555 l 411 596 l 412 596 q 494 624 421 596 l 504 612 q 509 659 509 623 l 509 689 l 521 689 q 595 665 583 689 m 464 97 q 478 89 466 89 q 517 178 517 89 l 505 489 l 509 511 q 444 558 509 558 q 329 541 396 558 q 209 472 262 523 q 137 374 155 422 q 118 281 118 327 q 158 172 118 220 q 256 98 198 125 q 425 71 315 71 q 441 73 433 71 q 464 97 449 76 z "},"h":{"ha":755,"x_min":111,"x_max":643,"o":"m 139 1147 q 159 1153 146 1152 q 183 1157 172 1155 l 207 1162 q 236 1120 236 1162 q 233 1084 236 1112 q 225 994 225 1048 l 228 893 l 225 741 q 234 575 225 602 q 262 549 242 549 q 299 565 270 549 q 348 591 329 581 q 389 609 366 600 q 433 619 412 617 l 471 623 q 503 625 490 625 l 514 625 q 597 581 568 613 q 634 501 626 549 q 643 338 643 453 q 621 158 643 252 q 599 58 599 64 l 599 52 q 604 27 599 43 q 610 5 609 12 q 564 -28 591 -28 l 551 -28 q 538 -30 546 -28 q 528 -32 530 -32 q 507 -22 524 -32 q 489 -1 489 -12 q 496 17 489 2 q 549 177 526 75 q 572 370 572 279 l 572 416 q 536 529 572 486 q 443 571 500 571 q 362 554 415 571 q 306 522 309 537 q 283 515 296 522 q 266 506 270 508 q 259 496 261 505 q 256 484 257 487 q 244 486 248 486 q 233 479 240 486 q 230 462 233 472 q 223 372 227 452 q 220 252 220 292 q 224 166 220 210 l 228 132 l 228 131 q 234 104 228 124 q 240 78 240 83 q 237 66 240 74 q 233 52 233 58 l 233 50 l 235 50 q 245 32 245 50 q 240 25 245 31 q 210 14 224 23 q 193 3 196 4 q 171 17 178 5 q 125 24 138 18 q 111 46 111 31 q 113 58 111 55 q 115 62 115 61 q 113 68 115 64 q 111 78 111 73 q 117 90 111 80 q 154 260 154 162 l 150 393 q 151 439 150 425 q 125 476 125 450 q 157 546 125 506 q 158 751 158 618 q 122 1089 158 1090 q 118 1109 118 1099 q 139 1147 118 1147 z "},"i":{"ha":357,"x_min":114,"x_max":278,"o":"m 218 868 q 254 848 229 860 q 278 821 278 837 q 260 789 278 806 q 225 772 243 772 q 183 795 205 772 q 161 821 161 817 q 180 850 161 833 q 216 868 199 868 l 218 868 m 249 4 q 220 -12 249 0 q 183 -24 191 -24 l 179 -24 q 162 -26 172 -24 q 147 -29 151 -29 q 124 -20 134 -29 q 114 -5 114 -11 q 119 39 114 9 q 136 83 125 69 q 142 243 142 126 l 136 489 l 138 532 q 126 557 138 538 q 115 602 115 575 q 124 624 115 617 q 163 643 132 630 l 201 660 q 210 661 204 661 q 227 608 227 661 q 216 453 227 578 q 205 250 205 328 q 208 167 205 206 q 213 108 210 128 q 225 71 216 87 q 244 7 244 35 q 249 4 247 5 z "},"j":{"ha":357,"x_min":123,"x_max":281,"o":"m 221 868 q 257 848 233 859 q 281 821 281 838 q 263 788 281 805 q 227 771 245 771 q 185 794 208 771 q 163 821 163 817 q 182 850 163 833 q 220 868 201 868 l 221 868 m 237 -372 q 219 -391 233 -380 q 204 -401 206 -401 q 198 -399 200 -401 q 193 -397 196 -397 q 183 -401 190 -397 q 170 -406 176 -406 q 141 -401 159 -406 q 123 -393 123 -396 q 127 -383 123 -391 q 131 -367 131 -374 l 131 -357 l 138 -272 q 158 174 158 -12 q 154 307 158 237 l 146 427 q 142 503 143 477 q 136 554 140 529 q 132 593 132 578 q 140 626 132 612 q 175 650 147 639 l 203 660 l 220 661 q 261 637 261 661 q 257 627 261 635 q 253 607 253 618 l 250 607 q 214 469 224 607 q 203 31 203 330 q 216 -253 203 -153 l 227 -322 l 237 -372 z "},"k":{"ha":705,"x_min":118,"x_max":705,"o":"m 240 1019 q 239 1006 240 1013 q 229 996 230 1002 q 220 963 227 989 q 210 855 214 937 q 205 736 205 773 l 205 614 l 204 318 q 206 170 204 252 q 213 72 208 87 q 224 52 219 57 q 200 5 222 5 l 186 7 q 172 3 182 7 q 151 0 161 0 q 128 12 138 0 q 118 43 118 24 q 122 54 118 48 q 138 307 138 54 l 134 703 l 140 916 l 136 950 q 131 1011 131 987 q 135 1040 131 1025 q 203 1065 184 1065 q 218 1059 212 1065 q 236 1028 224 1052 q 240 1025 240 1028 l 240 1019 m 583 543 q 571 545 579 545 q 555 542 561 545 q 503 494 549 540 l 410 406 q 343 339 365 363 q 322 307 322 315 q 389 255 322 297 l 498 182 q 586 131 551 148 q 652 112 621 115 q 692 84 671 110 q 705 56 705 70 q 690 30 705 40 q 671 16 675 20 q 636 -11 660 -11 q 619 -8 630 -11 l 619 -7 q 596 22 619 1 q 520 80 573 43 q 360 184 467 117 q 247 251 253 250 l 228 253 q 268 339 228 302 q 309 370 294 345 q 314 368 310 368 q 329 379 319 368 q 369 421 338 390 q 420 474 400 452 q 457 519 441 496 l 484 556 q 504 596 494 571 q 533 614 515 596 q 567 632 551 632 l 571 632 q 582 628 575 628 l 587 628 q 603 595 603 616 q 583 543 603 564 z "},"l":{"ha":357,"x_min":111,"x_max":245,"o":"m 245 39 q 235 12 239 18 q 214 5 231 7 q 199 -3 205 -3 q 187 5 193 -3 q 164 -9 178 -3 q 111 29 111 5 l 111 31 q 122 50 122 31 l 122 62 l 121 85 q 129 117 121 90 q 139 311 139 189 l 139 450 l 138 503 l 139 547 l 131 704 l 136 812 l 131 953 l 131 979 q 122 1025 122 1002 l 125 1054 q 119 1067 125 1059 q 131 1125 119 1103 q 160 1158 143 1146 q 195 1169 178 1169 q 245 1112 224 1169 q 220 1073 230 1093 q 211 1017 211 1054 l 214 939 l 211 745 l 212 479 l 210 178 l 211 165 q 205 151 211 155 q 219 110 216 142 q 232 60 222 77 q 245 39 243 44 z "},"m":{"ha":1202,"x_min":111,"x_max":1090,"o":"m 803 602 q 858 610 824 603 l 888 618 q 1042 563 993 618 q 1090 392 1090 509 q 1079 260 1090 330 q 1038 106 1068 191 q 1008 1 1008 22 q 1010 -5 1008 -1 q 996 -61 1002 -28 l 956 -65 l 940 -64 l 926 -65 q 897 -56 915 -65 q 916 9 899 -3 q 911 20 911 16 l 911 24 q 929 32 920 32 q 1019 338 1019 205 q 1003 452 1019 400 q 975 523 987 503 q 933 553 963 543 q 865 564 903 564 q 777 536 836 564 l 685 493 q 650 453 650 477 q 653 441 650 450 q 636 433 642 439 q 619 191 619 287 l 623 39 q 614 9 623 20 q 559 -17 572 1 q 538 -7 543 -7 q 519 45 519 1 l 519 54 q 549 158 538 102 q 559 306 559 213 q 555 378 559 339 l 550 410 l 550 421 q 546 457 550 439 q 532 493 542 475 q 505 528 522 511 q 473 553 488 545 q 431 561 458 561 q 402 558 414 561 q 378 549 389 555 q 335 530 364 540 q 283 508 303 518 q 246 481 261 496 q 222 446 231 467 q 210 397 214 426 q 205 329 205 370 l 214 138 q 228 49 214 75 q 198 5 218 18 q 168 -7 179 -7 l 165 -7 q 150 1 157 -7 l 142 -4 q 134 16 136 4 q 140 47 140 25 q 138 78 140 56 q 136 111 136 100 l 136 119 q 141 195 136 121 q 146 397 146 269 q 119 428 146 414 q 115 443 115 438 q 119 460 115 448 l 111 464 q 130 487 119 475 q 144 502 142 498 q 147 517 147 506 q 136 550 147 529 q 127 579 125 572 q 129 589 129 586 q 138 608 129 593 q 155 637 148 623 l 168 637 q 179 651 172 642 q 193 660 186 660 q 223 644 209 660 q 237 608 237 629 q 236 593 237 599 q 225 561 225 575 q 237 530 225 530 q 258 541 239 530 q 309 564 278 552 q 365 587 340 576 q 392 599 389 599 l 414 596 q 422 597 419 596 q 482 610 439 610 q 547 592 512 610 q 595 539 581 574 q 613 517 602 524 q 632 510 624 510 q 635 513 635 510 q 633 515 635 514 q 660 532 639 517 q 705 551 681 547 q 789 587 715 573 l 803 602 z "},"n":{"ha":789,"x_min":111,"x_max":676,"o":"m 418 589 q 492 596 462 596 q 676 366 676 596 q 634 69 676 237 q 615 -28 615 -3 q 618 -39 615 -33 q 568 -81 610 -81 q 524 -67 544 -81 q 504 -39 504 -54 q 532 17 504 -16 q 585 146 561 50 q 608 340 608 243 q 444 541 608 541 q 323 514 380 541 q 258 456 267 488 q 240 442 252 449 q 228 432 229 437 q 220 330 226 428 q 215 180 215 231 l 215 149 q 223 102 215 123 q 232 78 232 81 l 231 54 q 223 19 231 32 q 203 5 215 5 l 200 5 l 196 -4 q 184 -1 188 -1 q 160 -12 175 -1 l 157 -12 q 134 5 149 -12 q 111 22 111 5 q 121 47 111 37 q 141 137 130 47 q 153 363 153 226 q 123 566 153 541 l 122 578 q 152 612 122 604 q 174 631 164 616 q 195 646 184 646 l 196 646 q 219 652 210 648 q 231 657 229 657 q 240 631 240 657 q 232 584 240 610 q 224 551 224 558 q 231 534 224 541 q 249 526 238 526 l 253 526 q 273 545 272 545 l 275 545 q 374 571 340 545 q 389 573 380 572 q 400 575 397 575 q 418 589 416 585 z "},"o":{"ha":812,"x_min":49,"x_max":764,"o":"m 87 418 q 468 619 193 619 q 544 614 511 619 q 606 599 578 610 q 659 570 635 588 q 706 524 684 551 q 751 459 729 497 q 764 371 764 439 q 658 106 764 216 q 397 -3 553 -3 l 392 -3 q 357 4 360 4 q 353 3 354 4 q 311 -7 347 -7 q 198 21 263 -7 q 91 105 132 48 q 49 225 49 162 q 51 274 49 250 q 59 320 54 298 q 71 361 64 342 l 87 400 l 87 418 m 685 307 l 685 325 q 614 506 685 437 q 427 575 543 575 q 378 569 401 575 q 353 562 356 564 q 341 548 349 560 q 329 533 332 535 q 318 530 325 530 l 283 534 q 273 522 276 534 q 176 446 222 518 q 131 294 131 373 q 138 223 131 277 q 180 133 144 168 q 266 72 215 97 q 347 46 316 46 q 363 48 355 46 l 370 50 l 397 50 q 521 78 488 50 q 525 81 524 81 q 538 77 529 81 q 649 212 612 141 q 685 307 685 283 z "},"p":{"ha":694,"x_min":41,"x_max":647,"o":"m 208 589 q 372 641 333 633 q 419 648 412 648 q 505 624 439 648 q 578 589 570 600 q 604 553 581 584 q 647 425 647 510 q 607 279 647 355 q 511 170 567 203 q 501 151 503 159 q 395 72 419 83 l 376 64 q 334 33 346 33 q 325 35 328 33 q 276 3 292 12 q 235 -11 261 -7 q 202 -19 208 -16 q 191 -45 195 -23 q 187 -111 187 -67 q 193 -259 187 -194 q 201 -333 198 -323 q 210 -350 204 -342 q 215 -361 215 -358 q 209 -371 215 -366 q 195 -380 202 -375 q 184 -385 187 -385 q 182 -382 183 -385 q 127 -396 150 -396 q 108 -389 119 -396 q 97 -370 97 -381 q 106 -329 97 -354 q 115 -293 115 -304 l 114 -268 l 119 -81 q 116 -19 119 -37 q 96 18 112 0 l 102 50 l 100 56 q 110 74 100 62 q 119 110 119 86 l 118 147 l 118 161 q 123 204 123 178 l 123 290 q 125 329 123 303 q 127 368 127 355 q 123 459 127 437 q 107 482 119 482 q 86 477 101 482 q 62 472 71 472 l 57 473 l 41 490 q 87 521 51 504 q 123 557 123 538 q 121 572 123 561 q 119 590 119 583 l 121 600 q 110 619 121 606 l 107 646 q 118 681 107 671 q 149 696 129 690 q 175 705 169 701 l 196 705 q 212 692 212 705 l 207 670 q 201 636 201 646 l 203 619 l 200 596 q 208 589 200 591 m 212 85 q 281 72 246 72 q 312 75 298 72 q 360 98 326 77 q 443 153 395 119 q 476 180 460 165 q 526 251 492 195 q 552 321 541 277 q 564 392 564 366 q 551 460 564 414 q 504 537 538 507 q 457 567 469 567 l 453 567 q 421 579 435 567 l 395 579 l 349 581 q 230 554 267 581 q 193 456 193 527 l 195 396 l 191 106 q 201 93 191 96 q 212 85 211 90 z "},"q":{"ha":729,"x_min":49,"x_max":660,"o":"m 652 648 l 652 643 q 656 625 652 635 q 660 611 660 614 q 642 592 660 606 q 621 574 625 578 q 606 474 617 569 q 589 227 595 378 q 583 -121 583 75 l 582 -225 q 587 -315 582 -279 q 591 -363 591 -350 q 588 -399 591 -382 q 578 -427 585 -416 l 566 -448 q 556 -464 560 -458 q 549 -472 551 -471 q 543 -473 547 -473 q 513 -458 536 -473 l 511 -458 q 492 -447 506 -458 q 475 -430 477 -436 q 472 -410 472 -425 q 482 -368 472 -400 q 513 -170 513 -264 l 509 0 q 510 12 509 4 q 511 22 511 19 q 504 31 511 31 l 503 31 q 478 18 493 31 q 453 1 464 6 q 412 -4 441 -4 q 327 3 383 -4 q 238 19 270 10 q 159 56 205 28 q 93 112 113 83 q 61 178 73 140 q 49 257 49 216 q 91 403 49 335 q 214 521 134 471 q 226 532 220 523 q 331 575 239 555 l 411 596 l 412 596 q 494 624 421 596 l 504 612 q 534 635 534 627 q 530 662 534 647 q 526 682 526 677 q 549 713 526 694 q 582 723 562 714 q 611 734 603 732 q 621 721 612 728 q 629 708 629 715 q 627 697 629 707 q 624 676 624 688 q 611 654 614 670 q 635 647 619 647 q 652 648 646 647 m 504 61 q 529 463 529 403 q 510 536 529 515 q 447 558 491 558 q 327 540 393 558 q 208 472 261 522 q 137 375 155 422 q 118 281 118 328 q 158 172 118 220 q 256 98 198 125 q 425 71 315 71 q 441 73 433 71 q 464 97 449 76 q 496 71 470 71 l 500 71 l 504 61 z "},"r":{"ha":476,"x_min":111,"x_max":476,"o":"m 476 525 q 467 502 476 518 q 454 472 457 486 q 436 444 450 458 l 419 444 q 367 465 384 465 q 327 451 355 465 q 273 400 299 437 q 240 343 248 364 q 218 294 237 320 l 218 272 q 208 223 205 239 q 210 200 210 208 q 208 186 210 191 q 200 170 200 178 q 207 110 200 153 q 231 45 214 67 l 231 39 q 205 8 231 8 l 192 -5 q 155 -7 175 -7 q 111 0 130 -7 l 111 3 q 122 56 111 21 q 134 110 134 92 l 138 269 q 117 597 138 455 q 115 614 115 612 q 140 653 115 640 q 183 667 165 667 q 214 659 199 667 q 219 649 215 656 q 222 640 222 642 l 222 632 q 211 587 222 622 q 199 497 199 551 l 200 414 l 200 401 q 218 387 200 391 q 287 487 247 450 q 385 539 326 523 q 458 555 443 555 q 476 533 476 543 l 476 525 z "},"s":{"ha":475,"x_min":47,"x_max":421,"o":"m 368 347 q 421 233 421 300 q 368 77 421 147 q 231 -7 315 7 q 179 -9 212 -7 q 126 -20 154 -20 q 68 -5 90 -20 q 47 54 47 10 q 49 74 47 67 l 54 74 q 80 67 68 74 q 96 60 92 60 l 100 61 q 178 39 123 39 q 273 57 230 39 q 336 119 315 76 q 357 197 357 163 q 318 281 357 248 q 146 355 280 314 q 119 364 125 359 l 88 391 q 56 433 63 412 l 49 454 q 111 607 49 562 q 325 652 173 652 l 363 650 q 376 653 366 650 q 387 623 387 642 q 380 580 387 600 q 364 557 372 560 q 350 575 358 569 l 349 575 q 342 573 347 575 q 336 570 338 570 q 257 606 304 606 q 136 571 165 606 q 107 493 107 536 q 205 408 107 431 q 323 372 277 391 q 368 347 368 353 z "},"t":{"ha":488,"x_min":-20,"x_max":476,"o":"m 397 597 q 406 590 398 593 q 414 587 413 587 l 421 587 q 460 577 444 587 q 476 554 476 567 q 457 528 476 541 l 449 536 q 416 515 439 519 l 412 524 l 404 521 q 343 534 374 534 l 279 532 q 239 534 266 532 q 221 328 221 403 q 224 263 221 300 q 236 202 227 226 q 254 159 245 179 q 283 120 262 140 q 322 93 304 101 q 354 70 340 85 q 422 56 367 56 l 436 56 q 449 39 449 45 q 439 16 449 31 q 424 -11 429 0 q 404 -35 418 -22 l 401 -35 q 396 -31 398 -35 q 354 -25 372 -31 q 353 -26 354 -26 q 346 -23 351 -26 q 336 -17 341 -19 q 317 0 332 -7 q 260 32 286 11 q 206 92 234 53 q 171 163 178 130 q 160 241 164 195 q 155 339 155 287 q 168 533 155 427 l 154 538 l 150 529 l 140 529 l 138 538 q -20 568 -20 544 q -10 584 -20 577 q 47 591 0 591 l 74 591 l 102 598 q 133 610 118 602 q 159 632 148 619 q 180 722 170 645 q 186 823 186 770 l 186 851 q 195 888 186 864 q 219 925 205 911 q 239 939 233 939 q 267 933 252 939 q 284 926 282 928 q 289 916 286 924 q 296 903 292 907 l 296 900 q 291 896 296 897 q 284 893 286 895 q 282 890 283 892 q 272 854 281 889 q 257 783 263 819 q 248 714 251 748 q 244 647 244 680 q 248 593 244 600 q 260 587 252 587 q 277 592 263 587 q 302 596 291 596 q 313 595 309 596 l 321 578 q 332 576 325 576 q 360 586 339 576 q 397 597 382 595 z "},"u":{"ha":779,"x_min":113,"x_max":668,"o":"m 575 621 q 608 634 587 629 l 650 643 l 654 643 q 668 608 668 643 l 646 535 q 630 465 635 498 q 625 401 625 432 q 630 335 625 370 q 654 275 635 300 q 656 267 656 272 q 645 243 656 260 q 633 199 633 227 q 639 150 633 184 q 645 109 645 117 q 655 94 646 101 q 665 83 665 87 q 654 74 665 78 q 652 33 652 41 q 659 5 652 8 q 589 -14 612 -14 q 561 9 561 -14 q 566 29 561 16 q 564 40 564 33 q 567 60 564 53 q 571 75 571 68 q 567 113 571 89 q 542 138 563 138 q 484 99 526 138 q 370 17 419 42 q 342 3 349 9 q 241 -12 245 -12 q 198 7 224 -12 q 154 45 171 26 q 125 104 138 64 q 113 193 113 144 q 130 343 113 215 q 156 527 146 471 q 165 585 165 582 q 161 602 165 590 l 155 612 l 155 615 q 162 622 155 620 q 188 633 169 624 q 218 643 208 643 q 238 638 223 643 q 262 633 252 633 l 267 633 q 283 612 279 623 l 269 596 q 220 492 231 561 l 197 346 q 184 237 184 270 q 221 98 184 142 q 294 54 258 54 l 306 56 l 326 54 q 366 70 336 54 q 454 124 396 85 q 525 183 512 164 q 547 230 537 201 q 561 296 556 259 q 566 379 566 334 q 561 533 566 493 q 543 581 555 572 q 534 616 534 587 q 550 624 545 621 q 558 627 554 627 q 575 621 566 627 z "},"v":{"ha":633,"x_min":28,"x_max":643,"o":"m 642 627 l 643 611 q 637 588 643 597 q 611 568 632 578 q 487 345 552 484 q 388 85 421 205 q 365 31 380 55 q 350 -1 350 6 q 353 -9 350 -7 q 335 -32 335 -18 q 318 -26 321 -26 q 286 -32 308 -26 q 275 -14 286 -24 q 264 3 265 -3 q 253 30 264 10 q 237 61 243 49 l 245 65 q 52 511 83 482 q 28 554 28 539 q 47 600 28 573 q 85 627 67 627 q 98 621 90 627 q 120 607 106 614 q 142 593 134 599 l 143 595 q 153 525 149 595 q 195 384 156 481 q 244 277 233 287 q 256 261 254 267 q 299 161 271 197 q 334 125 328 125 q 349 151 347 125 l 350 151 q 367 171 357 151 q 395 239 376 191 l 429 326 q 477 434 466 418 q 490 453 489 449 q 493 467 490 458 q 496 479 496 475 q 518 551 509 500 l 530 564 l 530 566 l 534 596 l 533 606 q 574 652 533 652 q 642 627 611 652 z "},"w":{"ha":921,"x_min":39,"x_max":901,"o":"m 876 636 l 885 628 q 901 603 901 623 q 891 554 901 576 q 848 442 881 531 q 791 258 816 353 q 758 115 766 163 q 738 36 750 68 q 694 -22 726 3 l 679 -22 q 672 -28 676 -22 l 668 -29 q 640 5 651 -29 q 574 184 640 41 q 476 400 508 328 q 435 460 460 460 q 422 457 430 460 q 339 234 382 359 l 272 45 q 277 39 277 43 q 272 34 277 37 q 268 25 268 30 q 272 8 268 19 q 265 13 269 9 q 260 16 261 16 q 192 -17 224 -17 q 176 -3 180 -17 q 168 53 172 11 q 99 385 146 260 q 91 418 96 393 q 83 460 87 444 q 71 495 79 476 q 51 531 62 513 q 39 564 39 549 q 144 616 39 612 q 153 574 153 593 q 151 548 153 566 q 150 521 150 531 q 181 355 150 472 l 240 129 q 365 420 322 312 q 407 543 407 528 l 406 561 q 419 597 406 576 q 454 619 433 619 q 476 610 469 619 q 496 570 484 600 q 499 545 498 562 q 509 507 500 528 q 534 451 517 486 q 570 368 551 416 q 604 286 589 319 q 646 202 618 252 q 684 145 673 153 q 707 129 694 136 q 782 366 757 264 q 807 518 807 468 q 791 571 807 550 q 811 599 808 581 q 819 618 813 618 l 825 618 q 849 627 833 618 q 876 636 865 635 z "},"x":{"ha":631,"x_min":9,"x_max":623,"o":"m 581 583 l 576 585 q 536 561 570 585 q 460 483 502 536 q 401 410 418 430 q 364 359 364 378 q 431 265 364 349 q 597 111 498 181 q 623 86 623 94 q 591 51 623 83 q 534 18 559 18 q 513 23 522 18 q 497 39 503 28 q 486 67 490 50 q 446 117 485 69 l 410 161 q 294 289 308 289 q 231 220 281 289 q 138 45 180 151 q 61 -5 106 -5 q 30 3 50 -5 q 9 22 9 12 q 45 50 9 45 q 114 138 49 50 q 273 332 179 226 q 89 545 146 545 l 85 545 q 78 564 78 556 q 104 608 78 581 q 153 636 130 636 q 189 608 172 636 q 334 396 233 507 q 453 574 420 475 q 489 618 472 618 l 507 615 q 542 622 526 615 q 561 629 557 629 q 582 599 582 629 q 581 583 582 589 z "},"y":{"ha":699,"x_min":18,"x_max":681,"o":"m 597 610 q 616 616 606 616 q 654 610 627 616 q 681 590 681 603 q 657 555 681 572 q 586 442 648 555 l 474 239 q 418 85 425 151 q 387 17 412 34 l 383 0 q 366 -14 372 -2 q 246 -294 267 -240 q 223 -376 224 -347 q 193 -406 221 -406 l 186 -406 q 125 -397 163 -397 l 121 -399 q 110 -387 110 -399 q 114 -382 110 -384 q 164 -310 114 -376 q 158 -302 158 -308 q 190 -246 158 -294 q 321 -14 269 -126 q 317 0 317 -7 q 304 3 313 3 l 301 3 q 282 38 287 3 q 273 79 277 73 q 211 208 243 132 q 144 353 178 284 q 95 458 109 422 q 58 520 80 494 q 36 564 36 546 l 36 571 q 28 570 33 570 q 18 574 18 570 q 40 605 18 578 q 89 648 62 633 q 120 635 109 640 q 145 569 131 629 l 160 515 l 160 493 q 227 353 186 444 l 248 308 q 269 266 259 285 q 289 229 278 246 q 310 197 299 212 q 328 171 327 174 q 339 152 333 161 q 353 137 346 144 q 370 123 361 130 l 422 243 q 510 429 490 395 q 540 492 530 463 q 558 556 550 521 q 571 601 566 591 q 589 611 576 611 l 597 610 z "},"z":{"ha":597,"x_min":28,"x_max":587,"o":"m 576 46 q 587 21 587 39 q 578 -3 587 7 q 579 -18 579 -8 q 559 -41 579 -41 q 504 -22 541 -41 q 167 12 279 12 q 158 3 158 12 q 143 7 151 3 l 140 -3 q 104 9 117 9 l 85 7 q 66 -1 75 7 q 53 -8 58 -8 q 38 3 49 -8 q 28 35 28 14 q 36 61 28 52 l 77 106 q 407 530 235 280 l 407 534 q 410 554 407 543 q 414 568 414 564 q 399 574 414 574 l 371 574 l 236 581 q 125 555 149 581 q 122 554 123 554 q 116 557 120 554 q 110 561 113 561 l 106 559 q 69 542 75 542 q 61 558 64 542 q 57 587 57 574 q 100 663 57 645 q 125 650 105 652 q 154 644 144 648 q 249 631 187 631 l 297 631 l 403 627 q 545 644 460 627 q 555 621 555 631 l 554 614 q 527 591 542 615 q 504 555 512 568 q 486 533 496 543 q 451 485 477 522 l 406 420 q 346 318 343 332 q 328 309 334 318 q 214 161 267 202 q 208 140 211 147 q 174 100 174 126 q 179 77 174 87 l 189 77 l 193 66 l 215 68 q 227 64 222 68 q 232 61 231 61 q 239 66 237 61 q 257 56 250 63 l 292 56 q 479 40 383 40 l 529 41 l 558 41 q 576 46 572 41 z "},"{":{"ha":611,"x_min":117,"x_max":489,"o":"m 258 608 l 269 642 l 258 722 q 260 771 260 741 l 258 823 q 273 907 258 854 q 299 976 287 959 q 330 998 311 993 q 390 1003 349 1003 q 489 989 489 1003 q 480 976 489 984 q 456 964 471 968 l 452 949 l 404 954 l 397 954 q 340 940 373 954 q 349 882 349 889 l 343 764 l 343 718 q 346 562 343 618 q 349 501 349 505 q 333 459 349 484 q 289 414 317 434 l 347 355 q 340 216 340 234 l 343 155 q 335 107 343 145 q 326 37 326 68 l 326 32 l 328 -17 q 323 -45 323 -33 q 340 -69 323 -69 q 407 -49 365 -69 q 453 -29 448 -29 q 465 -40 459 -29 q 471 -58 471 -51 q 431 -96 471 -76 q 338 -115 391 -115 l 307 -114 l 290 -117 q 262 -35 275 -95 q 250 40 250 26 q 254 89 250 52 q 257 157 257 127 l 256 231 q 258 257 256 240 q 260 282 260 275 q 233 360 260 327 q 163 393 205 393 l 135 392 q 117 408 117 392 q 155 435 117 420 l 264 475 l 272 550 l 258 608 z "},"|":{"ha":278,"x_min":83,"x_max":195,"o":"m 179 1141 q 187 1117 187 1129 l 186 1107 l 186 1084 q 183 1059 186 1073 l 180 1048 q 187 1013 180 1037 l 195 990 q 189 924 195 962 q 183 875 183 887 l 183 871 q 186 850 186 857 l 183 811 l 185 798 q 187 770 187 783 l 187 754 q 189 714 189 743 q 184 620 189 680 q 179 534 179 561 q 171 355 179 459 q 163 200 163 252 q 179 89 163 118 q 168 69 168 85 q 170 47 168 63 q 171 21 171 31 q 148 -41 171 -27 q 106 -56 124 -56 q 83 -37 85 -56 q 89 -12 89 -26 q 87 5 89 0 q 85 21 85 11 q 92 47 85 26 q 100 93 100 68 l 100 220 q 102 249 100 236 q 108 270 106 256 l 111 297 l 104 330 l 117 456 l 109 471 q 125 629 113 548 l 118 644 q 123 673 123 657 l 123 692 l 125 747 q 120 758 125 749 q 113 775 116 767 q 119 840 119 803 l 115 877 q 113 920 113 895 l 113 946 q 97 1006 97 987 q 102 1051 97 1012 q 117 1109 108 1090 q 138 1134 125 1129 q 179 1141 150 1138 z "},"}":{"ha":611,"x_min":96,"x_max":469,"o":"m 294 1017 q 343 969 325 1009 q 357 884 362 928 q 355 861 355 869 q 358 838 355 855 q 361 810 361 821 l 351 562 q 350 536 351 543 l 347 528 q 370 504 347 517 q 414 490 392 490 q 434 492 422 490 q 449 494 445 494 q 464 483 458 494 q 469 458 469 471 q 442 440 469 451 q 392 415 415 429 q 365 391 370 401 q 357 359 361 380 q 352 307 354 338 q 350 237 350 276 l 351 203 q 347 142 351 178 l 343 109 l 359 39 q 370 -16 370 16 q 334 -96 370 -59 q 282 -134 298 -134 q 270 -127 277 -134 q 201 -110 250 -110 q 170 -117 197 -110 q 119 -125 143 -125 q 96 -97 96 -125 q 100 -74 96 -80 q 121 -68 104 -68 l 178 -66 l 239 -69 q 293 21 293 -69 l 293 28 l 273 50 l 269 103 q 273 122 269 109 q 277 144 277 136 q 274 170 277 154 q 271 195 271 186 q 275 236 271 207 l 261 267 l 261 282 q 349 458 261 426 q 292 478 314 460 q 271 515 271 497 q 275 533 271 523 q 279 549 279 544 l 278 585 l 281 705 l 279 766 l 283 861 q 249 953 283 918 q 184 945 217 952 l 160 956 q 154 954 159 954 q 141 961 148 954 q 135 972 135 967 q 151 982 135 982 q 161 978 157 982 l 172 994 l 186 994 l 236 997 l 252 997 q 294 1017 262 997 z "},"~":{"ha":1157,"x_min":121,"x_max":1038,"o":"m 1038 425 q 775 328 901 328 q 699 336 736 328 q 578 375 662 345 q 454 413 495 405 q 382 421 414 421 q 121 313 273 421 l 121 403 q 383 501 264 501 q 483 488 435 501 q 624 441 531 475 q 777 407 718 407 q 1038 514 886 407 l 1038 425 z "},"":{"ha":1046,"x_min":-14,"x_max":997,"o":"m 616 940 q 958 135 671 753 q 997 37 997 77 q 990 20 997 28 q 943 1 984 13 q 889 -17 902 -12 q 879 7 879 -5 q 882 30 879 17 l 885 40 q 863 132 885 62 q 787 310 841 202 q 776 325 782 313 q 747 338 770 338 q 722 325 734 338 q 694 335 720 330 l 673 340 l 653 340 q 557 333 584 340 q 529 325 530 325 q 514 335 519 325 q 452 326 472 323 q 412 329 432 329 q 329 318 368 329 q 280 308 291 308 q 258 290 269 307 l 249 297 q 146 72 180 154 q 124 -15 142 21 q 93 -50 107 -50 l 92 -50 q -3 -28 68 -41 q -14 -16 -14 -26 q 10 26 -14 7 q 37 56 34 45 q 78 114 60 98 q 139 210 102 143 q 200 300 176 277 q 265 428 201 330 q 376 612 329 526 q 428 705 422 699 q 522 889 522 840 l 522 892 q 538 899 538 892 l 538 905 q 571 960 538 930 l 581 956 q 608 978 598 978 q 621 960 621 978 q 616 940 621 949 m 650 383 q 689 389 669 389 q 736 415 736 397 q 657 616 736 416 q 554 815 578 815 q 488 721 537 815 q 378 527 439 627 q 317 406 317 428 q 337 385 317 390 q 361 379 357 379 l 374 380 q 405 377 385 380 q 432 374 425 374 q 485 379 448 374 q 532 385 522 385 q 555 382 541 385 q 572 379 568 379 q 586 389 582 379 q 616 383 603 383 l 637 385 q 650 383 645 385 m 739 1211 q 758 1188 744 1204 q 772 1161 772 1172 q 756 1128 772 1145 q 724 1111 741 1111 q 666 1142 694 1111 q 637 1189 637 1173 q 664 1229 637 1206 l 664 1242 l 678 1242 l 681 1251 q 700 1242 692 1249 q 709 1223 703 1232 q 739 1211 715 1215 m 433 1229 q 446 1211 433 1219 q 496 1151 496 1196 q 480 1125 496 1139 q 465 1100 465 1110 l 460 1100 q 446 1096 450 1100 q 370 1168 370 1152 q 376 1194 370 1174 q 402 1224 383 1213 q 427 1234 421 1234 q 433 1229 430 1234 z "},"":{"ha":1046,"x_min":-14,"x_max":997,"o":"m 616 940 q 958 135 671 753 q 997 37 997 77 q 990 20 997 28 q 943 1 984 13 q 889 -17 902 -12 q 879 7 879 -5 q 882 30 879 17 l 885 40 q 863 132 885 62 q 787 310 841 202 q 776 325 782 313 q 747 338 770 338 q 722 325 734 338 q 694 335 720 330 l 673 340 l 653 340 q 557 333 584 340 q 529 325 530 325 q 514 335 519 325 q 452 326 472 323 q 412 329 432 329 q 329 318 368 329 q 280 308 291 308 q 258 290 269 307 l 249 297 q 146 72 180 154 q 124 -15 142 21 q 93 -50 107 -50 l 92 -50 q -3 -28 68 -41 q -14 -16 -14 -26 q 10 26 -14 7 q 37 56 34 45 q 78 114 60 98 q 139 210 102 143 q 200 300 176 277 q 265 428 201 330 q 376 612 329 526 q 428 705 422 699 q 522 889 522 840 l 522 892 q 538 899 538 892 l 538 905 q 571 960 538 930 l 581 956 q 608 978 598 978 q 621 960 621 978 q 616 940 621 949 m 650 383 q 689 389 669 389 q 736 415 736 397 q 657 616 736 416 q 554 815 578 815 q 488 721 537 815 q 378 527 439 627 q 317 406 317 428 q 337 385 317 390 q 361 379 357 379 l 374 380 q 405 377 385 380 q 432 374 425 374 q 485 379 448 374 q 532 385 522 385 q 555 382 541 385 q 572 379 568 379 q 586 389 582 379 q 616 383 603 383 l 637 385 q 650 383 645 385 m 564 1299 q 614 1303 591 1303 q 706 1241 706 1303 q 653 1142 706 1198 q 530 1086 600 1086 q 459 1117 482 1086 q 436 1156 436 1147 l 436 1158 q 481 1238 436 1200 q 503 1267 503 1257 q 500 1276 503 1270 q 528 1293 511 1278 q 560 1309 545 1309 l 564 1299 m 578 1142 q 620 1162 604 1142 q 636 1213 636 1181 q 623 1253 636 1243 q 592 1263 610 1263 q 544 1245 581 1263 q 507 1200 507 1227 q 527 1165 507 1187 q 578 1142 547 1142 z "},"":{"ha":864,"x_min":61,"x_max":808,"o":"m 808 -41 q 785 -58 808 -58 q 758 -55 775 -58 q 668 -44 741 -52 q 553 -30 596 -36 q 492 -17 510 -23 q 484 -142 484 -130 q 488 -210 484 -171 l 493 -241 q 483 -275 493 -256 q 457 -294 473 -294 q 406 -257 406 -294 q 417 -205 406 -252 q 429 -96 429 -159 q 397 5 429 -5 q 210 102 275 52 q 103 237 144 153 q 61 416 61 321 q 80 524 61 463 q 130 655 95 575 q 179 748 157 722 q 252 824 209 785 q 336 886 295 862 l 401 920 q 443 933 414 929 q 511 944 500 941 q 600 956 551 956 q 647 951 626 956 q 701 942 667 947 q 752 935 734 938 q 783 926 770 932 q 796 913 796 920 q 782 861 796 903 q 745 819 768 819 q 718 828 732 819 q 635 874 688 861 q 564 888 582 888 q 521 885 549 888 l 481 882 q 467 880 473 882 q 444 875 451 879 q 422 863 432 868 q 403 857 412 859 q 386 854 394 854 l 379 854 l 370 844 q 335 829 350 844 l 321 829 q 143 449 143 647 q 162 332 143 387 q 222 225 182 276 q 294 152 262 174 l 356 109 q 431 79 386 89 q 471 96 433 90 q 482 82 482 90 l 482 79 q 495 67 485 74 q 509 54 505 60 q 659 40 571 40 l 681 40 q 778 66 778 55 q 808 -39 808 66 l 808 -41 z "},"":{"ha":754,"x_min":139,"x_max":713,"o":"m 277 928 q 307 925 283 928 q 350 922 330 922 l 505 925 l 566 922 q 616 927 580 922 q 676 932 653 932 q 713 913 713 932 q 708 885 713 911 q 692 852 703 859 q 661 846 682 846 q 621 848 656 846 q 399 879 570 879 q 326 877 369 879 q 277 872 283 876 q 262 864 270 869 q 245 748 254 832 q 236 653 236 664 q 245 595 236 622 q 257 550 255 568 q 289 532 258 532 l 300 532 q 309 530 307 532 q 318 524 309 530 q 340 518 328 518 q 380 521 353 518 q 421 524 408 524 q 433 522 425 524 q 447 521 442 521 q 478 530 467 521 l 515 527 q 591 538 526 533 q 593 525 593 534 q 591 507 593 519 q 590 489 590 495 q 591 475 590 479 q 539 444 582 444 q 500 454 528 444 q 444 464 473 464 l 404 463 q 352 466 389 463 q 292 469 315 469 l 272 469 q 247 449 254 458 q 233 398 240 441 q 225 309 225 356 q 231 205 225 275 q 238 99 236 136 q 243 61 241 62 q 252 56 245 59 q 262 50 259 54 l 302 49 q 397 54 336 49 l 456 58 l 475 56 q 498 56 484 56 q 669 79 556 56 q 697 90 690 90 q 705 77 705 90 l 699 50 l 700 26 q 688 -4 700 2 q 642 -9 677 -9 q 559 -5 616 -9 q 441 5 500 5 l 272 3 l 249 3 q 235 9 237 9 q 227 5 230 9 q 218 3 224 1 q 208 5 212 5 q 191 -3 199 5 q 163 -16 173 -5 l 158 -16 q 139 -5 146 -16 q 146 11 146 3 l 144 22 q 149 37 144 31 q 146 43 146 39 q 148 62 146 46 q 161 297 161 176 l 160 433 l 163 529 l 163 562 l 164 742 q 160 856 164 808 q 149 905 149 896 q 155 917 149 912 q 214 935 162 921 l 216 943 l 228 937 l 237 940 q 277 928 256 940 m 571 1253 q 593 1263 581 1263 q 626 1247 606 1263 q 646 1204 646 1231 q 644 1184 646 1192 q 597 1164 595 1171 l 593 1164 q 583 1162 589 1164 q 574 1159 576 1159 q 566 1164 569 1159 q 551 1155 551 1162 l 553 1150 q 536 1156 549 1150 q 513 1164 523 1162 l 368 1123 q 273 1089 290 1102 q 264 1099 264 1093 l 264 1103 q 343 1170 281 1134 l 357 1170 q 474 1213 383 1170 q 571 1253 542 1253 z "},"":{"ha":1136,"x_min":139,"x_max":1011,"o":"m 1011 922 l 999 879 q 976 759 983 825 q 968 605 970 693 q 962 452 967 516 q 957 347 957 388 l 958 273 l 957 222 q 967 133 957 184 q 977 65 977 82 q 964 0 977 26 q 935 -25 951 -25 q 850 50 907 -25 l 850 64 q 600 343 699 218 q 383 605 500 467 q 264 743 267 743 q 250 731 257 743 q 234 637 243 720 q 225 440 225 555 q 237 153 225 313 l 248 134 l 248 118 q 241 90 248 96 l 241 89 q 249 64 241 84 q 256 26 256 45 l 256 18 q 199 -7 239 -7 q 187 4 190 -7 q 147 -8 175 3 q 139 33 139 5 q 149 123 139 60 q 157 130 155 123 q 161 164 159 136 q 165 212 163 192 q 155 232 155 224 l 157 236 q 170 265 170 244 l 172 346 l 171 454 q 176 554 171 526 q 182 593 182 583 q 180 627 182 604 q 178 653 178 650 q 182 730 178 701 q 186 800 186 759 l 180 823 q 183 856 183 831 q 182 905 183 887 q 194 919 186 912 q 205 930 201 926 q 210 933 208 933 q 228 939 212 934 q 275 886 241 937 q 396 736 333 797 q 395 733 395 736 q 468 645 395 726 q 640 444 542 565 l 701 368 q 765 292 733 329 q 840 209 797 255 q 890 161 883 163 q 901 158 898 158 q 907 167 907 158 l 905 214 l 908 301 l 907 419 q 909 603 907 488 l 913 703 q 904 751 913 741 q 903 761 903 755 q 905 778 903 768 q 907 793 907 789 q 905 802 907 799 q 907 828 907 810 q 903 854 907 843 q 899 882 899 865 q 915 916 899 903 q 958 929 931 929 l 972 928 l 993 928 q 1011 922 1002 928 m 789 1257 q 807 1225 807 1252 l 806 1189 l 806 1176 q 789 1149 789 1169 l 785 1151 q 775 1144 780 1151 q 766 1136 770 1137 q 762 1137 766 1137 l 749 1136 q 679 1099 722 1099 q 644 1106 662 1099 q 597 1138 625 1113 q 558 1172 569 1164 l 539 1172 q 482 1196 505 1196 l 472 1194 q 441 1185 444 1190 q 428 1172 439 1179 q 414 1158 416 1164 l 416 1141 q 415 1139 416 1141 q 414 1136 414 1137 q 399 1107 406 1112 q 389 1097 391 1101 l 389 1083 q 353 1122 353 1093 q 357 1145 353 1133 l 370 1145 q 401 1192 385 1162 q 439 1237 417 1221 q 501 1254 462 1254 q 664 1182 562 1254 q 697 1165 685 1165 q 749 1249 745 1165 q 789 1257 770 1249 z "},"":{"ha":1078,"x_min":64,"x_max":1015,"o":"m 827 899 q 945 794 874 902 q 1015 557 1015 686 q 1003 432 1015 491 q 966 324 991 373 q 892 184 914 216 q 784 71 844 113 q 660 8 723 28 q 517 -12 596 -12 q 314 21 328 -12 q 273 36 300 26 q 244 47 246 45 l 227 69 q 201 75 203 75 q 97 197 130 120 q 64 416 64 275 q 138 671 64 526 q 146 695 142 680 q 162 719 150 709 q 176 736 175 728 q 244 814 234 800 q 294 844 255 829 q 345 882 332 860 q 356 887 349 888 q 368 885 364 885 l 374 886 q 384 898 378 892 q 391 902 389 903 q 443 918 393 901 q 500 933 492 935 q 559 939 508 932 l 603 947 q 640 942 618 947 q 669 936 662 937 q 827 899 793 923 m 847 224 q 929 497 929 373 q 909 649 929 582 q 852 763 890 716 q 765 839 815 810 q 637 877 715 867 q 545 886 559 886 q 532 879 543 886 q 514 861 522 872 q 492 857 505 857 l 469 859 q 432 838 444 859 q 428 836 431 836 q 422 843 425 836 l 412 838 l 412 828 q 408 833 410 828 q 401 838 405 838 l 399 838 q 323 800 334 815 q 298 793 307 794 q 274 763 290 785 q 247 729 257 741 q 226 708 236 716 q 216 677 216 699 q 160 570 181 646 q 139 412 139 494 q 161 277 139 338 q 216 201 184 217 l 216 187 q 261 142 237 163 q 330 105 285 121 q 407 80 376 89 q 478 64 439 71 q 555 58 517 58 q 592 60 578 58 l 640 71 q 675 78 662 76 q 711 98 680 79 l 760 126 q 770 134 766 130 q 774 146 774 139 l 774 151 q 800 171 777 158 q 836 191 823 184 q 850 210 850 199 q 847 224 850 218 m 750 1211 q 769 1188 755 1204 q 783 1161 783 1172 q 767 1128 783 1145 q 734 1111 751 1111 q 676 1142 705 1111 q 648 1189 648 1173 q 675 1229 648 1206 l 675 1242 l 689 1242 l 692 1251 q 711 1242 703 1249 q 720 1223 714 1232 q 750 1211 726 1215 m 444 1229 q 457 1211 444 1219 q 507 1151 507 1196 q 491 1125 507 1139 q 476 1100 476 1110 l 471 1100 q 457 1096 461 1100 q 380 1168 380 1152 q 387 1194 380 1174 q 413 1224 394 1213 q 437 1234 432 1234 q 444 1229 441 1234 z "},"":{"ha":1015,"x_min":111,"x_max":1002,"o":"m 945 929 l 950 929 q 972 916 962 929 q 986 903 981 903 l 990 903 q 1002 890 1002 903 q 990 860 1002 882 q 983 838 986 859 q 943 671 980 812 q 888 481 912 555 q 831 334 859 393 l 790 261 q 786 241 787 252 q 730 157 783 223 q 636 61 687 103 q 524 -16 545 -16 q 502 -11 513 -16 q 486 -5 490 -6 q 454 -20 463 -20 q 447 -18 450 -20 q 399 -22 414 -22 q 286 21 345 -22 q 205 156 227 64 q 172 399 182 248 q 156 617 162 549 q 141 748 150 686 q 130 813 133 810 q 119 817 127 817 q 111 867 111 861 q 116 886 111 876 q 125 900 121 895 q 146 909 129 905 q 176 918 163 913 q 194 927 189 923 q 200 932 199 932 q 211 923 202 932 q 231 905 219 913 q 243 873 243 897 q 239 851 243 864 q 235 810 235 838 l 236 764 l 235 715 q 244 445 235 549 q 262 295 254 340 q 288 188 271 251 q 337 95 304 125 q 376 62 369 66 q 407 58 382 58 q 461 36 410 36 q 557 62 506 36 q 636 124 609 89 q 686 201 663 159 q 730 277 708 243 q 782 376 751 311 q 838 545 812 441 l 843 562 q 852 611 850 580 q 867 652 854 643 q 899 819 899 781 q 895 857 899 842 q 892 889 892 871 q 912 920 892 918 q 945 929 933 922 m 734 1211 q 753 1188 739 1204 q 767 1161 767 1172 q 751 1128 767 1145 q 718 1111 735 1111 q 660 1142 688 1111 q 632 1189 632 1173 q 659 1229 632 1206 l 659 1242 l 673 1242 l 675 1251 q 694 1242 687 1249 q 704 1223 698 1232 q 734 1211 709 1215 m 428 1229 q 441 1211 428 1219 q 490 1151 490 1196 q 475 1125 490 1139 q 460 1100 460 1110 l 454 1100 q 441 1096 445 1100 q 364 1168 364 1152 q 371 1194 364 1174 q 397 1224 378 1213 q 421 1234 416 1234 q 428 1229 425 1234 z "},"":{"ha":606,"x_min":36,"x_max":509,"o":"m 509 367 q 499 352 509 361 q 487 335 490 342 q 481 295 484 328 q 479 200 479 263 l 482 109 q 476 96 482 101 q 475 71 475 88 q 483 7 475 45 l 490 -29 l 489 -62 l 490 -92 q 418 -140 441 -140 q 405 -136 414 -140 q 387 -131 395 -131 l 383 -131 q 378 -97 378 -112 q 393 -33 378 -64 q 405 -18 401 -24 q 408 22 408 -13 q 400 61 408 61 q 392 58 399 61 q 376 56 385 56 l 371 56 q 361 41 363 50 q 272 11 353 42 q 196 -3 233 -3 q 124 8 156 -3 q 71 39 92 18 q 42 70 49 60 q 36 114 36 80 l 37 131 l 37 136 q 143 279 37 204 q 340 369 248 353 q 378 377 364 373 q 400 392 391 382 q 410 439 410 402 q 282 603 410 559 q 271 608 278 604 q 258 612 264 612 q 149 607 193 612 q 94 579 124 579 q 72 595 72 579 q 82 624 72 595 q 129 652 92 652 q 285 675 172 675 q 426 604 376 675 q 476 403 476 534 l 476 393 q 495 380 481 385 q 509 368 509 376 l 509 367 m 375 126 q 418 229 418 184 q 404 290 418 257 q 349 322 390 322 q 218 282 269 322 l 201 282 q 97 160 97 224 q 140 84 97 115 q 240 53 183 53 q 297 66 255 53 q 375 114 339 79 l 375 126 m 404 925 q 427 935 414 935 q 459 919 439 935 q 479 876 479 903 q 477 856 479 863 q 431 836 428 842 l 427 836 q 416 833 422 836 q 407 831 410 831 q 399 836 402 831 q 385 827 385 834 l 386 822 q 369 828 382 822 q 346 836 356 833 l 201 795 q 106 761 123 774 q 97 771 97 765 l 97 775 q 176 842 115 806 l 191 842 q 307 885 216 842 q 404 925 375 925 z "},"":{"ha":606,"x_min":36,"x_max":509,"o":"m 509 367 q 499 352 509 361 q 487 335 490 342 q 481 295 484 328 q 479 200 479 263 l 482 109 q 476 96 482 101 q 475 71 475 88 q 483 7 475 45 l 490 -29 l 489 -62 l 490 -92 q 418 -140 441 -140 q 405 -136 414 -140 q 387 -131 395 -131 l 383 -131 q 378 -97 378 -112 q 393 -33 378 -64 q 405 -18 401 -24 q 408 22 408 -13 q 400 61 408 61 q 392 58 399 61 q 376 56 385 56 l 371 56 q 361 41 363 50 q 272 11 353 42 q 196 -3 233 -3 q 124 8 156 -3 q 71 39 92 18 q 42 70 49 60 q 36 114 36 80 l 37 131 l 37 136 q 143 279 37 204 q 340 369 248 353 q 378 377 364 373 q 400 392 391 382 q 410 439 410 402 q 282 603 410 559 q 271 608 278 604 q 258 612 264 612 q 149 607 193 612 q 94 579 124 579 q 72 595 72 579 q 82 624 72 595 q 129 652 92 652 q 285 675 172 675 q 426 604 376 675 q 476 403 476 534 l 476 393 q 495 380 481 385 q 509 368 509 376 l 509 367 m 375 126 q 418 229 418 184 q 404 290 418 257 q 349 322 390 322 q 218 282 269 322 l 201 282 q 97 160 97 224 q 140 84 97 115 q 240 53 183 53 q 297 66 255 53 q 375 114 339 79 l 375 126 m 346 843 q 427 771 427 795 q 416 762 427 765 q 319 798 399 776 q 176 838 239 819 q 155 829 168 835 q 138 823 142 823 l 136 823 l 138 828 q 123 838 138 833 q 115 832 120 832 q 106 835 113 832 q 96 838 100 838 l 92 838 q 45 857 94 844 l 41 879 q 60 919 41 901 q 93 937 79 937 q 118 926 100 937 q 215 886 150 926 q 332 843 304 843 l 346 843 z "},"":{"ha":606,"x_min":35,"x_max":509,"o":"m 509 367 q 499 352 509 361 q 487 335 490 342 q 481 295 484 328 q 479 200 479 263 l 482 109 q 476 96 482 101 q 475 71 475 88 q 483 7 475 45 l 490 -29 l 489 -62 l 490 -92 q 418 -140 441 -140 q 405 -136 414 -140 q 387 -131 395 -131 l 383 -131 q 378 -97 378 -112 q 393 -33 378 -64 q 405 -18 401 -24 q 408 22 408 -13 q 400 61 408 61 q 392 58 399 61 q 376 56 385 56 l 371 56 q 361 41 363 50 q 272 11 353 42 q 196 -3 233 -3 q 124 8 156 -3 q 71 39 92 18 q 42 70 49 60 q 36 114 36 80 l 37 131 l 37 136 q 143 279 37 204 q 340 369 248 353 q 378 377 364 373 q 400 392 391 382 q 410 439 410 402 q 282 603 410 559 q 271 608 278 604 q 258 612 264 612 q 149 607 193 612 q 94 579 124 579 q 72 595 72 579 q 82 624 72 595 q 129 652 92 652 q 285 675 172 675 q 426 604 376 675 q 476 403 476 534 l 476 393 q 495 380 481 385 q 509 368 509 376 l 509 367 m 375 126 q 418 229 418 184 q 404 290 418 257 q 349 322 390 322 q 218 282 269 322 l 201 282 q 97 160 97 224 q 140 84 97 115 q 240 53 183 53 q 297 66 255 53 q 375 114 339 79 l 375 126 m 113 885 q 129 868 119 868 q 152 880 137 868 l 189 906 q 218 930 210 922 q 232 958 226 938 q 243 985 238 979 q 267 1001 249 991 q 293 1011 286 1011 q 319 989 304 1011 q 461 883 368 914 q 488 851 488 874 q 441 774 488 837 l 441 751 q 383 818 416 789 l 383 831 q 333 866 366 838 q 282 903 300 894 l 268 889 q 245 901 258 901 q 207 884 232 901 q 162 856 181 867 q 138 828 144 845 q 114 792 132 812 q 93 772 96 772 q 89 775 91 772 q 85 778 86 778 q 72 760 78 778 q 62 758 70 758 q 35 808 35 758 q 37 827 35 816 q 46 818 37 818 l 50 818 q 85 852 68 845 l 83 857 q 98 885 83 865 l 113 885 z "},"":{"ha":606,"x_min":36,"x_max":509,"o":"m 509 367 q 499 352 509 361 q 487 335 490 342 q 481 295 484 328 q 479 200 479 263 l 482 109 q 476 96 482 101 q 475 71 475 88 q 483 7 475 45 l 490 -29 l 489 -62 l 490 -92 q 418 -140 441 -140 q 405 -136 414 -140 q 387 -131 395 -131 l 383 -131 q 378 -97 378 -112 q 393 -33 378 -64 q 405 -18 401 -24 q 408 22 408 -13 q 400 61 408 61 q 392 58 399 61 q 376 56 385 56 l 371 56 q 361 41 363 50 q 272 11 353 42 q 196 -3 233 -3 q 124 8 156 -3 q 71 39 92 18 q 42 70 49 60 q 36 114 36 80 l 37 131 l 37 136 q 143 279 37 204 q 340 369 248 353 q 378 377 364 373 q 400 392 391 382 q 410 439 410 402 q 282 603 410 559 q 271 608 278 604 q 258 612 264 612 q 149 607 193 612 q 94 579 124 579 q 72 595 72 579 q 82 624 72 595 q 129 652 92 652 q 285 675 172 675 q 426 604 376 675 q 476 403 476 534 l 476 393 q 495 380 481 385 q 509 368 509 376 l 509 367 m 375 126 q 418 229 418 184 q 404 290 418 257 q 349 322 390 322 q 218 282 269 322 l 201 282 q 97 160 97 224 q 140 84 97 115 q 240 53 183 53 q 297 66 255 53 q 375 114 339 79 l 375 126 m 429 884 q 448 861 434 877 q 463 833 463 844 q 447 800 463 817 q 414 783 431 783 q 356 814 384 783 q 328 861 328 845 q 354 901 328 879 l 354 914 l 368 914 l 371 924 q 390 914 382 922 q 399 896 393 904 q 429 884 405 888 m 123 901 q 136 884 123 892 q 186 823 186 868 q 171 797 186 812 q 155 772 155 783 l 150 772 q 136 768 140 772 q 60 840 60 824 q 66 866 60 846 q 92 896 73 886 q 117 907 111 907 q 123 901 120 907 z "},"":{"ha":606,"x_min":33,"x_max":509,"o":"m 509 367 q 499 352 509 361 q 487 335 490 342 q 481 295 484 328 q 479 200 479 263 l 482 109 q 476 96 482 101 q 475 71 475 88 q 483 7 475 45 l 490 -29 l 489 -62 l 490 -92 q 418 -140 441 -140 q 405 -136 414 -140 q 387 -131 395 -131 l 383 -131 q 378 -97 378 -112 q 393 -33 378 -64 q 405 -18 401 -24 q 408 22 408 -13 q 400 61 408 61 q 392 58 399 61 q 376 56 385 56 l 371 56 q 361 41 363 50 q 272 11 353 42 q 196 -3 233 -3 q 124 8 156 -3 q 71 39 92 18 q 42 70 49 60 q 36 114 36 80 l 37 131 l 37 136 q 143 279 37 204 q 340 369 248 353 q 378 377 364 373 q 400 392 391 382 q 410 439 410 402 q 282 603 410 559 q 271 608 278 604 q 258 612 264 612 q 149 607 193 612 q 94 579 124 579 q 72 595 72 579 q 82 624 72 595 q 129 652 92 652 q 285 675 172 675 q 426 604 376 675 q 476 403 476 534 l 476 393 q 495 380 481 385 q 509 368 509 376 l 509 367 m 375 126 q 418 229 418 184 q 404 290 418 257 q 349 322 390 322 q 218 282 269 322 l 201 282 q 97 160 97 224 q 140 84 97 115 q 240 53 183 53 q 297 66 255 53 q 375 114 339 79 l 375 126 m 469 929 q 488 897 488 924 l 486 861 l 486 848 q 469 822 469 842 l 465 823 q 456 817 460 823 q 447 808 451 810 q 443 810 446 810 l 429 808 q 359 771 402 771 q 324 778 342 771 q 278 811 306 785 q 239 844 250 836 l 220 844 q 163 868 185 868 l 153 867 q 122 857 125 863 q 108 844 119 852 q 94 831 97 837 l 97 814 q 96 811 97 813 q 94 808 95 810 q 79 779 87 785 q 69 770 72 774 l 69 755 q 33 794 33 766 q 37 818 33 806 l 50 818 q 81 864 65 835 q 120 910 98 893 q 182 926 142 926 q 345 854 242 926 q 378 838 366 838 q 429 921 425 838 q 469 929 450 921 z "},"":{"ha":606,"x_min":36,"x_max":509,"o":"m 509 367 q 499 352 509 361 q 487 335 490 342 q 481 295 484 328 q 479 200 479 263 l 482 109 q 476 96 482 101 q 475 71 475 88 q 483 7 475 45 l 490 -29 l 489 -62 l 490 -92 q 418 -140 441 -140 q 405 -136 414 -140 q 387 -131 395 -131 l 383 -131 q 378 -97 378 -112 q 393 -33 378 -64 q 405 -18 401 -24 q 408 22 408 -13 q 400 61 408 61 q 392 58 399 61 q 376 56 385 56 l 371 56 q 361 41 363 50 q 272 11 353 42 q 196 -3 233 -3 q 124 8 156 -3 q 71 39 92 18 q 42 70 49 60 q 36 114 36 80 l 37 131 l 37 136 q 143 279 37 204 q 340 369 248 353 q 378 377 364 373 q 400 392 391 382 q 410 439 410 402 q 282 603 410 559 q 271 608 278 604 q 258 612 264 612 q 149 607 193 612 q 94 579 124 579 q 72 595 72 579 q 82 624 72 595 q 129 652 92 652 q 285 675 172 675 q 426 604 376 675 q 476 403 476 534 l 476 393 q 495 380 481 385 q 509 368 509 376 l 509 367 m 375 126 q 418 229 418 184 q 404 290 418 257 q 349 322 390 322 q 218 282 269 322 l 201 282 q 97 160 97 224 q 140 84 97 115 q 240 53 183 53 q 297 66 255 53 q 375 114 339 79 l 375 126 m 254 971 q 304 975 281 975 q 396 913 396 975 q 343 814 396 870 q 220 758 290 758 q 149 789 172 758 q 126 828 126 819 l 126 829 q 171 909 126 871 q 193 939 193 928 q 191 947 193 942 q 218 965 201 949 q 250 981 235 981 l 254 971 m 268 814 q 310 833 294 814 q 326 885 326 853 q 313 925 326 915 q 282 935 300 935 q 234 917 271 935 q 197 872 197 899 q 217 837 197 859 q 268 814 237 814 z "},"":{"ha":602,"x_min":49,"x_max":555,"o":"m 524 103 q 555 50 555 83 q 538 5 555 26 q 528 7 534 7 q 482 -1 518 7 q 414 -9 446 -9 l 383 -8 l 367 -12 q 335 -17 347 -16 q 339 -103 339 -81 l 338 -178 q 326 -228 337 -214 q 292 -243 315 -243 q 265 -233 275 -243 q 254 -210 254 -224 q 257 -192 254 -205 q 260 -170 260 -178 l 260 -144 q 268 -86 260 -127 q 277 -20 277 -45 q 271 -2 277 -9 q 225 15 266 4 q 144 61 184 25 q 83 137 105 96 q 55 213 61 178 q 49 278 49 247 q 83 440 49 372 q 193 559 118 507 q 228 581 206 566 q 261 600 250 596 q 310 612 272 604 q 386 623 349 619 q 453 627 422 626 l 504 629 q 536 602 536 629 q 534 587 536 597 q 532 572 532 577 l 533 521 q 518 518 528 518 q 478 529 502 518 q 420 555 454 551 l 340 564 q 290 547 315 564 l 277 551 l 275 551 q 269 548 274 551 q 195 509 238 528 q 151 460 172 499 q 113 401 130 420 q 107 322 107 357 q 124 205 107 246 q 179 135 141 164 q 222 93 217 105 l 241 93 q 283 74 250 74 q 317 86 286 74 q 342 61 340 73 q 395 63 359 62 q 447 68 431 63 q 491 80 464 74 q 524 103 517 86 z "},"":{"ha":635,"x_min":49,"x_max":586,"o":"m 581 433 q 586 418 586 428 q 575 389 586 398 q 576 385 576 388 q 547 374 576 374 l 538 374 q 530 369 534 374 q 524 364 526 364 q 517 368 523 364 q 500 374 511 372 l 492 382 q 463 378 477 378 q 432 380 452 378 q 404 383 413 383 q 373 379 397 383 q 330 375 349 375 l 264 378 q 167 368 210 378 q 149 363 161 365 q 136 352 137 361 q 122 338 135 343 q 115 288 115 310 q 125 220 115 270 q 153 150 136 171 q 211 106 157 145 q 286 67 245 81 q 379 54 326 54 q 431 58 400 54 l 460 61 l 504 61 q 529 73 511 61 q 567 87 548 85 q 575 54 575 68 q 556 -1 575 22 q 511 -25 536 -25 l 497 -22 l 454 -24 l 418 -24 q 291 -2 392 -24 q 142 55 190 20 q 71 146 94 90 q 49 254 49 202 q 76 398 49 325 q 138 511 103 471 q 243 595 172 551 q 263 609 250 598 q 290 619 277 619 l 313 618 q 364 634 327 627 q 424 640 401 640 q 514 610 465 640 q 574 482 564 579 q 579 455 576 465 q 583 443 583 444 q 581 433 583 439 m 302 582 q 264 559 298 576 q 231 532 247 547 q 201 498 216 516 q 175 466 186 480 q 157 445 163 452 q 151 432 151 437 q 161 421 151 425 l 170 418 l 220 418 l 456 427 q 501 467 501 427 q 485 540 501 509 q 397 590 468 572 q 374 591 389 590 q 353 593 359 593 q 302 582 347 593 m 500 925 q 523 935 510 935 q 555 919 535 935 q 576 876 576 903 q 574 856 576 863 q 527 836 524 842 l 523 836 q 512 833 519 836 q 503 831 506 831 q 495 836 498 831 q 481 827 481 834 l 482 822 q 465 828 478 822 q 442 836 452 833 l 298 795 q 202 761 220 774 q 193 771 193 765 l 193 775 q 273 842 211 806 l 287 842 q 404 885 313 842 q 500 925 471 925 z "},"":{"ha":635,"x_min":49,"x_max":586,"o":"m 581 433 q 586 418 586 428 q 575 389 586 398 q 576 385 576 388 q 547 374 576 374 l 538 374 q 530 369 534 374 q 524 364 526 364 q 517 368 523 364 q 500 374 511 372 l 492 382 q 463 378 477 378 q 432 380 452 378 q 404 383 413 383 q 373 379 397 383 q 330 375 349 375 l 264 378 q 167 368 210 378 q 149 363 161 365 q 136 352 137 361 q 122 338 135 343 q 115 288 115 310 q 125 220 115 270 q 153 150 136 171 q 211 106 157 145 q 286 67 245 81 q 379 54 326 54 q 431 58 400 54 l 460 61 l 504 61 q 529 73 511 61 q 567 87 548 85 q 575 54 575 68 q 556 -1 575 22 q 511 -25 536 -25 l 497 -22 l 454 -24 l 418 -24 q 291 -2 392 -24 q 142 55 190 20 q 71 146 94 90 q 49 254 49 202 q 76 398 49 325 q 138 511 103 471 q 243 595 172 551 q 263 609 250 598 q 290 619 277 619 l 313 618 q 364 634 327 627 q 424 640 401 640 q 514 610 465 640 q 574 482 564 579 q 579 455 576 465 q 583 443 583 444 q 581 433 583 439 m 302 582 q 264 559 298 576 q 231 532 247 547 q 201 498 216 516 q 175 466 186 480 q 157 445 163 452 q 151 432 151 437 q 161 421 151 425 l 170 418 l 220 418 l 456 427 q 501 467 501 427 q 485 540 501 509 q 397 590 468 572 q 374 591 389 590 q 353 593 359 593 q 302 582 347 593 m 442 843 q 523 771 523 795 q 513 762 523 765 q 415 798 495 776 q 273 838 335 819 q 251 829 264 835 q 234 823 238 823 l 233 823 l 234 828 q 220 838 234 833 q 212 832 216 832 q 202 835 209 832 q 192 838 196 838 l 188 838 q 141 857 191 844 l 138 879 q 156 919 138 901 q 189 937 175 937 q 214 926 197 937 q 311 886 246 926 q 428 843 400 843 l 442 843 z "},"":{"ha":635,"x_min":49,"x_max":586,"o":"m 581 433 q 586 418 586 428 q 575 389 586 398 q 576 385 576 388 q 547 374 576 374 l 538 374 q 530 369 534 374 q 524 364 526 364 q 517 368 523 364 q 500 374 511 372 l 492 382 q 463 378 477 378 q 432 380 452 378 q 404 383 413 383 q 373 379 397 383 q 330 375 349 375 l 264 378 q 167 368 210 378 q 149 363 161 365 q 136 352 137 361 q 122 338 135 343 q 115 288 115 310 q 125 220 115 270 q 153 150 136 171 q 211 106 157 145 q 286 67 245 81 q 379 54 326 54 q 431 58 400 54 l 460 61 l 504 61 q 529 73 511 61 q 567 87 548 85 q 575 54 575 68 q 556 -1 575 22 q 511 -25 536 -25 l 497 -22 l 454 -24 l 418 -24 q 291 -2 392 -24 q 142 55 190 20 q 71 146 94 90 q 49 254 49 202 q 76 398 49 325 q 138 511 103 471 q 243 595 172 551 q 263 609 250 598 q 290 619 277 619 l 313 618 q 364 634 327 627 q 424 640 401 640 q 514 610 465 640 q 574 482 564 579 q 579 455 576 465 q 583 443 583 444 q 581 433 583 439 m 302 582 q 264 559 298 576 q 231 532 247 547 q 201 498 216 516 q 175 466 186 480 q 157 445 163 452 q 151 432 151 437 q 161 421 151 425 l 170 418 l 220 418 l 456 427 q 501 467 501 427 q 485 540 501 509 q 397 590 468 572 q 374 591 389 590 q 353 593 359 593 q 302 582 347 593 m 209 885 q 225 868 215 868 q 248 880 233 868 l 285 906 q 314 930 307 922 q 328 958 322 938 q 340 985 334 979 q 363 1001 345 991 q 389 1011 382 1011 q 416 989 401 1011 q 557 883 464 914 q 584 851 584 874 q 538 774 584 837 l 538 751 q 479 818 513 789 l 479 831 q 429 866 462 838 q 378 903 396 894 l 364 889 q 342 901 354 901 q 303 884 328 901 q 259 856 277 867 q 234 828 240 845 q 210 792 229 812 q 189 772 192 772 q 185 775 187 772 q 181 778 182 778 q 168 760 174 778 q 159 758 166 758 q 131 808 131 758 q 134 827 131 816 q 142 818 134 818 l 146 818 q 181 852 165 845 l 180 857 q 195 885 180 865 l 209 885 z "},"":{"ha":635,"x_min":49,"x_max":586,"o":"m 581 433 q 586 418 586 428 q 575 389 586 398 q 576 385 576 388 q 547 374 576 374 l 538 374 q 530 369 534 374 q 524 364 526 364 q 517 368 523 364 q 500 374 511 372 l 492 382 q 463 378 477 378 q 432 380 452 378 q 404 383 413 383 q 373 379 397 383 q 330 375 349 375 l 264 378 q 167 368 210 378 q 149 363 161 365 q 136 352 137 361 q 122 338 135 343 q 115 288 115 310 q 125 220 115 270 q 153 150 136 171 q 211 106 157 145 q 286 67 245 81 q 379 54 326 54 q 431 58 400 54 l 460 61 l 504 61 q 529 73 511 61 q 567 87 548 85 q 575 54 575 68 q 556 -1 575 22 q 511 -25 536 -25 l 497 -22 l 454 -24 l 418 -24 q 291 -2 392 -24 q 142 55 190 20 q 71 146 94 90 q 49 254 49 202 q 76 398 49 325 q 138 511 103 471 q 243 595 172 551 q 263 609 250 598 q 290 619 277 619 l 313 618 q 364 634 327 627 q 424 640 401 640 q 514 610 465 640 q 574 482 564 579 q 579 455 576 465 q 583 443 583 444 q 581 433 583 439 m 302 582 q 264 559 298 576 q 231 532 247 547 q 201 498 216 516 q 175 466 186 480 q 157 445 163 452 q 151 432 151 437 q 161 421 151 425 l 170 418 l 220 418 l 456 427 q 501 467 501 427 q 485 540 501 509 q 397 590 468 572 q 374 591 389 590 q 353 593 359 593 q 302 582 347 593 m 526 884 q 545 861 530 877 q 559 833 559 844 q 543 800 559 817 q 510 783 527 783 q 452 814 480 783 q 424 861 424 845 q 450 901 424 879 l 450 914 l 465 914 l 467 924 q 486 914 479 922 q 495 896 490 904 q 526 884 501 888 m 220 901 q 233 884 220 892 q 282 823 282 868 q 267 797 282 812 q 252 772 252 783 l 246 772 q 233 768 237 772 q 156 840 156 824 q 163 866 156 846 q 189 896 170 886 q 213 907 208 907 q 220 901 216 907 z "},"":{"ha":357,"x_min":5,"x_max":388,"o":"m 249 4 q 220 -12 249 0 q 183 -24 191 -24 l 179 -24 q 162 -26 172 -24 q 147 -29 151 -29 q 124 -20 134 -29 q 114 -5 114 -11 q 119 39 114 9 q 136 83 125 69 q 142 243 142 126 l 136 489 l 138 532 q 126 557 138 538 q 115 602 115 575 q 124 624 115 617 q 163 643 132 630 l 201 660 q 210 661 204 661 q 227 608 227 661 q 216 453 227 578 q 205 250 205 328 q 208 167 205 206 q 213 108 210 128 q 225 71 216 87 q 244 7 244 35 q 249 4 247 5 m 313 925 q 335 935 322 935 q 368 919 347 935 q 388 876 388 903 q 386 856 388 863 q 339 836 336 842 l 335 836 q 325 833 331 836 q 315 831 318 831 q 307 836 311 831 q 293 827 293 834 l 294 822 q 277 828 290 822 q 254 836 264 833 l 110 795 q 14 761 32 774 q 5 771 5 765 l 5 775 q 85 842 23 806 l 99 842 q 216 885 125 842 q 313 925 283 925 z "},"":{"ha":357,"x_min":-50,"x_max":335,"o":"m 249 4 q 220 -12 249 0 q 183 -24 191 -24 l 179 -24 q 162 -26 172 -24 q 147 -29 151 -29 q 124 -20 134 -29 q 114 -5 114 -11 q 119 39 114 9 q 136 83 125 69 q 142 243 142 126 l 136 489 l 138 532 q 126 557 138 538 q 115 602 115 575 q 124 624 115 617 q 163 643 132 630 l 201 660 q 210 661 204 661 q 227 608 227 661 q 216 453 227 578 q 205 250 205 328 q 208 167 205 206 q 213 108 210 128 q 225 71 216 87 q 244 7 244 35 q 249 4 247 5 m 254 843 q 335 771 335 795 q 325 762 335 765 q 227 798 307 776 q 85 838 147 819 q 63 829 76 835 q 46 823 50 823 l 45 823 l 46 828 q 32 838 46 833 q 24 832 28 832 q 15 835 21 832 q 4 838 8 838 l 0 838 q -47 857 3 844 l -50 879 q -32 919 -50 901 q 1 937 -13 937 q 26 926 9 937 q 123 886 58 926 q 240 843 212 843 l 254 843 z "},"":{"ha":357,"x_min":-57,"x_max":396,"o":"m 249 4 q 220 -12 249 0 q 183 -24 191 -24 l 179 -24 q 162 -26 172 -24 q 147 -29 151 -29 q 124 -20 134 -29 q 114 -5 114 -11 q 119 39 114 9 q 136 83 125 69 q 142 243 142 126 l 136 489 l 138 532 q 126 557 138 538 q 115 602 115 575 q 124 624 115 617 q 163 643 132 630 l 201 660 q 210 661 204 661 q 227 608 227 661 q 216 453 227 578 q 205 250 205 328 q 208 167 205 206 q 213 108 210 128 q 225 71 216 87 q 244 7 244 35 q 249 4 247 5 m 21 885 q 37 868 27 868 q 60 880 45 868 l 97 906 q 126 930 119 922 q 140 958 134 938 q 152 985 146 979 q 176 1001 157 991 q 201 1011 194 1011 q 228 989 213 1011 q 370 883 276 914 q 396 851 396 874 q 350 774 396 837 l 350 751 q 292 818 325 789 l 292 831 q 241 866 274 838 q 191 903 208 894 l 176 889 q 154 901 166 901 q 115 884 140 901 q 71 856 90 867 q 46 828 52 845 q 22 792 41 812 q 1 772 4 772 q -3 775 -1 772 q -7 778 -5 778 q -20 760 -14 778 q -29 758 -22 758 q -57 808 -57 758 q -54 827 -57 816 q -45 818 -54 818 l -41 818 q -7 852 -23 845 l -8 857 q 7 885 -8 865 l 21 885 z "},"":{"ha":357,"x_min":-32,"x_max":371,"o":"m 249 4 q 220 -12 249 0 q 183 -24 191 -24 l 179 -24 q 162 -26 172 -24 q 147 -29 151 -29 q 124 -20 134 -29 q 114 -5 114 -11 q 119 39 114 9 q 136 83 125 69 q 142 243 142 126 l 136 489 l 138 532 q 126 557 138 538 q 115 602 115 575 q 124 624 115 617 q 163 643 132 630 l 201 660 q 210 661 204 661 q 227 608 227 661 q 216 453 227 578 q 205 250 205 328 q 208 167 205 206 q 213 108 210 128 q 225 71 216 87 q 244 7 244 35 q 249 4 247 5 m 338 884 q 357 861 342 877 q 371 833 371 844 q 355 800 371 817 q 322 783 339 783 q 264 814 292 783 q 236 861 236 845 q 262 901 236 879 l 262 914 l 277 914 l 279 924 q 298 914 291 922 q 308 896 302 904 q 338 884 313 888 m 32 901 q 45 884 32 892 q 94 823 94 868 q 79 797 94 812 q 64 772 64 783 l 58 772 q 45 768 49 772 q -32 840 -32 824 q -25 866 -32 846 q 1 896 -18 886 q 25 907 20 907 q 32 901 28 907 z "},"":{"ha":789,"x_min":111,"x_max":676,"o":"m 418 589 q 492 596 462 596 q 676 366 676 596 q 634 69 676 237 q 615 -28 615 -3 q 618 -39 615 -33 q 568 -81 610 -81 q 524 -67 544 -81 q 504 -39 504 -54 q 532 17 504 -16 q 585 146 561 50 q 608 340 608 243 q 444 541 608 541 q 323 514 380 541 q 258 456 267 488 q 240 442 252 449 q 228 432 229 437 q 220 330 226 428 q 215 180 215 231 l 215 149 q 223 102 215 123 q 232 78 232 81 l 231 54 q 223 19 231 32 q 203 5 215 5 l 200 5 l 196 -4 q 184 -1 188 -1 q 160 -12 175 -1 l 157 -12 q 134 5 149 -12 q 111 22 111 5 q 121 47 111 37 q 141 137 130 47 q 153 363 153 226 q 123 566 153 541 l 122 578 q 152 612 122 604 q 174 631 164 616 q 195 646 184 646 l 196 646 q 219 652 210 648 q 231 657 229 657 q 240 631 240 657 q 232 584 240 610 q 224 551 224 558 q 231 534 224 541 q 249 526 238 526 l 253 526 q 273 545 272 545 l 275 545 q 374 571 340 545 q 389 573 380 572 q 400 575 397 575 q 418 589 416 585 m 615 929 q 633 897 633 924 l 632 861 l 632 848 q 615 822 615 842 l 611 823 q 602 817 606 823 q 593 808 597 810 q 589 810 592 810 l 575 808 q 505 771 548 771 q 470 778 488 771 q 424 811 452 785 q 385 844 395 836 l 366 844 q 309 868 331 868 l 298 867 q 268 857 271 863 q 254 844 265 852 q 240 831 243 837 l 243 814 q 242 811 243 813 q 240 808 241 810 q 225 779 233 785 q 215 770 218 774 l 215 755 q 179 794 179 766 q 183 818 179 806 l 196 818 q 227 864 211 835 q 266 910 243 893 q 328 926 288 926 q 490 854 388 926 q 524 838 511 838 q 575 921 571 838 q 615 929 596 921 z "},"":{"ha":812,"x_min":49,"x_max":764,"o":"m 87 418 q 468 619 193 619 q 544 614 511 619 q 606 599 578 610 q 659 570 635 588 q 706 524 684 551 q 751 459 729 497 q 764 371 764 439 q 658 106 764 216 q 397 -3 553 -3 l 392 -3 q 357 4 360 4 q 353 3 354 4 q 311 -7 347 -7 q 198 21 263 -7 q 91 105 132 48 q 49 225 49 162 q 51 274 49 250 q 59 320 54 298 q 71 361 64 342 l 87 400 l 87 418 m 685 307 l 685 325 q 614 506 685 437 q 427 575 543 575 q 378 569 401 575 q 353 562 356 564 q 341 548 349 560 q 329 533 332 535 q 318 530 325 530 l 283 534 q 273 522 276 534 q 176 446 222 518 q 131 294 131 373 q 138 223 131 277 q 180 133 144 168 q 266 72 215 97 q 347 46 316 46 q 363 48 355 46 l 370 50 l 397 50 q 521 78 488 50 q 525 81 524 81 q 538 77 529 81 q 649 212 612 141 q 685 307 685 283 m 550 925 q 572 935 559 935 q 605 919 585 935 q 625 876 625 903 q 623 856 625 863 q 576 836 574 842 l 572 836 q 562 833 568 836 q 553 831 555 831 q 545 836 548 831 q 530 827 530 834 l 532 822 q 515 828 528 822 q 492 836 502 833 l 347 795 q 252 761 269 774 q 243 771 243 765 l 243 775 q 322 842 260 806 l 336 842 q 453 885 362 842 q 550 925 521 925 z "},"":{"ha":812,"x_min":49,"x_max":764,"o":"m 87 418 q 468 619 193 619 q 544 614 511 619 q 606 599 578 610 q 659 570 635 588 q 706 524 684 551 q 751 459 729 497 q 764 371 764 439 q 658 106 764 216 q 397 -3 553 -3 l 392 -3 q 357 4 360 4 q 353 3 354 4 q 311 -7 347 -7 q 198 21 263 -7 q 91 105 132 48 q 49 225 49 162 q 51 274 49 250 q 59 320 54 298 q 71 361 64 342 l 87 400 l 87 418 m 685 307 l 685 325 q 614 506 685 437 q 427 575 543 575 q 378 569 401 575 q 353 562 356 564 q 341 548 349 560 q 329 533 332 535 q 318 530 325 530 l 283 534 q 273 522 276 534 q 176 446 222 518 q 131 294 131 373 q 138 223 131 277 q 180 133 144 168 q 266 72 215 97 q 347 46 316 46 q 363 48 355 46 l 370 50 l 397 50 q 521 78 488 50 q 525 81 524 81 q 538 77 529 81 q 649 212 612 141 q 685 307 685 283 m 492 843 q 572 771 572 795 q 562 762 572 765 q 465 798 545 776 q 322 838 385 819 q 300 829 313 835 q 283 823 288 823 l 282 823 l 283 828 q 269 838 283 833 q 261 832 266 832 q 252 835 258 832 q 241 838 245 838 l 237 838 q 191 857 240 844 l 187 879 q 206 919 187 901 q 239 937 224 937 q 264 926 246 937 q 361 886 296 926 q 477 843 450 843 l 492 843 z "},"":{"ha":812,"x_min":49,"x_max":764,"o":"m 87 418 q 468 619 193 619 q 544 614 511 619 q 606 599 578 610 q 659 570 635 588 q 706 524 684 551 q 751 459 729 497 q 764 371 764 439 q 658 106 764 216 q 397 -3 553 -3 l 392 -3 q 357 4 360 4 q 353 3 354 4 q 311 -7 347 -7 q 198 21 263 -7 q 91 105 132 48 q 49 225 49 162 q 51 274 49 250 q 59 320 54 298 q 71 361 64 342 l 87 400 l 87 418 m 685 307 l 685 325 q 614 506 685 437 q 427 575 543 575 q 378 569 401 575 q 353 562 356 564 q 341 548 349 560 q 329 533 332 535 q 318 530 325 530 l 283 534 q 273 522 276 534 q 176 446 222 518 q 131 294 131 373 q 138 223 131 277 q 180 133 144 168 q 266 72 215 97 q 347 46 316 46 q 363 48 355 46 l 370 50 l 397 50 q 521 78 488 50 q 525 81 524 81 q 538 77 529 81 q 649 212 612 141 q 685 307 685 283 m 258 885 q 275 868 264 868 q 298 880 283 868 l 334 906 q 364 930 356 922 q 378 958 372 938 q 389 985 384 979 q 413 1001 395 991 q 439 1011 431 1011 q 465 989 450 1011 q 607 883 513 914 q 633 851 633 874 q 587 774 633 837 l 587 751 q 529 818 562 789 l 529 831 q 478 866 511 838 q 428 903 446 894 l 414 889 q 391 901 404 901 q 352 884 378 901 q 308 856 327 867 q 284 828 290 845 q 260 792 278 812 q 239 772 241 772 q 234 775 237 772 q 231 778 232 778 q 218 760 224 778 q 208 758 216 758 q 180 808 180 758 q 183 827 180 816 q 192 818 183 818 l 196 818 q 231 852 214 845 l 229 857 q 244 885 229 865 l 258 885 z "},"":{"ha":812,"x_min":49,"x_max":764,"o":"m 87 418 q 468 619 193 619 q 544 614 511 619 q 606 599 578 610 q 659 570 635 588 q 706 524 684 551 q 751 459 729 497 q 764 371 764 439 q 658 106 764 216 q 397 -3 553 -3 l 392 -3 q 357 4 360 4 q 353 3 354 4 q 311 -7 347 -7 q 198 21 263 -7 q 91 105 132 48 q 49 225 49 162 q 51 274 49 250 q 59 320 54 298 q 71 361 64 342 l 87 400 l 87 418 m 685 307 l 685 325 q 614 506 685 437 q 427 575 543 575 q 378 569 401 575 q 353 562 356 564 q 341 548 349 560 q 329 533 332 535 q 318 530 325 530 l 283 534 q 273 522 276 534 q 176 446 222 518 q 131 294 131 373 q 138 223 131 277 q 180 133 144 168 q 266 72 215 97 q 347 46 316 46 q 363 48 355 46 l 370 50 l 397 50 q 521 78 488 50 q 525 81 524 81 q 538 77 529 81 q 649 212 612 141 q 685 307 685 283 m 575 884 q 594 861 580 877 q 608 833 608 844 q 592 800 608 817 q 559 783 576 783 q 502 814 530 783 q 473 861 473 845 q 500 901 473 879 l 500 914 l 514 914 l 517 924 q 536 914 528 922 q 545 896 539 904 q 575 884 551 888 m 269 901 q 282 884 269 892 q 332 823 332 868 q 316 797 332 812 q 301 772 301 783 l 296 772 q 282 768 286 772 q 205 840 205 824 q 212 866 205 846 q 238 896 219 886 q 262 907 257 907 q 269 901 266 907 z "},"":{"ha":812,"x_min":49,"x_max":764,"o":"m 87 418 q 468 619 193 619 q 544 614 511 619 q 606 599 578 610 q 659 570 635 588 q 706 524 684 551 q 751 459 729 497 q 764 371 764 439 q 658 106 764 216 q 397 -3 553 -3 l 392 -3 q 357 4 360 4 q 353 3 354 4 q 311 -7 347 -7 q 198 21 263 -7 q 91 105 132 48 q 49 225 49 162 q 51 274 49 250 q 59 320 54 298 q 71 361 64 342 l 87 400 l 87 418 m 685 307 l 685 325 q 614 506 685 437 q 427 575 543 575 q 378 569 401 575 q 353 562 356 564 q 341 548 349 560 q 329 533 332 535 q 318 530 325 530 l 283 534 q 273 522 276 534 q 176 446 222 518 q 131 294 131 373 q 138 223 131 277 q 180 133 144 168 q 266 72 215 97 q 347 46 316 46 q 363 48 355 46 l 370 50 l 397 50 q 521 78 488 50 q 525 81 524 81 q 538 77 529 81 q 649 212 612 141 q 685 307 685 283 m 615 929 q 633 897 633 924 l 632 861 l 632 848 q 615 822 615 842 l 611 823 q 602 817 606 823 q 593 808 597 810 q 589 810 592 810 l 575 808 q 505 771 548 771 q 470 778 488 771 q 424 811 452 785 q 385 844 395 836 l 366 844 q 309 868 331 868 l 298 867 q 268 857 271 863 q 254 844 265 852 q 240 831 243 837 l 243 814 q 242 811 243 813 q 240 808 241 810 q 225 779 233 785 q 215 770 218 774 l 215 755 q 179 794 179 766 q 183 818 179 806 l 196 818 q 227 864 211 835 q 266 910 243 893 q 328 926 288 926 q 490 854 388 926 q 524 838 511 838 q 575 921 571 838 q 615 929 596 921 z "},"":{"ha":779,"x_min":113,"x_max":668,"o":"m 575 621 q 608 634 587 629 l 650 643 l 654 643 q 668 608 668 643 l 646 535 q 630 465 635 498 q 625 401 625 432 q 630 335 625 370 q 654 275 635 300 q 656 267 656 272 q 645 243 656 260 q 633 199 633 227 q 639 150 633 184 q 645 109 645 117 q 655 94 646 101 q 665 83 665 87 q 654 74 665 78 q 652 33 652 41 q 659 5 652 8 q 589 -14 612 -14 q 561 9 561 -14 q 566 29 561 16 q 564 40 564 33 q 567 60 564 53 q 571 75 571 68 q 567 113 571 89 q 542 138 563 138 q 484 99 526 138 q 370 17 419 42 q 342 3 349 9 q 241 -12 245 -12 q 198 7 224 -12 q 154 45 171 26 q 125 104 138 64 q 113 193 113 144 q 130 343 113 215 q 156 527 146 471 q 165 585 165 582 q 161 602 165 590 l 155 612 l 155 615 q 162 622 155 620 q 188 633 169 624 q 218 643 208 643 q 238 638 223 643 q 262 633 252 633 l 267 633 q 283 612 279 623 l 269 596 q 220 492 231 561 l 197 346 q 184 237 184 270 q 221 98 184 142 q 294 54 258 54 l 306 56 l 326 54 q 366 70 336 54 q 454 124 396 85 q 525 183 512 164 q 547 230 537 201 q 561 296 556 259 q 566 379 566 334 q 561 533 566 493 q 543 581 555 572 q 534 616 534 587 q 550 624 545 621 q 558 627 554 627 q 575 621 566 627 m 556 925 q 578 935 566 935 q 611 919 591 935 q 631 876 631 903 q 629 856 631 863 q 583 836 580 842 l 578 836 q 568 833 574 836 q 559 831 562 831 q 551 836 554 831 q 536 827 536 834 l 538 822 q 521 828 534 822 q 498 836 508 833 l 353 795 q 258 761 275 774 q 249 771 249 765 l 249 775 q 328 842 267 806 l 342 842 q 459 885 368 842 q 556 925 527 925 z "},"":{"ha":779,"x_min":113,"x_max":668,"o":"m 575 621 q 608 634 587 629 l 650 643 l 654 643 q 668 608 668 643 l 646 535 q 630 465 635 498 q 625 401 625 432 q 630 335 625 370 q 654 275 635 300 q 656 267 656 272 q 645 243 656 260 q 633 199 633 227 q 639 150 633 184 q 645 109 645 117 q 655 94 646 101 q 665 83 665 87 q 654 74 665 78 q 652 33 652 41 q 659 5 652 8 q 589 -14 612 -14 q 561 9 561 -14 q 566 29 561 16 q 564 40 564 33 q 567 60 564 53 q 571 75 571 68 q 567 113 571 89 q 542 138 563 138 q 484 99 526 138 q 370 17 419 42 q 342 3 349 9 q 241 -12 245 -12 q 198 7 224 -12 q 154 45 171 26 q 125 104 138 64 q 113 193 113 144 q 130 343 113 215 q 156 527 146 471 q 165 585 165 582 q 161 602 165 590 l 155 612 l 155 615 q 162 622 155 620 q 188 633 169 624 q 218 643 208 643 q 238 638 223 643 q 262 633 252 633 l 267 633 q 283 612 279 623 l 269 596 q 220 492 231 561 l 197 346 q 184 237 184 270 q 221 98 184 142 q 294 54 258 54 l 306 56 l 326 54 q 366 70 336 54 q 454 124 396 85 q 525 183 512 164 q 547 230 537 201 q 561 296 556 259 q 566 379 566 334 q 561 533 566 493 q 543 581 555 572 q 534 616 534 587 q 550 624 545 621 q 558 627 554 627 q 575 621 566 627 m 498 843 q 578 771 578 795 q 568 762 578 765 q 471 798 551 776 q 328 838 391 819 q 307 829 319 835 q 290 823 294 823 l 288 823 l 290 828 q 275 838 290 833 q 267 832 272 832 q 258 835 264 832 q 248 838 252 838 l 243 838 q 197 857 246 844 l 193 879 q 212 919 193 901 q 245 937 231 937 q 270 926 252 937 q 367 886 302 926 q 484 843 456 843 l 498 843 z "},"":{"ha":779,"x_min":113,"x_max":668,"o":"m 575 621 q 608 634 587 629 l 650 643 l 654 643 q 668 608 668 643 l 646 535 q 630 465 635 498 q 625 401 625 432 q 630 335 625 370 q 654 275 635 300 q 656 267 656 272 q 645 243 656 260 q 633 199 633 227 q 639 150 633 184 q 645 109 645 117 q 655 94 646 101 q 665 83 665 87 q 654 74 665 78 q 652 33 652 41 q 659 5 652 8 q 589 -14 612 -14 q 561 9 561 -14 q 566 29 561 16 q 564 40 564 33 q 567 60 564 53 q 571 75 571 68 q 567 113 571 89 q 542 138 563 138 q 484 99 526 138 q 370 17 419 42 q 342 3 349 9 q 241 -12 245 -12 q 198 7 224 -12 q 154 45 171 26 q 125 104 138 64 q 113 193 113 144 q 130 343 113 215 q 156 527 146 471 q 165 585 165 582 q 161 602 165 590 l 155 612 l 155 615 q 162 622 155 620 q 188 633 169 624 q 218 643 208 643 q 238 638 223 643 q 262 633 252 633 l 267 633 q 283 612 279 623 l 269 596 q 220 492 231 561 l 197 346 q 184 237 184 270 q 221 98 184 142 q 294 54 258 54 l 306 56 l 326 54 q 366 70 336 54 q 454 124 396 85 q 525 183 512 164 q 547 230 537 201 q 561 296 556 259 q 566 379 566 334 q 561 533 566 493 q 543 581 555 572 q 534 616 534 587 q 550 624 545 621 q 558 627 554 627 q 575 621 566 627 m 264 885 q 280 868 270 868 q 303 880 288 868 l 340 906 q 369 930 361 922 q 383 958 377 938 q 395 985 389 979 q 418 1001 400 991 q 444 1011 437 1011 q 471 989 456 1011 q 612 883 519 914 q 639 851 639 874 q 593 774 639 837 l 593 751 q 534 818 568 789 l 534 831 q 484 866 517 838 q 433 903 451 894 l 419 889 q 397 901 409 901 q 358 884 383 901 q 314 856 332 867 q 289 828 295 845 q 265 792 283 812 q 244 772 247 772 q 240 775 242 772 q 236 778 237 778 q 223 760 229 778 q 214 758 221 758 q 186 808 186 758 q 189 827 186 816 q 197 818 189 818 l 201 818 q 236 852 220 845 l 235 857 q 250 885 235 865 l 264 885 z "},"":{"ha":779,"x_min":113,"x_max":668,"o":"m 575 621 q 608 634 587 629 l 650 643 l 654 643 q 668 608 668 643 l 646 535 q 630 465 635 498 q 625 401 625 432 q 630 335 625 370 q 654 275 635 300 q 656 267 656 272 q 645 243 656 260 q 633 199 633 227 q 639 150 633 184 q 645 109 645 117 q 655 94 646 101 q 665 83 665 87 q 654 74 665 78 q 652 33 652 41 q 659 5 652 8 q 589 -14 612 -14 q 561 9 561 -14 q 566 29 561 16 q 564 40 564 33 q 567 60 564 53 q 571 75 571 68 q 567 113 571 89 q 542 138 563 138 q 484 99 526 138 q 370 17 419 42 q 342 3 349 9 q 241 -12 245 -12 q 198 7 224 -12 q 154 45 171 26 q 125 104 138 64 q 113 193 113 144 q 130 343 113 215 q 156 527 146 471 q 165 585 165 582 q 161 602 165 590 l 155 612 l 155 615 q 162 622 155 620 q 188 633 169 624 q 218 643 208 643 q 238 638 223 643 q 262 633 252 633 l 267 633 q 283 612 279 623 l 269 596 q 220 492 231 561 l 197 346 q 184 237 184 270 q 221 98 184 142 q 294 54 258 54 l 306 56 l 326 54 q 366 70 336 54 q 454 124 396 85 q 525 183 512 164 q 547 230 537 201 q 561 296 556 259 q 566 379 566 334 q 561 533 566 493 q 543 581 555 572 q 534 616 534 587 q 550 624 545 621 q 558 627 554 627 q 575 621 566 627 m 581 884 q 600 861 586 877 q 614 833 614 844 q 598 800 614 817 q 566 783 583 783 q 508 814 536 783 q 479 861 479 845 q 506 901 479 879 l 506 914 l 520 914 l 523 924 q 542 914 534 922 q 551 896 545 904 q 581 884 557 888 m 275 901 q 288 884 275 892 q 338 823 338 868 q 322 797 338 812 q 307 772 307 783 l 302 772 q 288 768 292 772 q 212 840 212 824 q 218 866 212 846 q 244 896 225 886 q 269 907 263 907 q 275 901 272 907 z "},"":{"ha":694,"x_min":82,"x_max":611,"o":"m 446 616 q 473 611 459 611 l 564 611 q 575 614 572 614 q 606 610 601 614 q 611 597 611 607 q 607 572 611 591 q 603 541 603 553 l 597 541 q 568 550 587 541 q 536 559 548 559 l 533 559 q 479 556 507 559 q 446 553 452 553 q 418 555 428 553 q 408 558 409 558 q 400 545 405 558 q 389 526 395 532 l 386 -25 l 387 -36 q 382 -50 387 -47 q 389 -62 389 -59 q 364 -79 389 -79 q 387 -118 364 -86 q 383 -139 383 -125 l 383 -147 q 364 -164 383 -162 q 376 -205 376 -186 l 375 -205 q 364 -197 369 -205 q 340 -212 357 -206 q 301 -191 301 -204 q 302 -183 301 -186 q 309 -176 309 -182 q 303 -161 309 -174 q 297 -118 297 -147 q 306 -86 297 -113 q 315 117 315 -12 l 315 248 l 314 301 l 315 353 l 311 435 q 306 543 307 535 l 300 549 l 304 557 q 280 551 288 554 l 261 545 q 243 555 248 545 q 193 545 208 545 l 178 545 q 144 542 165 545 q 117 539 124 539 q 92 549 101 539 q 82 575 82 559 q 89 607 82 587 q 134 603 111 606 q 161 600 157 600 q 210 606 171 600 q 286 612 250 612 q 311 637 311 612 l 307 739 l 307 777 q 298 822 298 802 q 300 837 298 828 q 302 850 302 846 q 296 864 302 857 q 303 911 296 897 q 318 937 311 926 q 344 957 326 948 q 370 966 362 966 q 392 955 383 966 q 401 922 401 943 l 401 916 q 396 899 396 908 l 395 865 q 387 811 387 846 l 390 699 q 389 628 390 653 l 404 608 l 435 607 l 446 616 z "},"":{"ha":353,"x_min":41,"x_max":310,"o":"m 170 876 q 216 879 201 879 q 310 821 310 879 q 257 719 310 775 q 138 663 205 663 q 68 690 94 663 q 41 733 41 718 l 41 737 q 85 812 41 778 q 109 842 109 831 q 106 851 109 846 q 133 869 116 853 q 164 885 149 884 l 170 876 m 183 720 q 225 739 209 720 q 241 790 241 759 q 196 840 241 840 q 148 822 184 840 q 111 778 111 803 q 132 742 111 764 q 183 720 152 720 z "},"":{"ha":644,"x_min":82,"x_max":624,"o":"m 624 631 q 603 611 603 622 l 603 596 q 579 573 583 584 q 564 553 576 563 q 562 550 564 550 q 554 559 562 550 q 533 576 546 569 q 525 591 533 583 l 515 586 q 469 611 497 611 l 461 611 l 452 621 q 416 623 438 623 q 376 612 385 623 q 357 497 368 601 q 343 195 346 393 q 364 175 350 182 q 387 165 378 175 l 422 165 l 427 175 l 441 175 l 447 165 l 452 165 q 471 170 459 165 l 481 175 l 529 187 l 533 187 q 547 174 547 187 l 541 142 q 515 106 539 128 q 481 75 490 85 l 475 75 q 357 96 449 75 q 349 98 354 98 q 339 96 343 98 l 338 83 l 339 32 l 339 8 l 350 -1 q 331 -110 339 -89 q 296 -139 322 -132 l 296 -149 l 286 -149 q 261 -118 286 -118 q 272 -97 272 -105 q 261 -85 272 -88 q 288 9 288 -28 l 286 32 q 296 43 286 39 q 297 71 297 52 q 288 113 297 101 q 254 132 279 124 q 145 210 200 149 q 90 311 90 272 l 90 313 q 82 371 82 342 q 130 503 82 444 q 196 586 178 562 q 207 582 201 585 q 228 607 216 593 q 259 620 239 609 q 296 635 279 631 q 322 652 313 639 q 332 696 332 665 q 328 739 332 711 q 323 781 323 768 q 328 800 323 791 q 339 831 332 809 l 353 831 q 390 850 378 850 q 405 836 401 850 q 408 815 408 822 q 394 757 408 794 q 380 703 380 720 q 399 671 380 671 q 441 690 420 671 q 447 681 441 681 l 545 681 l 549 690 q 601 670 583 684 q 618 650 618 656 l 618 647 q 621 637 618 641 q 624 632 624 633 l 624 631 m 319 586 l 304 591 l 232 538 q 179 474 199 515 q 160 392 160 434 q 296 200 160 282 q 319 586 311 259 z "},"":{"ha":794,"x_min":46,"x_max":781,"o":"m 781 884 q 778 863 778 867 q 756 826 778 846 q 718 807 734 807 q 669 827 700 807 q 610 857 639 846 q 533 873 581 867 q 471 880 484 880 q 424 876 449 880 q 393 872 399 872 l 379 872 q 325 854 361 872 q 259 787 288 837 q 231 654 231 736 q 248 508 231 551 q 309 465 264 465 l 361 467 l 410 465 q 540 471 500 465 q 594 485 580 477 q 611 493 609 493 q 620 490 614 493 q 629 488 626 488 q 637 494 634 488 q 643 501 641 501 l 644 501 q 663 484 648 494 q 677 467 677 473 l 677 460 q 654 431 677 431 q 639 433 650 431 q 624 412 635 424 q 608 422 615 417 l 596 419 q 558 435 583 432 q 482 437 534 437 q 271 429 398 437 q 292 384 280 397 q 330 371 304 371 q 362 373 341 371 q 393 375 382 375 l 408 376 q 456 371 425 376 l 486 366 q 546 376 507 366 q 603 387 585 387 q 646 359 646 387 q 638 338 646 347 q 621 329 631 329 l 606 330 q 590 315 591 330 q 321 340 481 340 l 321 334 q 353 256 321 300 q 386 186 386 212 l 385 163 q 372 141 385 152 q 359 123 359 130 l 359 119 q 346 125 350 119 q 336 113 336 118 l 336 110 q 325 111 332 111 l 300 110 q 286 114 294 110 q 271 144 277 136 q 267 168 271 155 l 262 178 l 262 199 q 239 299 254 260 q 217 340 224 338 q 187 342 211 342 q 123 310 137 342 l 123 325 q 103 336 117 338 q 85 334 90 334 l 77 335 q 69 350 69 342 l 69 354 q 102 370 83 370 q 110 389 107 376 q 115 379 110 382 q 136 385 129 385 q 160 380 145 385 q 179 376 174 376 q 192 379 184 376 q 199 399 199 393 q 189 408 199 408 l 153 410 q 135 408 143 410 q 127 421 134 415 q 119 429 121 427 q 106 422 115 422 q 98 436 98 429 q 101 447 98 439 q 103 460 103 454 l 102 467 l 115 467 q 140 475 125 471 q 160 483 155 479 q 165 500 165 488 l 161 614 q 190 775 161 711 q 263 871 218 840 q 326 901 308 901 l 334 901 q 355 916 339 901 q 395 930 372 930 l 433 928 q 449 942 441 936 l 453 933 l 484 936 q 491 932 486 936 q 501 929 496 929 q 530 937 512 929 q 672 916 576 928 q 781 884 767 903 m 766 56 q 750 -18 766 1 q 336 16 556 16 q 106 7 224 16 q 107 1 107 5 q 102 -8 107 -5 q 78 12 99 12 q 52 7 64 12 q 46 21 46 11 l 46 28 q 159 83 113 86 l 306 71 l 323 72 q 350 65 334 72 q 357 75 351 70 q 386 66 363 66 q 445 72 396 66 q 543 75 494 78 l 614 71 q 624 81 622 75 q 692 86 686 86 q 708 85 705 86 q 724 87 713 87 q 766 71 751 87 l 766 56 z "},"":{"ha":833,"x_min":86,"x_max":746,"o":"m 408 720 q 414 708 414 714 q 401 689 414 701 q 389 664 389 677 q 430 605 389 648 q 567 513 471 562 q 595 510 578 513 q 676 442 612 507 q 724 374 712 406 q 746 289 746 317 q 713 132 746 199 q 575 8 681 64 q 519 -32 530 -16 q 413 -139 469 -106 q 279 -200 357 -172 q 264 -199 275 -199 q 249 -200 254 -199 q 135 -221 220 -221 q 97 -200 109 -221 q 86 -138 86 -179 q 96 -114 86 -133 q 104 -113 98 -113 q 138 -134 121 -113 q 191 -143 173 -143 q 295 -129 241 -143 q 385 -93 349 -115 q 442 -39 420 -71 q 474 18 465 -7 q 484 77 484 42 q 443 194 484 138 q 332 286 403 250 q 157 404 198 354 q 117 519 117 454 q 165 656 117 595 q 296 743 214 717 l 311 757 q 318 765 315 762 q 331 777 324 771 l 347 803 q 368 830 356 817 q 391 853 378 842 q 420 873 404 865 q 452 891 435 883 q 489 905 484 905 l 510 905 q 525 921 512 907 q 593 943 563 928 l 603 932 q 642 936 622 936 l 656 936 q 699 931 675 936 q 722 893 722 926 q 712 850 722 869 q 690 831 701 831 q 663 854 682 836 q 618 873 643 873 q 465 837 524 873 q 407 761 407 801 q 409 749 407 758 q 411 733 411 741 l 411 729 l 408 720 m 296 682 l 275 677 q 249 658 264 674 q 223 626 233 642 q 205 593 212 610 q 194 561 198 576 q 191 532 191 545 q 242 434 191 484 q 376 358 293 384 q 392 348 380 358 q 414 330 404 337 q 522 228 491 277 q 553 118 553 180 l 553 107 q 550 94 550 96 q 567 78 550 78 q 637 129 598 78 q 676 235 676 180 q 638 354 676 296 q 555 419 600 412 l 555 421 q 525 450 555 435 q 355 562 395 513 q 311 671 314 612 l 296 682 z "},"":{"ha":694,"x_min":64,"x_max":631,"o":"m 400 739 q 616 510 510 590 q 631 484 631 498 q 618 455 631 467 q 606 440 606 444 q 607 433 606 438 q 608 427 608 429 q 596 410 608 418 q 579 401 584 401 q 568 411 572 401 q 509 393 545 399 q 471 357 498 393 l 450 357 q 425 319 440 346 q 413 304 425 313 q 399 294 401 296 q 396 281 398 292 q 392 265 393 270 q 373 240 391 260 q 349 210 356 219 l 330 208 l 309 210 q 302 221 306 218 l 288 221 q 160 350 237 291 q 74 422 83 410 q 64 444 64 435 q 81 472 64 452 q 107 510 99 492 q 114 509 109 509 q 126 515 119 509 l 126 524 q 136 526 135 526 q 151 519 144 526 q 348 697 250 593 q 397 741 388 741 q 400 739 399 739 m 529 461 q 363 643 366 643 l 357 643 q 349 646 353 643 l 248 567 q 171 500 192 524 q 151 467 164 481 q 193 431 172 449 q 237 395 214 413 l 284 357 q 318 335 309 338 q 336 329 328 331 q 353 328 345 328 q 529 461 410 328 z "},"":{"ha":807,"x_min":96,"x_max":730,"o":"m 618 960 l 679 960 q 730 933 730 960 q 724 909 730 919 q 708 899 718 899 q 696 906 706 899 q 676 913 687 913 q 655 909 669 913 l 642 907 l 621 909 l 621 860 l 618 750 l 619 657 q 615 602 619 640 q 611 545 611 565 l 612 475 q 606 405 612 447 q 600 347 600 363 q 614 16 600 64 q 625 -64 625 -16 l 625 -74 q 629 -94 629 -84 q 568 -131 629 -131 q 532 -100 532 -131 q 538 -74 532 -94 q 545 -39 545 -53 q 536 104 545 -28 q 528 378 528 236 q 535 510 528 426 q 545 648 543 595 l 547 751 l 533 762 l 530 896 q 501 909 519 909 q 444 886 476 909 l 452 602 l 440 576 l 456 521 l 444 482 l 454 418 q 444 309 444 355 l 447 221 l 447 165 q 454 -39 447 112 q 465 -75 465 -63 q 446 -114 465 -94 q 404 -135 426 -135 q 378 -123 389 -135 q 368 -93 368 -111 q 371 -75 368 -87 q 374 -37 374 -62 l 370 47 q 374 163 370 100 l 376 204 l 349 224 l 351 237 l 371 252 l 368 317 q 370 330 368 321 q 371 345 371 339 q 363 385 371 358 l 355 383 q 331 392 345 383 q 309 401 316 401 l 302 401 q 232 430 296 401 q 132 515 168 459 q 96 646 96 571 q 112 752 96 702 q 162 842 129 802 q 250 917 195 883 q 342 950 304 950 l 372 950 l 386 943 q 422 937 392 940 l 444 957 l 494 957 q 532 956 513 957 q 579 983 542 983 q 618 960 608 983 z "},"":{"ha":810,"x_min":28,"x_max":768,"o":"m 139 269 q 156 309 155 278 q 161 376 157 340 q 164 447 164 413 l 157 618 q 203 938 157 838 q 346 1086 250 1038 q 518 1135 442 1135 q 561 1133 545 1135 q 609 1118 576 1131 q 647 1099 641 1105 l 686 1060 q 747 960 725 1021 q 768 827 768 898 q 762 752 768 789 q 744 683 755 715 q 708 620 732 651 q 684 585 684 589 q 675 583 681 583 q 640 594 667 583 q 583 606 612 606 q 467 577 501 606 q 433 497 433 549 q 530 408 433 436 q 694 347 694 362 q 746 233 746 296 q 718 119 746 171 q 642 37 690 67 q 550 -2 595 6 q 462 -20 506 -10 q 406 -29 418 -29 q 385 -19 393 -29 q 376 8 376 -8 l 380 33 l 379 45 q 412 71 379 71 l 454 61 q 532 52 500 52 q 620 68 585 52 q 671 118 656 84 q 686 182 686 152 q 652 275 686 239 q 471 355 618 311 q 405 400 437 362 q 374 454 374 438 q 406 577 374 526 q 497 643 437 627 q 615 664 557 659 q 677 670 673 668 q 690 684 682 672 q 705 723 699 695 q 713 753 711 750 q 715 794 715 755 q 682 933 715 867 q 591 1037 648 1000 q 471 1075 535 1075 l 458 1075 q 386 1056 402 1062 q 351 1032 373 1051 q 318 998 334 1017 l 290 964 q 267 923 277 950 q 250 855 257 895 q 239 761 243 814 q 235 642 235 707 l 241 110 l 241 29 l 243 -126 q 218 -320 243 -248 q 138 -435 193 -393 l 125 -446 q 117 -437 121 -445 q 106 -439 115 -439 q 85 -425 92 -439 q 71 -410 78 -410 q 113 -396 96 -396 l 123 -397 q 172 -104 172 -397 l 172 -32 l 171 151 l 171 182 q 127 197 149 197 q 92 192 117 197 q 52 187 67 187 q 32 191 39 187 q 28 222 28 207 q 87 239 46 231 q 139 269 129 248 z "},"":{"ha":376,"x_min":46,"x_max":351,"o":"m 199 993 q 306 948 261 993 q 351 840 351 903 q 306 732 351 777 q 196 688 260 688 q 91 733 136 688 q 46 843 46 779 q 91 947 46 902 q 199 993 136 993 m 199 711 q 290 749 252 711 q 329 840 329 787 q 291 932 329 894 q 199 970 253 970 q 107 931 145 970 q 69 840 69 892 q 107 750 69 788 q 199 711 146 711 m 268 758 l 229 758 l 197 825 l 174 825 l 174 758 l 138 758 l 138 922 l 197 922 q 267 875 267 922 q 232 831 267 841 l 268 758 m 174 850 l 197 850 q 231 872 231 850 q 196 897 231 897 l 174 897 l 174 850 z "},"":{"ha":376,"x_min":46,"x_max":351,"o":"m 199 993 q 306 948 261 993 q 351 840 351 903 q 306 732 351 777 q 196 688 260 688 q 91 733 136 688 q 46 843 46 779 q 91 947 46 902 q 199 993 136 993 m 199 711 q 290 749 252 711 q 329 840 329 787 q 291 932 329 894 q 199 970 253 970 q 107 931 145 970 q 69 840 69 892 q 107 750 69 788 q 199 711 146 711 m 271 814 q 251 766 271 784 q 197 747 231 747 q 142 772 163 747 q 121 842 121 798 q 143 907 121 882 q 201 932 165 932 q 269 873 265 932 l 232 873 q 200 904 229 904 q 161 842 161 904 q 200 781 161 781 q 233 814 231 781 l 271 814 z "},"":{"ha":406,"x_min":9,"x_max":374,"o":"m 374 815 l 335 815 l 335 939 l 289 815 l 271 815 l 224 939 l 224 815 l 184 815 l 184 981 l 241 981 l 281 880 l 317 981 l 374 981 l 374 815 m 151 947 l 102 947 l 102 815 l 61 815 l 61 947 l 9 947 l 9 981 l 151 981 l 151 947 z "},"":{"ha":694,"x_min":183,"x_max":566,"o":"m 490 925 q 513 935 500 935 q 545 919 525 935 q 566 876 566 903 q 564 856 566 863 q 517 836 514 842 l 513 836 q 502 833 509 836 q 493 831 496 831 q 485 836 488 831 q 471 827 471 834 l 472 822 q 455 828 468 822 q 432 836 442 833 l 288 795 q 192 761 210 774 q 183 771 183 765 l 183 775 q 262 842 201 806 l 277 842 q 393 885 302 842 q 490 925 461 925 z "},"":{"ha":694,"x_min":146,"x_max":549,"o":"m 515 884 q 534 861 520 877 q 549 833 549 844 q 533 800 549 817 q 500 783 517 783 q 442 814 470 783 q 414 861 414 845 q 440 901 414 879 l 440 914 l 454 914 l 457 924 q 476 914 469 922 q 485 896 479 904 q 515 884 491 888 m 210 901 q 222 884 210 892 q 272 823 272 868 q 257 797 272 812 q 241 772 241 783 l 236 772 q 222 768 227 772 q 146 840 146 824 q 153 866 146 846 q 178 896 159 886 q 203 907 197 907 q 210 901 206 907 z "},"":{"ha":762,"x_min":21,"x_max":750,"o":"m 750 189 l 329 189 l 204 -35 l 136 4 l 239 189 l 21 189 l 21 265 l 282 265 l 389 458 l 21 458 l 21 534 l 432 534 l 558 762 l 627 724 l 521 534 l 750 534 l 750 458 l 479 458 l 371 265 l 750 265 l 750 189 z "},"":{"ha":1543,"x_min":0,"x_max":1501,"o":"m 1065 928 q 1094 925 1071 928 q 1139 922 1116 922 l 1295 925 l 1354 922 q 1406 927 1369 922 q 1466 932 1442 932 q 1501 913 1501 932 q 1496 884 1501 905 q 1482 854 1491 863 q 1450 846 1473 846 q 1410 848 1444 846 q 1210 879 1364 879 q 1123 877 1175 879 q 1065 873 1071 876 q 1051 864 1059 871 q 1031 724 1031 774 l 1031 710 q 1025 646 1025 666 q 1032 599 1025 624 q 1045 552 1040 574 q 1074 530 1050 530 l 1088 532 q 1097 530 1093 532 q 1129 518 1110 518 q 1170 521 1143 518 q 1210 524 1197 524 q 1222 522 1214 524 q 1236 521 1231 521 q 1267 530 1255 521 l 1303 527 q 1381 538 1315 533 q 1382 526 1382 534 q 1380 509 1382 521 q 1378 490 1378 496 q 1381 475 1378 486 q 1328 444 1369 444 q 1288 454 1315 444 q 1240 464 1261 464 l 1192 463 q 1141 466 1178 463 q 1080 469 1104 469 l 1061 469 q 1037 451 1045 462 q 1021 401 1029 440 q 1014 309 1014 362 q 1020 197 1014 273 q 1028 91 1027 121 q 1032 60 1029 62 q 1041 56 1034 58 q 1051 50 1048 54 l 1090 49 q 1187 54 1125 49 l 1244 58 l 1263 56 q 1287 56 1272 56 q 1458 79 1345 56 q 1486 90 1478 90 q 1493 78 1493 90 q 1486 50 1493 68 q 1489 31 1489 43 q 1482 -1 1489 7 q 1446 -9 1475 -9 l 1429 -9 q 1325 -2 1377 -9 q 1234 5 1274 5 l 1060 3 l 1036 3 q 985 -26 1030 -9 q 937 -49 970 -26 q 914 -39 920 -49 l 914 -31 q 922 4 914 -8 q 815 310 884 188 l 811 300 q 802 329 808 321 q 775 338 795 338 q 751 325 764 338 q 743 340 750 334 q 705 343 719 343 q 572 334 614 343 q 528 325 529 325 q 513 335 518 325 q 450 326 471 323 q 410 329 430 329 q 336 321 370 329 q 290 309 313 311 q 257 290 267 307 l 256 290 q 248 297 252 290 q 186 175 235 268 q 132 64 137 81 q 126 12 126 47 l 126 -4 q 106 -25 117 -25 q 31 -14 62 -25 q 0 5 0 -3 q 77 114 0 27 q 139 210 102 143 q 199 300 176 277 q 234 384 208 348 q 316 515 260 419 l 475 785 q 525 876 508 840 q 542 926 542 911 l 542 928 l 555 933 q 589 994 557 972 l 599 991 q 627 1013 613 1013 q 639 1006 634 1013 l 639 997 q 635 977 639 987 q 676 851 651 920 q 733 703 701 783 q 808 528 766 623 l 888 351 q 929 267 926 269 q 935 264 932 264 q 950 385 950 264 q 948 419 950 395 q 946 458 946 444 q 949 491 946 467 q 951 530 951 515 l 951 555 l 953 725 q 945 865 953 822 q 937 909 937 908 q 1002 935 937 918 l 1006 943 l 1017 937 l 1025 940 q 1065 928 1046 940 m 703 383 q 718 389 710 389 q 765 415 765 397 q 680 627 765 422 q 575 832 594 832 q 568 826 574 832 q 555 815 562 820 l 550 829 l 385 542 q 317 406 317 425 q 335 385 317 391 q 359 379 353 379 l 372 380 q 402 377 383 380 q 429 374 421 374 q 483 379 445 374 q 530 385 521 385 q 554 382 540 385 q 574 379 568 379 q 586 389 581 379 q 606 382 597 382 l 636 383 l 703 383 z "},"":{"ha":1078,"x_min":64,"x_max":1017,"o":"m 827 904 q 946 793 875 905 q 1017 559 1017 682 q 1008 469 1017 521 l 1000 422 l 1000 411 q 958 249 1000 346 q 950 224 954 239 q 933 200 947 210 q 918 184 920 190 q 820 80 854 107 q 765 44 785 52 q 730 28 745 35 q 707 18 715 21 q 587 -7 648 14 q 543 -9 571 -9 q 314 26 326 -9 q 294 35 297 35 q 251 -10 277 35 q 211 -70 224 -54 q 176 -85 197 -85 l 168 -85 q 163 -60 163 -72 q 164 -50 163 -53 q 186 -13 183 -35 q 211 30 189 9 q 237 61 232 50 q 227 74 229 69 q 202 80 215 78 q 159 112 189 83 q 113 171 130 141 q 85 238 96 201 q 69 318 74 275 q 64 414 64 361 q 115 681 64 557 q 122 703 118 688 q 136 727 127 719 q 190 786 146 734 q 253 846 233 838 q 314 882 301 867 q 329 897 327 897 l 346 896 l 351 896 l 356 903 q 361 907 359 905 q 374 911 366 911 q 409 916 390 913 q 450 926 428 920 q 500 939 492 938 q 559 943 534 941 l 603 951 l 608 951 q 669 940 625 951 q 693 972 680 950 q 718 994 707 994 l 718 1008 q 743 1040 732 1014 q 798 1089 765 1089 q 812 1082 807 1089 q 818 1067 818 1074 q 772 983 818 1041 q 757 940 757 955 q 768 925 757 932 q 827 904 817 913 m 599 747 q 648 848 648 809 q 629 878 648 866 q 574 890 609 890 q 545 892 552 890 q 509 877 530 882 q 482 872 489 872 l 460 872 q 422 852 433 872 l 419 852 q 411 859 415 852 q 403 852 403 859 l 403 843 l 401 843 q 397 848 399 843 q 392 852 395 852 l 389 852 q 314 815 315 825 q 301 812 306 812 q 285 815 296 812 q 241 761 259 792 q 216 714 241 743 q 136 460 136 581 q 159 293 136 363 q 216 207 182 222 l 216 193 q 232 175 222 187 q 244 162 241 163 q 254 161 247 161 q 288 179 272 161 l 328 229 q 364 277 355 260 q 374 311 370 302 q 416 378 387 330 q 446 429 446 427 l 446 449 q 541 596 492 524 l 541 614 q 566 648 564 637 q 587 691 574 669 q 599 715 599 712 l 599 747 m 839 163 q 864 210 858 202 q 899 283 886 245 l 926 375 q 942 497 942 428 q 922 641 942 585 q 855 763 902 697 q 743 856 808 829 q 736 831 743 846 q 726 835 730 831 l 715 831 l 715 815 l 705 819 q 666 759 693 819 l 648 720 q 629 675 635 692 q 606 628 622 657 l 529 498 q 484 412 505 454 q 421 305 476 397 l 358 195 q 363 176 363 184 q 354 144 363 164 q 345 117 345 125 q 347 106 345 114 q 564 64 453 64 l 593 64 q 650 74 628 74 q 661 72 656 74 q 677 77 667 77 l 685 77 q 708 85 697 79 q 730 97 720 90 q 748 114 740 104 q 765 125 757 123 q 780 130 773 127 q 805 145 787 132 q 839 163 823 157 z "},"":{"ha":990,"x_min":36,"x_max":954,"o":"m 443 453 q 551 604 491 568 q 694 640 610 640 q 879 561 804 640 q 954 357 954 482 q 879 151 954 231 q 717 72 803 72 q 601 115 652 72 q 489 267 550 157 q 269 109 410 109 q 102 179 168 109 q 36 358 36 250 q 96 536 36 465 q 244 607 157 607 q 345 578 298 607 q 443 453 392 550 m 509 315 q 600 179 552 222 q 720 136 648 136 q 860 198 805 136 q 916 357 916 260 q 859 519 916 452 q 724 587 802 587 q 657 573 686 587 q 607 531 629 558 q 564 452 585 503 l 509 315 m 416 378 l 424 400 q 243 546 359 546 q 121 494 168 546 q 74 359 74 442 q 119 219 74 276 q 229 161 164 161 q 331 205 285 161 q 416 378 376 250 z "},"":{"ha":1157,"x_min":172,"x_max":985,"o":"m 985 488 l 619 488 l 619 254 l 539 254 l 539 488 l 172 488 l 172 567 l 539 567 l 539 800 l 619 800 l 619 567 l 985 567 l 985 488 m 985 28 l 172 28 l 172 107 l 985 107 l 985 28 z "},"":{"ha":762,"x_min":40,"x_max":730,"o":"m 730 163 l 40 482 l 40 568 l 730 888 l 730 802 l 129 525 l 730 249 l 730 163 m 730 0 l 40 0 l 40 76 l 730 76 l 730 0 z "},"":{"ha":762,"x_min":40,"x_max":730,"o":"m 730 482 l 40 163 l 40 249 l 642 525 l 40 802 l 40 888 l 730 568 l 730 482 m 730 0 l 40 0 l 40 76 l 730 76 l 730 0 z "},"":{"ha":937,"x_min":26,"x_max":937,"o":"m 935 916 q 937 903 937 907 q 916 871 937 890 q 892 850 895 851 q 886 847 891 848 q 868 838 879 844 q 825 784 858 832 q 783 713 799 746 q 741 660 773 695 l 656 532 q 583 434 625 486 q 545 385 550 392 q 532 359 532 367 q 544 349 532 353 q 559 345 557 345 l 594 348 q 696 371 659 352 q 747 390 733 390 l 755 389 q 784 380 778 387 q 790 357 790 374 q 770 325 790 340 q 745 310 750 310 q 733 313 740 310 q 724 317 727 317 l 721 317 q 676 321 713 317 q 603 326 640 326 q 519 320 528 326 q 502 298 509 314 q 486 277 494 283 q 505 269 496 269 q 550 277 520 269 l 553 267 q 585 264 577 264 q 629 269 609 264 q 652 273 649 273 q 662 272 654 273 q 673 271 669 271 q 683 273 679 271 q 701 279 687 276 q 715 282 714 282 l 730 282 q 754 285 739 285 q 777 278 770 285 q 785 267 785 271 l 785 253 q 758 220 785 220 l 746 222 q 733 224 742 224 q 701 210 715 224 q 643 228 684 227 l 575 229 q 519 224 538 231 q 489 190 500 218 q 478 126 478 163 q 483 62 478 104 q 488 0 488 20 q 456 -52 488 -43 q 441 -71 441 -56 q 431 -68 437 -68 q 419 -70 426 -68 q 408 -72 412 -72 l 403 -71 q 387 -16 389 -55 l 386 -11 q 392 12 386 -6 q 415 168 415 85 q 412 218 415 177 q 347 228 374 228 q 290 223 330 228 q 227 218 250 218 q 136 206 186 218 q 71 193 85 193 q 43 201 60 193 q 26 220 26 208 q 54 243 26 229 q 143 257 82 257 l 301 257 q 397 267 335 257 q 392 288 392 278 l 395 301 q 385 311 395 307 q 374 315 376 315 q 125 288 195 315 l 118 290 q 82 306 82 301 q 113 330 82 315 q 205 346 143 345 l 358 351 l 359 351 l 359 353 q 300 494 359 370 q 135 796 240 618 q 90 838 104 819 q 75 864 75 857 q 90 887 75 874 q 118 914 104 901 q 154 924 154 914 l 153 928 q 158 933 153 933 q 175 921 168 933 q 213 836 182 909 q 305 656 245 762 q 407 466 366 551 q 464 380 449 380 q 471 385 469 380 q 545 451 503 393 q 677 655 587 509 l 720 724 q 767 800 766 797 q 800 874 779 832 q 826 921 822 916 q 836 927 831 926 q 848 929 841 929 q 935 916 878 929 z "},"":{"ha":765,"x_min":-75,"x_max":713,"o":"m 713 725 l 603 214 q 587 122 587 146 q 636 78 587 78 q 660 79 647 78 l 642 -5 q 579 -12 612 -12 q 481 87 487 -12 q 285 -12 420 -12 q 107 81 167 -12 l 31 -289 l -75 -289 l 139 725 l 245 725 l 160 321 q 150 228 150 278 q 189 114 150 155 q 297 74 227 74 q 525 351 464 74 l 607 725 l 713 725 z "},"":{"ha":686,"x_min":45,"x_max":675,"o":"m 200 760 l 170 760 q 427 965 258 965 q 605 879 536 965 q 675 624 675 793 q 563 180 675 381 q 273 -21 452 -21 q 106 41 168 -21 q 45 207 45 102 q 158 492 45 369 q 418 615 271 615 q 629 486 568 615 l 632 486 q 639 612 639 584 q 576 800 639 731 q 404 868 513 868 q 200 760 273 868 m 618 427 q 425 579 563 579 q 231 450 304 579 q 158 179 158 321 q 195 62 158 106 q 292 18 231 18 q 481 129 384 18 q 618 427 578 239 z "},"":{"ha":990,"x_min":20,"x_max":965,"o":"m 965 161 q 928 -1 943 77 q 905 -150 913 -79 q 836 -139 863 -142 q 799 -135 809 -135 l 100 -135 q 60 -137 86 -135 q 20 -139 33 -139 l 504 414 l 22 1044 q 106 1037 70 1040 q 167 1035 142 1035 l 857 1035 l 865 814 l 838 814 q 802 909 817 883 q 747 954 787 936 q 696 968 726 963 q 625 972 666 972 l 260 972 l 639 475 l 231 4 l 746 4 q 866 39 832 4 q 933 161 901 75 l 965 161 z "},"":{"ha":1143,"x_min":35,"x_max":1116,"o":"m 1116 -140 l 689 -140 l 689 -109 q 797 -81 770 -109 q 824 4 824 -53 l 824 966 l 326 966 l 326 4 q 353 -81 326 -53 q 461 -109 380 -109 l 461 -140 l 35 -140 l 35 -109 q 143 -81 117 -109 q 170 4 170 -53 l 170 873 q 137 977 170 942 q 37 1011 104 1011 l 37 1043 l 1113 1043 l 1113 1011 q 1014 977 1046 1011 q 981 873 981 942 l 981 4 q 1007 -81 981 -53 q 1116 -109 1033 -109 l 1116 -140 z "},"":{"ha":762,"x_min":14,"x_max":736,"o":"m 736 210 q 685 41 732 104 q 571 -22 637 -22 q 477 40 517 -22 q 437 231 437 102 q 438 285 437 259 q 441 334 439 311 l 465 557 l 309 557 q 242 53 268 134 q 153 -27 216 -27 q 103 -6 127 -27 q 79 50 79 15 q 129 137 79 81 q 183 239 178 193 l 224 557 l 158 557 q 105 544 131 557 q 66 513 79 530 l 37 469 l 14 469 q 95 624 47 572 q 207 676 144 676 l 725 676 l 725 557 l 550 557 q 537 394 542 475 q 533 231 533 313 q 559 140 533 175 q 623 106 585 106 q 673 125 647 106 q 703 176 699 144 q 706 199 705 191 q 707 210 707 208 l 736 210 z "},"":{"ha":380,"x_min":7,"x_max":408,"o":"m 408 1194 q 388 1150 408 1167 q 337 1133 368 1133 q 296 1150 312 1133 q 267 1167 281 1167 q 248 1157 254 1167 q 241 1128 241 1147 q 255 954 241 1105 q 268 581 268 804 q 248 99 268 238 q 194 -92 227 -39 q 148 -134 176 -120 q 90 -149 120 -149 q 32 -125 57 -149 q 7 -67 7 -101 q 24 -23 7 -41 q 68 -5 41 -5 q 112 -27 91 -5 q 142 -50 134 -50 q 169 -19 159 -50 q 179 85 179 11 q 175 218 179 110 q 171 600 171 327 q 182 1033 171 926 q 210 1179 194 1139 q 257 1249 230 1226 q 314 1272 284 1272 q 380 1250 353 1272 q 408 1194 408 1228 z "},"":{"ha":416,"x_min":41,"x_max":347,"o":"m 97 954 q 197 968 123 968 q 278 943 235 968 q 326 800 320 918 q 338 792 330 795 q 347 783 347 789 q 340 774 347 780 q 330 753 333 768 q 328 684 328 739 l 329 627 q 326 621 329 624 l 326 607 q 330 568 326 591 l 335 546 l 334 528 l 335 509 q 289 481 305 481 q 280 484 286 481 q 268 486 273 486 l 265 486 q 261 505 261 498 q 279 554 261 533 q 282 578 282 570 q 273 600 282 602 q 256 597 264 597 l 250 589 q 185 568 201 574 q 142 562 169 562 q 62 589 76 562 q 43 615 45 602 l 41 631 l 43 642 q 104 728 43 685 q 210 780 165 771 q 266 798 254 789 q 278 833 278 806 q 263 884 278 863 q 216 919 249 906 l 183 932 q 110 928 153 932 q 72 911 92 911 q 58 921 58 911 q 67 940 58 926 q 93 954 76 954 l 97 954 m 245 644 q 269 699 269 676 q 232 749 269 749 q 161 728 186 749 l 151 728 q 96 664 96 697 q 118 622 96 640 q 168 604 140 604 q 214 615 189 604 q 245 636 238 626 l 245 644 z "},"":{"ha":514,"x_min":43,"x_max":472,"o":"m 66 817 q 156 906 97 875 q 294 937 215 937 q 340 935 320 937 q 378 925 361 932 q 409 908 395 919 q 436 881 423 897 q 461 847 450 865 q 472 787 472 829 q 409 628 472 693 q 252 564 346 564 l 249 564 q 225 567 241 567 l 216 562 l 203 561 q 95 602 146 561 q 43 700 43 643 q 46 738 43 720 q 54 773 49 757 l 66 806 l 66 817 m 408 750 l 408 758 q 357 866 408 829 q 268 904 305 904 q 232 897 253 904 q 210 879 218 879 q 191 880 201 879 q 153 859 180 867 q 121 808 134 846 q 109 737 109 770 q 139 650 109 681 q 188 614 170 618 q 211 603 206 609 q 224 602 215 602 q 313 614 305 602 q 319 619 316 619 q 328 616 322 619 q 390 684 372 644 q 408 750 408 724 z "},"":{"ha":1067,"x_min":47,"x_max":1021,"o":"m 1021 0 l 612 0 l 634 211 q 787 347 743 251 q 831 559 831 442 q 759 812 831 713 q 534 911 686 911 q 310 812 382 911 q 237 559 237 713 q 281 347 237 442 q 435 211 326 251 l 457 0 l 47 0 l 47 225 l 68 225 q 95 160 79 180 q 160 140 111 140 l 379 140 l 376 179 q 145 329 215 223 q 75 554 75 435 q 205 843 75 730 q 534 956 336 956 q 863 843 733 956 q 994 554 994 730 q 924 329 994 435 q 692 179 854 223 l 690 140 l 909 140 q 974 160 958 140 q 1001 225 990 180 l 1021 225 l 1021 0 z "},"":{"ha":1031,"x_min":35,"x_max":982,"o":"m 700 631 q 751 647 714 640 q 811 653 788 653 q 885 632 848 653 q 934 586 922 610 q 956 516 947 562 q 974 456 966 471 q 982 431 982 440 q 971 403 982 410 q 922 386 971 386 q 909 376 915 376 q 903 381 909 376 q 886 386 898 385 l 878 395 q 848 390 863 390 q 819 393 838 390 q 791 396 800 396 q 760 392 784 396 q 718 387 736 387 l 652 390 q 553 380 593 390 q 536 376 547 377 q 523 365 525 375 q 509 350 520 355 q 503 306 503 336 q 517 211 503 255 q 555 150 532 167 l 606 113 q 671 81 632 92 q 761 71 710 71 q 856 78 814 71 l 860 69 q 901 82 871 72 q 947 93 930 93 l 951 93 q 956 81 956 87 q 949 52 956 73 q 937 13 942 31 q 919 -14 932 -5 q 897 -22 905 -22 l 895 -22 q 866 -17 884 -22 q 840 -11 848 -11 l 804 -12 q 751 -4 798 -12 q 688 9 705 3 q 626 25 671 15 q 547 58 581 36 q 490 106 513 79 l 478 96 q 472 -25 472 22 q 481 -107 472 -81 q 490 -143 490 -133 q 460 -175 490 -168 q 446 -192 454 -180 q 431 -204 437 -204 q 419 -196 427 -204 q 406 -184 412 -187 q 390 -154 390 -174 l 392 -144 q 399 -124 393 -138 q 406 -92 406 -111 l 406 -61 q 410 9 406 -36 q 414 75 414 54 q 411 114 414 92 q 406 96 406 104 l 397 96 q 392 106 397 106 l 383 106 l 379 114 q 149 40 224 40 q 35 123 35 40 q 109 251 35 198 q 379 364 184 303 q 411 389 411 366 q 403 463 411 429 q 379 521 395 496 q 343 561 364 546 q 289 575 322 575 q 153 545 192 575 q 140 543 147 543 l 126 545 q 121 539 121 545 l 121 534 q 117 532 121 532 l 89 532 q 79 550 79 541 l 81 558 q 102 582 89 572 q 133 600 115 593 q 172 613 150 608 q 204 625 195 618 q 221 632 214 632 q 245 631 235 632 l 250 639 q 281 629 264 629 q 302 632 286 629 q 334 635 319 635 q 429 591 399 635 q 478 443 460 547 q 628 599 583 574 q 648 618 635 604 q 676 632 661 632 l 700 631 m 886 478 l 886 488 q 867 561 886 536 q 785 603 847 586 q 762 604 777 603 q 739 606 747 606 q 690 595 732 606 q 659 576 685 588 q 597 520 632 565 q 550 464 563 476 q 538 444 538 452 q 544 435 538 440 q 557 431 550 431 l 606 431 l 842 439 q 876 447 865 439 q 886 478 886 454 m 406 189 q 416 244 416 203 q 414 297 416 259 l 397 309 q 387 307 393 307 q 367 314 376 307 q 339 306 358 306 l 330 297 q 302 298 321 298 q 169 256 235 298 q 103 170 103 214 q 120 122 103 148 q 175 96 136 96 q 269 108 214 96 q 366 153 325 121 q 407 189 407 186 l 406 189 z "},"":{"ha":749,"x_min":17,"x_max":733,"o":"m 632 733 q 633 722 633 730 q 628 697 633 708 q 586 644 602 671 q 570 612 570 616 q 591 592 570 601 q 620 579 612 583 q 635 569 628 576 q 656 546 642 562 q 687 507 670 530 q 727 443 724 457 q 731 410 730 429 q 733 371 733 390 q 628 106 733 216 q 367 -3 522 -3 l 361 -3 q 328 4 330 4 q 322 3 325 4 q 309 -5 317 -5 q 270 -2 298 -5 q 231 1 241 1 q 220 -3 222 1 l 205 -24 q 142 -126 162 -61 q 111 -175 130 -153 q 85 -179 95 -175 q 74 -163 82 -174 q 65 -144 65 -153 q 74 -111 65 -130 q 104 -71 82 -92 q 133 -43 125 -51 q 148 -17 141 -35 q 154 8 154 1 q 144 31 154 21 q 46 124 76 73 q 17 260 17 176 q 34 366 17 324 q 73 446 51 407 q 155 536 96 485 q 300 602 214 587 q 412 621 387 617 q 460 625 437 625 l 500 623 q 527 642 515 623 l 555 689 q 586 733 576 726 q 608 741 597 741 q 632 733 618 741 m 476 562 l 476 564 q 449 572 473 570 l 397 576 q 338 567 380 576 q 283 546 296 557 q 257 534 271 534 l 253 534 q 243 522 245 533 q 144 445 191 518 q 98 296 98 372 q 108 213 98 264 q 147 133 118 163 q 199 103 176 103 q 230 116 217 103 q 261 164 243 130 q 314 259 279 199 l 393 395 q 456 511 436 471 q 476 562 476 551 m 262 74 q 317 49 266 49 l 339 50 q 437 56 396 50 q 499 72 479 62 q 554 122 519 82 q 611 197 590 162 q 644 269 632 233 q 656 330 656 305 q 612 471 656 412 q 539 530 568 530 q 516 523 529 530 q 478 473 504 515 q 390 315 452 431 l 262 74 z "},"":{"ha":467,"x_min":56,"x_max":342,"o":"m 340 929 q 327 917 338 924 q 314 903 316 909 q 281 875 297 875 l 277 875 q 224 933 224 911 q 243 970 224 951 q 279 989 263 989 q 312 971 283 989 q 340 933 340 953 l 340 929 m 314 781 q 342 661 342 715 q 318 566 342 618 q 229 425 294 513 q 147 294 163 336 q 131 214 131 251 q 148 149 131 173 q 243 53 164 125 l 243 31 q 187 -9 203 -9 q 161 8 180 -9 l 111 54 q 67 119 78 83 q 56 175 56 155 q 67 251 56 212 q 165 407 79 289 q 265 556 251 524 q 279 612 279 589 q 271 658 279 641 q 245 695 262 675 q 222 725 229 715 l 222 730 q 229 749 222 737 q 237 768 236 760 q 263 776 260 770 q 269 782 267 782 q 277 774 275 782 q 296 787 284 787 q 314 781 302 787 z "},"":{"ha":428,"x_min":153,"x_max":285,"o":"m 285 953 q 236 880 285 891 q 235 879 236 879 q 176 913 216 879 l 176 918 q 204 987 176 930 l 208 986 q 222 994 214 986 q 236 1004 231 1002 q 285 960 285 983 l 285 953 m 239 717 q 248 686 248 705 q 243 667 248 682 q 227 501 227 586 l 237 319 q 250 162 243 224 q 257 81 257 100 q 245 1 257 22 q 175 -33 233 -19 l 153 -24 q 178 368 171 137 q 196 694 185 599 l 199 694 q 213 706 205 694 q 224 717 220 717 l 225 717 q 229 715 227 717 q 233 714 232 714 q 239 717 236 714 z "},"":{"ha":1157,"x_min":172,"x_max":985,"o":"m 985 241 l 907 241 l 907 503 l 172 503 l 172 582 l 985 582 l 985 241 z "},"":{"ha":762,"x_min":14,"x_max":715,"o":"m 715 1267 l 507 -53 l 170 644 l 36 579 l 14 625 l 216 725 l 490 165 l 667 1274 l 715 1267 z "},"":{"ha":700,"x_min":-298,"x_max":811,"o":"m 574 950 l 579 950 q 614 956 586 950 q 672 962 642 962 l 739 960 l 770 961 q 811 932 811 961 l 799 893 q 779 852 787 852 q 764 860 777 852 q 736 868 751 868 q 671 897 701 897 l 597 887 q 513 845 561 882 q 406 686 466 808 q 289 372 346 565 q 372 364 335 364 q 479 379 433 364 q 532 393 526 393 q 556 383 543 393 q 570 363 570 372 q 541 335 570 354 l 530 339 q 515 321 519 334 l 432 332 q 405 329 427 332 q 367 326 384 326 l 334 328 q 286 321 307 328 q 268 288 268 298 q 339 267 268 267 q 377 269 346 267 q 416 271 408 271 q 454 280 425 271 q 486 289 484 289 q 489 288 489 289 q 528 257 528 277 q 509 232 528 243 q 484 221 490 221 q 418 225 467 221 q 334 229 370 229 q 245 203 253 229 l 196 17 q 136 -189 152 -149 q 89 -270 119 -229 q 50 -332 58 -311 l 36 -332 q 21 -350 29 -336 q 0 -362 12 -364 q -21 -359 -13 -359 q -39 -371 -39 -359 q -46 -363 -43 -368 q -50 -359 -50 -359 q -52 -361 -51 -359 q -91 -377 -56 -367 q -178 -387 -126 -387 q -258 -376 -227 -387 q -296 -366 -289 -366 l -297 -366 q -298 -359 -298 -364 q -253 -288 -298 -347 q -239 -285 -245 -285 q -192 -306 -224 -285 q -136 -326 -161 -326 q -123 -330 -130 -330 q -102 -326 -117 -330 q -79 -320 -87 -322 q -51 -307 -70 -319 q -18 -293 -31 -294 q -4 -268 -6 -281 q 60 -161 54 -223 q 75 -146 66 -151 q 108 -2 79 -90 q 152 147 136 86 q 167 214 167 208 q 154 222 167 222 l 115 221 l 93 221 q 73 215 80 221 q 64 210 66 210 q 58 213 62 210 q 53 216 55 216 q 49 212 51 216 q 41 216 45 216 l 37 216 q 27 230 33 216 q 22 252 22 244 q 35 266 22 260 q 60 271 47 271 q 93 283 93 271 q 113 277 100 277 q 135 265 118 265 q 180 271 168 265 q 193 296 193 277 q 192 314 193 307 q 163 318 179 318 q 123 314 138 318 q 110 318 117 318 q 97 313 104 318 q 82 310 89 310 q 47 319 60 310 q 53 329 50 324 q 56 334 56 333 q 54 335 56 335 q 53 343 53 337 q 63 358 53 353 q 75 364 73 364 l 94 364 q 142 380 119 380 q 167 372 158 380 l 201 368 q 281 572 238 452 q 337 704 324 692 q 369 746 349 715 q 541 932 441 863 q 545 922 541 926 l 574 950 z "},"":{"ha":762,"x_min":35,"x_max":728,"o":"m 693 593 l 728 593 q 663 431 713 488 q 536 375 612 375 q 330 454 471 375 q 187 507 236 507 q 66 380 86 507 l 35 380 q 98 542 48 485 q 221 599 148 599 q 294 586 253 599 q 446 513 334 572 q 576 471 526 471 q 693 593 674 471 m 693 330 l 728 330 q 663 169 713 225 q 536 113 612 113 q 354 178 471 113 q 187 244 237 244 q 66 118 86 244 l 35 118 q 98 278 48 222 q 221 335 148 335 q 297 320 253 335 q 446 250 341 306 q 576 208 526 208 q 693 330 674 208 z "},"":{"ha":850,"x_min":8,"x_max":844,"o":"m 453 956 l 844 0 l 8 0 l 453 956 m 403 718 l 100 68 l 672 68 l 403 718 z "},"":{"ha":833,"x_min":18,"x_max":685,"o":"m 685 102 q 660 32 682 63 l 650 39 q 632 30 642 37 q 616 24 621 24 q 601 38 606 24 q 593 55 596 52 q 576 71 591 58 q 366 288 469 165 l 364 301 l 366 317 q 517 449 444 372 q 611 545 590 526 q 645 572 632 563 q 675 581 657 581 q 685 568 682 581 q 594 468 670 523 q 485 380 517 413 q 453 338 453 347 l 454 338 q 483 273 458 302 q 548 208 507 245 q 610 151 590 172 q 639 131 630 131 q 648 134 642 131 q 657 136 654 136 l 660 136 q 679 100 672 100 q 685 102 682 100 m 322 568 q 345 558 332 558 q 370 532 370 558 q 350 499 370 522 q 302 460 331 477 l 297 468 l 290 468 q 231 436 279 468 q 117 342 182 405 l 115 328 l 117 313 l 117 309 q 125 284 117 292 q 153 266 134 275 q 191 237 172 256 q 254 179 233 195 q 307 149 275 163 q 342 121 338 134 l 343 110 q 330 77 343 91 q 301 62 317 62 q 245 90 286 62 q 121 189 205 118 q 27 270 37 259 q 18 296 18 281 q 32 328 18 311 q 47 346 45 345 q 322 568 176 393 z "},"":{"ha":833,"x_min":83,"x_max":704,"o":"m 449 596 q 497 629 479 629 q 504 628 500 629 q 526 606 509 625 q 572 541 549 578 q 608 478 586 519 q 637 427 628 442 q 667 385 653 401 q 696 350 696 352 q 704 328 704 334 q 700 317 704 321 q 514 118 640 273 l 509 82 q 462 31 476 43 q 436 18 448 18 q 415 28 425 18 l 406 18 q 396 46 396 37 q 401 52 396 49 q 435 86 406 54 l 435 102 l 449 102 q 470 132 469 130 q 505 165 471 134 q 539 215 538 195 l 549 220 l 549 233 q 572 256 559 238 q 596 277 585 273 q 604 307 604 291 q 566 397 604 323 q 449 576 527 471 l 449 596 m 421 338 q 424 322 424 329 q 355 249 424 295 q 277 191 307 217 q 204 110 247 164 q 146 46 161 56 q 117 36 131 36 q 96 43 104 36 q 87 58 87 50 q 117 107 87 82 l 122 126 q 131 127 125 127 q 146 121 139 127 q 315 289 315 245 q 303 320 315 302 q 224 399 291 338 q 143 477 157 460 q 106 508 129 494 q 83 545 83 521 q 97 583 83 569 q 134 597 111 597 q 180 555 140 597 q 263 471 220 513 q 346 395 307 429 q 401 346 385 361 q 421 338 409 346 z "},"":{"ha":1389,"x_min":176,"x_max":1211,"o":"m 1161 150 q 1182 129 1176 148 q 1200 93 1188 109 q 1211 62 1211 76 q 1196 18 1211 42 l 1193 18 q 1186 24 1189 18 q 1147 -5 1162 14 q 1122 8 1139 3 q 1117 62 1117 21 q 1109 76 1117 67 q 1101 93 1101 85 l 1101 97 l 1117 121 l 1161 150 m 733 126 q 749 81 749 100 q 737 51 749 67 q 720 15 726 35 q 699 -5 713 -5 l 654 24 q 644 39 649 32 q 639 47 639 47 l 639 50 q 647 69 639 58 q 654 83 654 79 l 654 93 q 660 136 654 111 q 685 150 675 140 q 724 121 697 130 q 733 126 725 126 m 236 150 q 256 130 250 149 q 274 93 262 110 q 286 62 286 76 q 271 18 286 42 l 268 18 q 261 24 264 18 q 222 -5 237 14 q 197 8 209 5 q 192 62 192 26 q 184 76 192 67 q 176 93 176 85 l 176 97 q 192 121 191 120 l 236 150 z "},"":{"ha":354,"x_min":0,"x_max":0,"o":""},"":{"ha":1046,"x_min":-14,"x_max":997,"o":"m 616 940 q 958 135 671 753 q 997 37 997 77 q 990 20 997 28 q 943 1 984 13 q 889 -17 902 -12 q 879 7 879 -5 q 882 30 879 17 l 885 40 q 863 132 885 62 q 787 310 841 202 q 776 325 782 313 q 747 338 770 338 q 722 325 734 338 q 694 335 720 330 l 673 340 l 653 340 q 557 333 584 340 q 529 325 530 325 q 514 335 519 325 q 452 326 472 323 q 412 329 432 329 q 329 318 368 329 q 280 308 291 308 q 258 290 269 307 l 249 297 q 146 72 180 154 q 124 -15 142 21 q 93 -50 107 -50 l 92 -50 q -3 -28 68 -41 q -14 -16 -14 -26 q 10 26 -14 7 q 37 56 34 45 q 78 114 60 98 q 139 210 102 143 q 200 300 176 277 q 265 428 201 330 q 376 612 329 526 q 428 705 422 699 q 522 889 522 840 l 522 892 q 538 899 538 892 l 538 905 q 571 960 538 930 l 581 956 q 608 978 598 978 q 621 960 621 978 q 616 940 621 949 m 650 383 q 689 389 669 389 q 736 415 736 397 q 657 616 736 416 q 554 815 578 815 q 488 721 537 815 q 378 527 439 627 q 317 406 317 428 q 337 385 317 390 q 361 379 357 379 l 374 380 q 405 377 385 380 q 432 374 425 374 q 485 379 448 374 q 532 385 522 385 q 555 382 541 385 q 572 379 568 379 q 586 389 582 379 q 616 383 603 383 l 637 385 q 650 383 645 385 m 656 1171 q 736 1099 736 1124 q 726 1090 736 1093 q 629 1126 709 1104 q 486 1166 549 1147 q 465 1157 477 1163 q 448 1152 452 1152 l 446 1152 l 448 1156 q 433 1166 448 1161 q 425 1160 430 1160 q 416 1163 422 1160 q 406 1166 410 1166 l 401 1166 q 355 1185 404 1172 l 351 1207 q 370 1247 351 1229 q 403 1265 389 1265 q 428 1255 410 1265 q 525 1215 460 1255 q 642 1171 614 1171 l 656 1171 z "},"":{"ha":1046,"x_min":-14,"x_max":997,"o":"m 616 940 q 958 135 671 753 q 997 37 997 77 q 990 20 997 28 q 943 1 984 13 q 889 -17 902 -12 q 879 7 879 -5 q 882 30 879 17 l 885 40 q 863 132 885 62 q 787 310 841 202 q 776 325 782 313 q 747 338 770 338 q 722 325 734 338 q 694 335 720 330 l 673 340 l 653 340 q 557 333 584 340 q 529 325 530 325 q 514 335 519 325 q 452 326 472 323 q 412 329 432 329 q 329 318 368 329 q 280 308 291 308 q 258 290 269 307 l 249 297 q 146 72 180 154 q 124 -15 142 21 q 93 -50 107 -50 l 92 -50 q -3 -28 68 -41 q -14 -16 -14 -26 q 10 26 -14 7 q 37 56 34 45 q 78 114 60 98 q 139 210 102 143 q 200 300 176 277 q 265 428 201 330 q 376 612 329 526 q 428 705 422 699 q 522 889 522 840 l 522 892 q 538 899 538 892 l 538 905 q 571 960 538 930 l 581 956 q 608 978 598 978 q 621 960 621 978 q 616 940 621 949 m 650 383 q 689 389 669 389 q 736 415 736 397 q 657 616 736 416 q 554 815 578 815 q 488 721 537 815 q 378 527 439 627 q 317 406 317 428 q 337 385 317 390 q 361 379 357 379 l 374 380 q 405 377 385 380 q 432 374 425 374 q 485 379 448 374 q 532 385 522 385 q 555 382 541 385 q 572 379 568 379 q 586 389 582 379 q 616 383 603 383 l 637 385 q 650 383 645 385 m 779 1257 q 798 1225 798 1252 l 796 1189 l 796 1176 q 779 1149 779 1169 l 775 1151 q 766 1144 770 1151 q 757 1136 761 1137 q 753 1137 756 1137 l 739 1136 q 669 1099 712 1099 q 634 1106 652 1099 q 588 1138 616 1113 q 549 1172 559 1164 l 530 1172 q 473 1196 495 1196 l 463 1194 q 432 1185 435 1190 q 418 1172 429 1179 q 404 1158 407 1164 l 407 1141 q 406 1139 407 1141 q 404 1136 405 1137 q 389 1107 397 1112 q 379 1097 382 1101 l 379 1083 q 343 1122 343 1093 q 347 1145 343 1133 l 360 1145 q 391 1192 375 1162 q 430 1237 408 1221 q 492 1254 452 1254 q 654 1182 552 1254 q 688 1165 675 1165 q 739 1249 735 1165 q 779 1257 760 1249 z "},"":{"ha":1078,"x_min":64,"x_max":1015,"o":"m 827 899 q 945 794 874 902 q 1015 557 1015 686 q 1003 432 1015 491 q 966 324 991 373 q 892 184 914 216 q 784 71 844 113 q 660 8 723 28 q 517 -12 596 -12 q 314 21 328 -12 q 273 36 300 26 q 244 47 246 45 l 227 69 q 201 75 203 75 q 97 197 130 120 q 64 416 64 275 q 138 671 64 526 q 146 695 142 680 q 162 719 150 709 q 176 736 175 728 q 244 814 234 800 q 294 844 255 829 q 345 882 332 860 q 356 887 349 888 q 368 885 364 885 l 374 886 q 384 898 378 892 q 391 902 389 903 q 443 918 393 901 q 500 933 492 935 q 559 939 508 932 l 603 947 q 640 942 618 947 q 669 936 662 937 q 827 899 793 923 m 847 224 q 929 497 929 373 q 909 649 929 582 q 852 763 890 716 q 765 839 815 810 q 637 877 715 867 q 545 886 559 886 q 532 879 543 886 q 514 861 522 872 q 492 857 505 857 l 469 859 q 432 838 444 859 q 428 836 431 836 q 422 843 425 836 l 412 838 l 412 828 q 408 833 410 828 q 401 838 405 838 l 399 838 q 323 800 334 815 q 298 793 307 794 q 274 763 290 785 q 247 729 257 741 q 226 708 236 716 q 216 677 216 699 q 160 570 181 646 q 139 412 139 494 q 161 277 139 338 q 216 201 184 217 l 216 187 q 261 142 237 163 q 330 105 285 121 q 407 80 376 89 q 478 64 439 71 q 555 58 517 58 q 592 60 578 58 l 640 71 q 675 78 662 76 q 711 98 680 79 l 760 126 q 770 134 766 130 q 774 146 774 139 l 774 151 q 800 171 777 158 q 836 191 823 184 q 850 210 850 199 q 847 224 850 218 m 790 1257 q 808 1225 808 1252 l 807 1189 l 807 1176 q 790 1149 790 1169 l 786 1151 q 777 1144 781 1151 q 768 1136 772 1137 q 764 1137 767 1137 l 750 1136 q 680 1099 723 1099 q 645 1106 663 1099 q 598 1138 627 1113 q 559 1172 570 1164 l 541 1172 q 484 1196 506 1196 l 473 1194 q 443 1185 446 1190 q 429 1172 440 1179 q 415 1158 418 1164 l 418 1141 q 417 1139 418 1141 q 415 1136 416 1137 q 400 1107 408 1112 q 390 1097 393 1101 l 390 1083 q 354 1122 354 1093 q 358 1145 354 1133 l 371 1145 q 402 1192 386 1162 q 441 1237 418 1221 q 503 1254 463 1254 q 665 1182 563 1254 q 699 1165 686 1165 q 750 1249 746 1165 q 790 1257 771 1249 z "},"":{"ha":1527,"x_min":64,"x_max":1485,"o":"m 1000 937 l 1008 940 q 1018 939 1012 940 q 1030 936 1025 938 q 1042 931 1035 935 q 1053 928 1050 928 q 1078 925 1055 928 q 1122 922 1100 922 l 1264 925 l 1336 922 q 1390 927 1353 922 q 1449 932 1427 932 q 1485 913 1485 932 q 1474 867 1485 889 q 1432 846 1463 846 l 1400 848 l 1393 848 q 1179 879 1349 879 q 1103 877 1152 879 q 1047 873 1053 876 q 1035 864 1042 871 q 1014 724 1014 765 l 1014 710 q 1008 646 1008 668 q 1016 599 1008 623 q 1028 553 1023 575 q 1057 530 1034 530 l 1071 532 q 1080 530 1076 532 q 1112 518 1093 518 q 1158 522 1126 518 q 1202 523 1190 525 q 1219 521 1214 521 q 1250 530 1237 521 l 1282 526 q 1288 528 1283 526 q 1364 538 1321 536 q 1365 525 1365 534 q 1363 509 1365 517 q 1361 494 1361 500 q 1352 456 1361 467 q 1311 444 1343 444 q 1271 454 1297 444 q 1219 464 1244 464 l 1175 463 q 1124 466 1162 463 q 1060 469 1086 469 l 1044 469 q 1020 449 1028 461 q 1004 395 1011 436 q 997 309 997 354 q 1004 192 997 269 q 1013 65 1011 115 q 1035 50 1028 50 l 1039 50 l 1074 49 q 1170 54 1107 49 l 1227 58 l 1284 56 q 1394 71 1320 56 l 1425 76 q 1452 85 1440 79 q 1470 90 1464 90 q 1476 78 1476 90 q 1470 50 1476 68 q 1472 25 1472 39 q 1464 -2 1472 6 q 1428 -9 1455 -9 l 1413 -9 q 1332 -5 1369 -9 q 1204 5 1280 5 l 1019 3 q 1007 9 1010 9 q 989 4 994 2 q 981 5 984 5 q 962 -3 972 5 q 935 -16 945 -5 l 930 -16 q 911 -5 921 -16 q 918 8 918 3 l 917 28 q 919 34 917 30 q 921 40 921 38 l 920 40 q 917 49 917 40 q 923 93 917 51 q 929 170 929 136 l 917 197 l 899 178 l 882 168 q 715 29 804 71 q 517 -12 627 -12 q 414 -3 475 -12 q 332 5 353 5 q 322 14 328 5 q 277 35 316 22 q 237 57 238 47 q 227 69 230 62 q 203 75 216 72 q 159 109 190 77 q 111 172 127 140 q 83 240 94 203 q 68 320 73 277 q 64 416 64 363 q 78 528 64 472 q 138 671 93 584 q 145 694 142 679 q 161 719 149 709 q 176 736 174 728 q 309 853 234 815 q 345 882 338 869 q 351 888 348 888 l 366 885 l 374 886 q 382 897 378 892 q 401 905 387 901 l 479 930 q 543 937 483 931 l 603 947 q 644 942 623 947 q 669 936 666 936 l 677 936 q 716 932 693 936 q 762 923 739 929 q 804 909 785 916 q 836 897 833 898 q 863 887 851 894 q 885 869 873 880 q 906 844 894 859 q 939 806 926 818 l 930 856 q 925 880 929 864 q 921 904 921 897 q 930 919 921 915 q 985 935 939 922 l 989 943 l 1000 937 m 807 174 q 822 186 811 179 l 832 194 q 840 204 837 199 q 846 219 844 210 l 871 269 q 896 327 885 299 q 914 383 907 355 q 925 439 922 412 q 929 497 929 468 q 909 652 929 584 q 850 767 888 720 q 764 839 811 815 q 651 875 718 863 q 545 886 584 886 q 532 879 543 886 q 514 861 522 872 q 492 857 505 857 l 469 859 q 432 838 444 859 q 428 836 431 836 q 422 843 425 836 l 412 838 l 412 828 q 408 833 410 828 q 401 838 405 838 l 399 838 l 361 824 q 331 806 343 817 q 298 793 319 796 q 273 763 288 783 q 248 730 257 742 q 227 709 238 719 q 216 686 216 699 l 216 677 q 161 571 184 650 q 139 412 139 493 q 162 277 139 337 q 216 201 184 216 l 216 187 q 262 141 239 161 q 331 104 285 121 q 409 79 378 88 q 479 64 441 70 q 555 58 517 58 q 603 61 594 58 q 641 71 612 64 q 677 79 670 77 q 721 104 684 80 q 752 122 730 113 q 774 146 774 131 l 774 151 q 807 174 790 170 z "},"":{"ha":1278,"x_min":49,"x_max":1247,"o":"m 1242 440 q 1247 424 1247 433 q 1222 386 1247 397 q 1166 374 1196 374 q 1154 364 1159 364 q 1148 368 1154 364 q 1131 374 1142 372 l 1122 382 q 1093 378 1107 378 q 1062 380 1081 378 q 1035 383 1042 383 q 1003 379 1027 383 q 961 375 979 375 l 895 378 q 798 368 844 378 q 780 363 791 365 q 766 357 768 361 l 758 319 q 751 267 751 287 q 763 192 751 227 q 795 139 774 156 q 849 100 817 123 q 926 65 882 77 q 1021 53 970 53 l 1090 58 l 1136 58 q 1162 70 1143 58 q 1198 85 1181 82 q 1207 50 1207 64 q 1187 -5 1207 18 q 1143 -28 1166 -28 l 1131 -25 l 1050 -26 q 1013 -21 1028 -26 q 985 -16 998 -16 l 957 -17 q 927 -9 946 -17 q 875 9 909 -2 q 828 25 841 20 q 802 36 815 30 q 776 48 788 41 q 753 65 764 56 l 732 85 l 682 115 l 647 96 q 529 21 589 44 q 392 -3 468 -3 l 357 4 q 353 3 354 4 q 311 -7 347 -7 q 198 21 263 -7 q 91 105 132 48 q 49 225 49 162 q 51 274 49 250 q 59 320 54 298 q 71 361 64 342 l 87 400 l 87 418 q 468 619 193 619 q 718 494 669 619 l 739 484 q 876 594 838 568 q 933 621 915 621 q 945 618 942 621 q 1054 640 989 640 q 1151 605 1103 640 q 1206 473 1200 570 q 1242 440 1207 450 m 933 582 q 895 559 929 576 q 862 532 878 547 q 831 498 846 516 q 805 466 817 480 q 788 445 794 452 q 782 432 782 437 q 788 422 782 427 q 800 418 794 418 l 850 418 l 1086 427 q 1132 467 1132 427 q 1116 539 1132 508 q 1028 590 1099 571 q 1005 591 1020 590 q 983 593 990 593 q 933 582 977 593 m 673 414 q 575 537 634 498 q 419 576 516 576 q 352 563 397 576 q 273 522 307 549 q 176 445 220 517 q 131 294 131 372 q 138 223 131 277 q 180 133 144 168 q 266 72 215 97 q 347 46 316 46 q 363 48 355 46 l 370 50 l 397 50 q 521 78 488 50 q 525 81 524 81 q 538 77 529 81 q 671 297 671 179 q 651 341 671 311 q 631 379 631 371 q 673 414 631 399 z "},"":{"ha":793,"x_min":69,"x_max":724,"o":"m 703 386 q 724 345 724 371 q 702 299 724 318 q 646 281 680 281 l 603 285 l 553 285 l 472 288 l 380 283 l 260 286 q 172 277 227 286 q 93 268 117 268 l 79 268 q 69 278 69 271 q 78 295 69 281 q 86 322 86 309 q 114 343 104 329 q 187 355 117 343 l 187 366 l 195 366 q 212 370 204 366 l 212 366 q 234 354 212 356 q 318 351 256 351 q 699 372 440 351 q 703 386 703 378 z "},"":{"ha":1529,"x_min":69,"x_max":1459,"o":"m 1439 375 q 1459 334 1459 360 q 1437 289 1459 308 q 1382 269 1415 269 l 1339 273 l 1103 273 l 505 278 q 425 274 464 278 q 379 271 387 271 l 260 275 q 171 266 222 275 q 100 256 119 256 q 69 267 69 256 q 78 284 69 271 q 86 311 86 298 q 114 332 104 318 q 187 345 129 333 l 187 354 l 195 354 q 212 358 204 354 q 211 354 211 357 q 396 338 211 338 l 453 339 l 472 338 q 481 340 478 338 q 465 351 468 347 l 472 351 q 510 349 482 351 q 557 346 538 346 l 578 346 l 689 345 q 821 350 758 345 q 896 355 884 355 l 994 354 l 1031 354 q 1053 349 1040 354 q 1078 345 1065 345 l 1103 345 q 1170 348 1104 345 l 1236 351 l 1300 361 l 1435 361 q 1439 375 1436 363 z "},"":{"ha":541,"x_min":96,"x_max":443,"o":"m 277 954 q 290 939 290 954 q 242 824 290 935 q 167 673 194 712 q 104 633 140 633 q 96 639 96 633 q 150 750 96 653 q 243 928 203 847 q 277 954 255 954 m 441 933 q 443 916 443 928 q 420 824 443 882 q 383 721 397 767 q 346 655 370 675 q 289 627 321 635 l 289 650 q 326 715 309 682 q 358 784 343 749 q 386 857 373 819 q 397 871 386 859 q 411 905 404 878 q 441 933 419 932 z "},"":{"ha":541,"x_min":106,"x_max":435,"o":"m 427 960 q 435 951 435 960 q 421 917 435 943 l 343 772 q 294 677 304 699 q 274 647 284 655 q 256 639 264 639 q 240 652 240 639 q 269 722 240 656 l 326 850 q 374 936 353 911 q 427 960 395 960 m 258 936 q 231 888 244 912 q 207 838 218 863 q 185 787 195 813 q 165 736 174 762 q 153 718 163 729 q 140 691 145 709 q 107 653 130 654 q 106 671 106 658 q 129 762 106 705 q 165 865 152 819 q 202 931 179 911 q 258 960 226 951 l 258 936 z "},"":{"ha":347,"x_min":78,"x_max":273,"o":"m 260 965 q 273 954 273 965 q 244 882 273 950 l 187 754 q 139 670 161 694 q 87 646 118 646 q 78 654 78 646 q 106 713 78 660 l 170 833 q 218 926 207 902 q 239 957 229 949 q 260 965 250 965 z "},"":{"ha":347,"x_min":77,"x_max":271,"o":"m 262 977 q 271 966 271 977 q 269 957 271 961 q 123 682 151 739 q 90 654 111 654 q 77 668 77 654 q 98 725 77 675 l 144 831 q 186 917 170 888 q 221 962 203 947 q 262 977 239 977 z "},"":{"ha":1157,"x_min":172,"x_max":985,"o":"m 579 736 q 634 713 611 736 q 657 659 657 690 q 634 604 657 627 q 579 581 612 581 q 524 603 547 581 q 501 659 501 626 q 525 713 501 690 q 579 736 548 736 m 985 375 l 172 375 l 172 454 l 985 454 l 985 375 m 579 248 q 634 224 610 248 q 657 170 657 201 q 634 115 657 138 q 579 92 612 92 q 524 114 547 92 q 501 170 501 137 q 524 225 501 202 q 579 248 547 248 z "},"":{"ha":686,"x_min":31,"x_max":652,"o":"m 652 517 l 383 0 l 300 0 l 31 517 l 300 1035 l 383 1035 l 652 517 m 569 517 l 342 960 l 115 517 l 342 75 l 569 517 z "},"":{"ha":699,"x_min":18,"x_max":681,"o":"m 597 610 q 616 616 606 616 q 654 610 627 616 q 681 590 681 603 q 657 555 681 572 q 586 442 648 555 l 474 239 q 418 85 425 151 q 387 17 412 34 l 383 0 q 366 -14 372 -2 q 246 -294 267 -240 q 223 -376 224 -347 q 193 -406 221 -406 l 186 -406 q 125 -397 163 -397 l 121 -399 q 110 -387 110 -399 q 114 -382 110 -384 q 164 -310 114 -376 q 158 -302 158 -308 q 190 -246 158 -294 q 321 -14 269 -126 q 317 0 317 -7 q 304 3 313 3 l 301 3 q 282 38 287 3 q 273 79 277 73 q 211 208 243 132 q 144 353 178 284 q 95 458 109 422 q 58 520 80 494 q 36 564 36 546 l 36 571 q 28 570 33 570 q 18 574 18 570 q 40 605 18 578 q 89 648 62 633 q 120 635 109 640 q 145 569 131 629 l 160 515 l 160 493 q 227 353 186 444 l 248 308 q 269 266 259 285 q 289 229 278 246 q 310 197 299 212 q 328 171 327 174 q 339 152 333 161 q 353 137 346 144 q 370 123 361 130 l 422 243 q 510 429 490 395 q 540 492 530 463 q 558 556 550 521 q 571 601 566 591 q 589 611 576 611 l 597 610 m 518 884 q 537 861 523 877 q 551 833 551 844 q 535 800 551 817 q 503 783 519 783 q 445 814 473 783 q 416 861 416 845 q 443 901 416 879 l 443 914 l 457 914 l 460 924 q 479 914 471 922 q 488 896 482 904 q 518 884 494 888 m 212 901 q 225 884 212 892 q 275 823 275 868 q 259 797 275 812 q 244 772 244 783 l 239 772 q 225 768 229 772 q 149 840 149 824 q 155 866 149 846 q 181 896 162 886 q 205 907 200 907 q 212 901 209 907 z "},"":{"ha":791,"x_min":28,"x_max":778,"o":"m 777 918 q 778 901 778 911 q 757 873 778 879 q 669 742 724 837 q 541 541 613 646 q 456 409 469 435 q 443 368 443 384 l 443 350 l 441 224 q 449 98 441 148 q 457 43 457 47 q 403 1 457 1 q 357 7 381 1 q 354 16 354 15 q 357 30 354 19 q 359 47 359 40 q 361 66 359 56 q 367 93 363 77 q 371 126 371 109 l 372 168 l 372 215 q 366 331 372 288 q 339 410 359 374 q 261 529 319 445 q 156 683 203 612 q 91 780 109 754 q 61 811 72 806 q 33 835 54 826 q 28 857 28 848 q 47 889 28 882 q 84 920 65 915 q 111 928 104 925 q 138 866 123 882 q 182 799 154 850 q 233 732 210 749 q 243 713 237 713 l 248 713 l 248 710 q 273 663 248 694 q 321 588 298 632 q 379 505 345 545 q 424 465 412 465 q 425 467 425 465 q 509 568 432 467 q 646 859 585 669 q 674 914 659 899 q 732 933 690 928 l 736 935 q 753 927 741 935 q 777 918 766 920 m 564 1211 q 583 1188 569 1204 q 597 1161 597 1172 q 582 1128 597 1145 q 549 1111 566 1111 q 491 1142 519 1111 q 463 1189 463 1173 q 489 1229 463 1206 l 489 1242 l 503 1242 l 506 1251 q 525 1242 517 1249 q 534 1223 528 1232 q 564 1211 540 1215 m 258 1229 q 271 1211 258 1219 q 321 1151 321 1196 q 306 1125 321 1139 q 290 1100 290 1110 l 285 1100 q 271 1096 275 1100 q 195 1168 195 1152 q 201 1194 195 1174 q 227 1224 208 1213 q 252 1234 246 1234 q 258 1229 255 1234 z "},"":{"ha":478,"x_min":-97,"x_max":575,"o":"m 472 939 q 525 951 499 951 q 561 930 547 951 q 575 886 575 908 q 568 864 575 871 q 545 850 562 857 q 519 838 528 842 l 519 823 l 515 823 q 503 817 509 823 q 493 810 497 810 q 486 812 492 810 q 79 122 81 149 q 41 56 72 97 q 0 0 10 16 q 7 -16 7 -9 q -13 -58 7 -18 q -33 -107 -33 -98 l -46 -86 l -72 -74 q -78 -68 -78 -72 l -77 -64 q -82 -58 -77 -58 l -97 -58 q -77 -3 -92 -22 q -37 36 -63 16 q 11 86 -11 57 q 56 161 33 116 l 104 254 l 147 313 q 233 465 193 390 q 285 547 273 541 q 444 872 317 601 q 465 906 460 881 q 472 939 469 930 z "},"":{"ha":922,"x_min":33,"x_max":879,"o":"m 879 -41 q 855 -58 879 -58 l 785 -48 q 595 -24 706 -39 q 471 4 517 -10 q 350 56 408 24 q 255 125 292 89 q 146 307 174 203 l 144 315 q 109 313 124 315 q 56 294 64 294 q 42 304 50 294 q 33 320 33 314 l 35 324 q 64 361 50 342 q 104 382 84 382 q 126 380 111 382 l 133 380 q 132 416 132 397 q 152 530 132 464 q 97 517 97 530 q 98 513 97 514 q 65 503 100 513 l 65 513 l 56 517 q 48 509 48 513 l 48 507 q 33 543 33 529 q 46 566 33 555 q 60 585 59 577 q 82 595 66 585 q 100 605 98 605 q 113 603 104 605 q 174 592 142 596 q 222 705 210 683 q 298 800 245 747 q 449 903 354 858 q 483 928 483 920 q 532 936 501 936 q 600 946 555 936 q 671 956 645 956 q 772 943 673 956 q 854 926 802 939 q 867 913 867 921 q 852 857 867 890 q 815 819 834 819 q 789 828 803 819 q 718 871 765 854 q 634 888 673 888 q 591 885 631 888 l 551 882 q 537 880 543 882 q 515 875 520 878 q 456 854 479 854 l 450 854 l 440 844 q 406 829 420 844 l 391 829 q 236 588 277 711 q 304 592 258 588 q 431 596 354 596 l 494 596 q 637 597 627 596 q 690 618 685 618 l 696 617 q 713 591 713 601 l 711 587 q 652 529 688 558 q 626 530 640 528 q 489 531 610 531 l 479 531 l 474 522 q 431 529 452 531 q 391 527 413 527 l 275 526 q 220 528 262 526 q 214 449 214 490 q 220 385 214 418 q 231 385 227 385 l 265 384 l 315 385 q 385 382 326 385 l 387 391 q 435 382 416 382 q 534 395 534 382 l 532 399 l 534 399 q 566 409 535 399 l 566 399 q 574 393 566 393 q 582 404 582 393 q 596 370 596 385 q 584 345 596 357 q 571 326 572 334 q 551 318 563 326 q 531 306 533 307 q 358 323 439 323 q 283 318 334 323 q 240 315 267 317 q 284 236 257 274 q 479 86 354 139 q 724 39 593 39 q 793 47 747 39 q 848 66 848 56 q 879 -39 879 66 l 879 -41 z "},"":{"ha":489,"x_min":41,"x_max":364,"o":"m 364 102 q 339 32 361 63 l 329 39 q 298 24 310 32 l 296 24 q 280 40 288 24 q 251 73 273 56 q 188 130 229 90 q 97 227 147 170 q 44 289 47 283 q 41 300 41 294 q 45 317 41 303 q 202 457 125 374 q 308 560 280 539 q 354 581 335 581 q 364 568 359 581 q 273 469 349 523 q 164 381 197 414 q 131 339 131 347 q 132 338 131 338 l 134 338 q 163 271 137 300 q 230 205 189 241 q 291 150 272 169 q 318 131 309 131 q 328 134 321 131 q 336 136 334 136 l 339 136 q 358 100 351 100 q 364 102 361 100 z "},"":{"ha":489,"x_min":41,"x_max":363,"o":"m 66 587 q 77 582 71 582 q 93 589 82 582 q 110 596 104 596 q 124 583 119 596 q 135 562 130 569 q 185 518 159 543 q 239 465 212 494 q 297 404 267 437 q 345 351 328 371 q 362 327 362 331 q 363 318 363 323 q 361 302 363 308 q 209 170 281 246 q 113 73 136 94 q 79 46 90 53 q 52 40 68 40 q 41 53 41 40 q 55 85 41 68 q 142 157 68 103 q 244 242 215 210 q 273 281 273 275 l 273 282 l 272 282 q 205 385 268 327 l 92 489 l 85 489 q 66 484 74 489 q 49 519 55 519 q 41 518 44 519 q 66 587 43 556 z "},"":{"ha":798,"x_min":49,"x_max":815,"o":"m 170 721 q 197 790 186 727 q 266 968 215 901 q 358 1043 316 1035 q 389 1065 374 1048 q 440 1092 420 1082 q 478 1108 460 1101 q 511 1116 495 1115 l 562 1120 q 625 1122 596 1122 q 716 1111 660 1122 q 793 1088 772 1099 q 815 1053 815 1078 q 806 1015 815 1034 q 786 990 797 996 l 782 989 q 743 1023 767 989 l 708 1036 q 571 1074 633 1074 q 440 1045 509 1074 q 351 987 371 1016 q 271 843 296 908 q 245 690 245 779 q 254 596 245 606 q 279 600 262 596 q 304 604 296 604 q 326 590 320 604 q 364 591 341 591 l 450 590 l 505 597 l 557 599 q 561 602 559 602 q 569 599 563 602 q 581 596 575 597 q 611 607 588 602 q 643 618 633 612 q 684 631 649 631 q 707 618 703 631 l 697 582 l 694 582 q 654 221 654 582 q 659 113 654 150 q 674 50 663 77 q 688 5 685 23 q 585 -29 648 -29 q 568 -26 578 -29 q 562 -4 562 -15 q 568 24 562 3 q 597 504 597 128 q 588 527 597 515 q 573 548 578 540 q 549 555 569 555 q 511 551 543 555 q 433 546 479 546 l 383 547 l 355 543 q 314 538 326 538 l 309 538 q 285 541 294 541 q 237 538 276 541 q 228 239 228 386 l 228 83 q 272 -155 228 -99 q 245 -210 272 -208 q 239 -223 242 -214 q 232 -232 235 -232 q 218 -248 223 -248 q 216 -246 217 -248 q 196 -240 212 -238 q 174 -243 181 -243 q 146 -203 146 -243 q 158 -33 158 -197 l 157 151 l 158 204 l 157 236 q 161 303 157 253 q 165 401 165 354 q 158 533 165 471 q 138 526 146 526 q 125 529 133 526 q 107 536 118 539 q 87 533 97 533 l 79 533 l 69 543 l 61 538 q 49 555 49 546 q 53 568 49 562 q 143 648 121 613 q 170 721 165 683 m 665 814 q 701 793 677 804 q 725 766 725 782 q 708 735 725 752 q 672 718 691 718 q 631 740 653 718 q 608 766 608 761 q 627 796 608 779 q 664 814 646 814 l 665 814 z "},"":{"ha":806,"x_min":47,"x_max":694,"o":"m 681 986 q 691 960 687 963 q 694 924 694 956 q 687 891 694 916 q 679 842 679 867 l 679 786 l 676 505 l 679 382 q 673 275 679 344 q 668 175 668 205 q 690 72 668 84 q 692 52 692 66 q 682 9 692 19 q 669 24 680 14 q 643 7 658 24 q 616 -9 627 -9 l 607 -9 q 593 -18 598 -9 q 572 14 572 5 q 566 33 566 25 q 578 57 566 42 q 601 183 592 57 q 610 546 610 310 l 606 876 l 606 879 q 576 909 606 896 q 511 922 547 922 q 447 913 477 922 q 410 903 418 903 q 372 883 401 895 q 328 856 342 871 q 302 815 314 842 q 286 806 297 814 q 227 525 227 663 l 227 515 q 275 510 249 510 q 338 518 307 510 q 342 517 339 517 q 350 524 348 517 q 372 517 368 517 q 386 522 386 517 q 382 525 386 525 l 411 525 q 463 528 446 525 l 471 536 q 505 542 499 538 q 514 546 510 546 q 522 542 518 546 q 528 538 526 538 q 531 540 529 538 q 536 542 534 542 l 538 542 q 553 522 553 536 q 534 493 553 509 l 539 485 l 522 493 q 412 481 504 486 l 227 471 q 218 310 218 379 l 228 -113 q 250 -179 228 -165 q 268 -220 268 -216 q 265 -227 268 -221 q 260 -224 262 -224 q 250 -226 257 -224 q 239 -228 243 -228 l 235 -228 q 240 -241 240 -233 q 218 -250 240 -246 q 197 -258 214 -258 l 174 -257 q 155 -260 164 -257 q 147 -249 153 -251 q 143 -212 143 -230 l 154 135 l 144 368 l 147 460 q 139 465 147 465 q 121 464 131 465 l 89 454 q 47 472 47 454 q 70 500 47 491 q 92 513 92 510 l 92 517 q 96 522 92 522 l 109 522 q 122 545 120 536 q 147 564 137 551 q 168 623 157 577 q 244 823 210 802 q 255 852 249 842 q 280 877 262 862 q 340 914 298 891 q 387 937 382 937 l 406 937 q 426 951 415 945 q 491 963 437 957 q 591 972 545 970 q 606 1050 606 994 q 598 1099 606 1082 q 591 1128 591 1116 q 611 1162 591 1147 l 619 1157 q 624 1161 624 1158 l 624 1165 q 631 1171 624 1171 q 650 1179 644 1171 q 665 1185 659 1185 q 690 1149 690 1185 q 686 1121 690 1137 q 684 1059 684 1096 l 685 1008 q 681 986 685 996 z "}}}
